<?xml version="1.0" encoding="UTF-8"?>
<!-- Created with Inkscape (http://www.inkscape.org/) -->
<svg width="1900" height="767" version="1.1" viewBox="0 0 502.71 202.94" xmlns="http://www.w3.org/2000/svg" xmlns:cc="http://creativecommons.org/ns#" xmlns:dc="http://purl.org/dc/elements/1.1/" xmlns:rdf="http://www.w3.org/1999/02/22-rdf-syntax-ns#">
 <metadata>
  <rdf:RDF>
   <cc:Work rdf:about="">
    <dc:format>image/svg+xml</dc:format>
    <dc:type rdf:resource="http://purl.org/dc/dcmitype/StillImage"/>
    <dc:title/>
   </cc:Work>
  </rdf:RDF>
 </metadata>
 <g transform="translate(0 -94.065)">
  <path d="m97.047 293.73c-0.05798-0.058-0.10537-0.84028-0.10537-1.7385 0-1.3463 0.04164-1.6332 0.23707-1.6332 0.1941 0 0.23707 0.27219 0.23707 1.5014v1.5014h1.5014c1.2293 0 1.5015 0.043 1.5015 0.23708 0 0.19545-0.28683 0.23707-1.6332 0.23707-0.89824 0-1.6806-0.0475-1.7385-0.10537zm4.5885 5e-3c-0.29902-0.29902 0.0298-0.37395 1.6411-0.37395 1.3309 0 1.736 0.0475 1.6862 0.19757-0.0716 0.21594-3.1258 0.37787-3.3273 0.17638zm4.2673 0c-0.29902-0.29902 0.0299-0.37395 1.6411-0.37395 1.3309 0 1.736 0.0475 1.6862 0.19757-0.0716 0.21594-3.1258 0.37787-3.3273 0.17638zm4.5834 0c-0.25639-0.25641-0.0675-0.37398 0.60067-0.37398h0.71121v-2.4313c0-2.2984-0.0173-2.4358-0.31609-2.514-0.18912-0.0494-0.3161-0.21559-0.3161-0.41356 0-0.32963-0.0216-0.33089-5.6239-0.33089-4.4288 0-5.6099-0.0419-5.558-0.19756 0.0507-0.152 1.3478-0.20714 5.6239-0.2391 4.9439-0.037 5.558-0.0692 5.558-0.29138 0-0.13741 0.14225-0.28704 0.3161-0.33251 0.29882-0.0781 0.31609-0.21558 0.31609-2.514v-2.4313h-0.72438c-0.9328 0-0.87801-0.37422 0.0649-0.44372l0.65942-0.0487v-40.135c0-35.57 0.027-40.135 0.23708-40.135 0.2101 0 0.23707 4.5648 0.23707 40.135v40.135l0.73837 0.0482c1.0545 0.0687 1.1094 0.44329 0.065 0.44329h-0.80341v2.4497c0 2.3809 9e-3 2.4497 0.33089 2.4497 0.19727 0 0.36407 0.12684 0.41305 0.31409 0.0797 0.30489 0.24468 0.31532 5.6223 0.35561 4.2617 0.032 5.5553 0.0871 5.606 0.23908 0.0518 0.15559-1.127 0.19755-5.5471 0.19755h-5.6129l-0.0505 0.35562c-0.0325 0.22853-0.17759 0.37365-0.40611 0.40611-0.35124 0.0498-0.35561 0.0806-0.35561 2.4892v2.4388h0.8034c0.57232 0 0.78458 0.0568 0.73789 0.19756-0.0716 0.21595-3.1258 0.37787-3.3273 0.1764zm4.4728-0.13692c0-0.2124 0.24248-0.24136 1.699-0.20289 0.99741 0.0263 1.699 0.11013 1.699 0.20289 0 0.0927-0.70161 0.17659-1.699 0.2029-1.4565 0.0385-1.699 9e-3 -1.699-0.2029zm4.3778 0.13689c-0.29903-0.29902 0.0299-0.37395 1.6412-0.37395 1.3309 0 1.736 0.0474 1.6862 0.19755-0.0716 0.21596-3.1259 0.37788-3.3273 0.1764zm4.5834 0c-0.29314-0.29313 7e-3 -0.37395 1.3909-0.37395h1.5015v-1.5014c0-1.244 0.0415-1.5015 0.24241-1.5015 0.20561 0 0.2356 0.25799 0.19755 1.699l-0.0449 1.699-1.5885 0.0447c-0.87367 0.0246-1.6382-5e-3 -1.699-0.0658zm8.8982-1.6328c0-1.4449 0.0406-1.744 0.23707-1.744 0.19409 0 0.23707 0.27218 0.23707 1.5015v1.5014h1.4356c1.0781 0 1.4193 0.0492 1.3701 0.19755-0.0453 0.13667-0.56086 0.21144-1.6727 0.24261l-1.6072 0.0451zm4.6942 1.6332c-0.29583-0.29584 0.0149-0.37429 1.4828-0.37429 1.2045 0 1.5777 0.0482 1.5282 0.19755-0.0715 0.21592-2.811 0.37669-3.011 0.17674zm4.267 0c-0.29902-0.29903 0.0299-0.37396 1.6411-0.37396 1.3309 0 1.736 0.0475 1.6862 0.19755-0.0716 0.21596-3.1258 0.37788-3.3273 0.17641zm4.4728-0.13188c0-0.18195 0.1774-0.24241 0.71121-0.24241h0.71122v-2.4313c0-2.2984-0.0173-2.4358-0.3161-2.514-0.18912-0.0494-0.3161-0.21559-0.3161-0.41356 0-0.32971-0.0204-0.33089-5.7029-0.33089-4.492 0-5.6889-0.0419-5.6371-0.19756 0.0507-0.15208 1.3636-0.20712 5.7029-0.23906 5.0162-0.037 5.6371-0.0691 5.6371-0.2914 0-0.13742 0.14225-0.28706 0.3161-0.33253 0.29882-0.0781 0.3161-0.21558 0.3161-2.514v-2.4313h-0.71122c-0.52683 0-0.71121-0.0614-0.71121-0.23708 0-0.17561 0.18438-0.23706 0.71121-0.23706h0.71122v-40.144c0-35.578 0.027-40.144 0.23707-40.144 0.21011 0 0.23707 4.5649 0.23707 40.135v40.135l0.75073 0.0481c0.4129 0.0265 0.75072 0.11929 0.75072 0.20622 0 0.0869-0.33782 0.17974-0.75072 0.20622l-0.75073 0.0482v2.4411c0 2.3721 9e-3 2.4411 0.33089 2.4411 0.19726 0 0.36406 0.12684 0.41301 0.31408 0.0797 0.30471 0.24469 0.3153 5.5433 0.3556 4.1985 0.0319 5.4763 0.0872 5.5269 0.2391 0.0518 0.15553-1.1112 0.19756-5.4681 0.19756h-5.5338l-0.0505 0.3556c-0.0325 0.22855-0.17758 0.37366-0.4061 0.40613-0.35118 0.0498-0.35562 0.0809-0.35562 2.4806v2.4301l0.75073 0.0481c1.4154 0.0908 0.78361 0.3634-0.94829 0.40912-1.441 0.0381-1.699 8e-3 -1.699-0.19756zm4.5834 0c0-0.2023 0.26574-0.24279 1.5936-0.24279 1.2045 0 1.5777 0.0482 1.5282 0.19755-0.0449 0.13556-0.54526 0.21177-1.5937 0.24279-1.2886 0.0382-1.5282 7e-3 -1.5282-0.19755zm4.3778 0.13117c-0.29903-0.29903 0.0299-0.37396 1.6411-0.37396 1.3309 0 1.736 0.0475 1.6862 0.19755-0.0716 0.21596-3.1258 0.37788-3.3273 0.17641zm4.4245-2e-3c-0.26423-0.26421 0.19073-0.37308 1.5592-0.37308h1.4921v-1.5014c0-0.89561 0.0638-1.5014 0.15804-1.5014 0.0958 0 0.15804 0.68486 0.15804 1.7385v1.7385h-1.6331c-0.89825 0-1.6786-0.0455-1.7342-0.10105zm190.45 2e-3c-0.0609-0.0608-0.11071-0.84563-0.11071-1.7439 0-1.3463 0.0416-1.6332 0.23707-1.6332 0.1941 0 0.23707 0.2722 0.23707 1.5014v1.5014h1.4356c1.078 0 1.4193 0.0492 1.3701 0.19757-0.0716 0.21594-2.9684 0.37733-3.1691 0.17656zm4.2714 4e-3c-0.27527-0.27527 0.19442-0.37825 1.7252-0.37825 1.2602 0 1.6474 0.0478 1.5978 0.19756-0.0707 0.21314-3.1245 0.37918-3.323 0.18069zm4.5834 0c-0.27527-0.27527 0.19444-0.37825 1.7252-0.37825 1.2602 0 1.6475 0.0478 1.5978 0.19756-0.0707 0.21314-3.1245 0.37918-3.323 0.18069zm4.4209-4e-3c-0.25625-0.25624-0.0672-0.37381 0.60082-0.37381h0.7112v-2.4313c0-2.2984-0.0173-2.4358-0.31608-2.514-0.18912-0.0494-0.31609-0.2156-0.31609-0.41356 0-0.32962-0.0216-0.33089-5.6239-0.33089-4.4288 0-5.6099-0.0419-5.5581-0.19756 0.0507-0.15199 1.3478-0.20714 5.6239-0.23909 4.9439-0.037 5.5581-0.0692 5.5581-0.29138 0-0.13743 0.14223-0.28705 0.31609-0.33253 0.29881-0.0781 0.31608-0.21557 0.31608-2.5139v-2.4313h-0.72437c-0.9328 0-0.87802-0.37422 0.065-0.44371l0.65941-0.0486v-40.135c0-35.57 0.0269-40.135 0.23708-40.135 0.21011 0 0.23708 4.5649 0.23708 40.136v40.136l0.81733 0.0478c1.1706 0.0684 1.2257 0.44289 0.065 0.44289h-0.88242v2.4498c0 2.3298 0.0151 2.4497 0.31053 2.4497 0.1708 0 0.38617 0.14135 0.47863 0.31407 0.16216 0.30302 0.36386 0.31555 5.7217 0.35562 4.2724 0.032 5.5687 0.0871 5.6194 0.23909 0.0518 0.15557-1.1242 0.19756-5.5327 0.19756h-5.5985l-0.18002 0.39511c-0.10561 0.23179-0.31212 0.39513-0.49952 0.39513-0.30688 0-0.31948 0.0967-0.31948 2.4497v2.4497h0.88242c0.63555 0 0.8641 0.0553 0.8169 0.19756-0.0717 0.21597-3.2834 0.37838-3.4855 0.17625zm4.5784-5e-3c-0.29144-0.29143 0.0345-0.36877 1.5541-0.36877 1.3698 0 1.6595 0.0414 1.6595 0.23708 0 0.19464-0.27807 0.23706-1.5542 0.23706-0.85478 0-1.6016-0.0474-1.6595-0.10537zm4.5887 5e-3c-0.2975-0.2975 0.0224-0.37413 1.5619-0.37413 1.2677 0 1.6568 0.0479 1.6072 0.19757-0.0716 0.21594-2.9684 0.37733-3.1691 0.17656zm4.3146-0.13098c0-0.20013 0.24901-0.2426 1.4224-0.2426h1.4224v-1.5014c0-1.244 0.0415-1.5015 0.24242-1.5015 0.20561 0 0.23561 0.25799 0.19755 1.699l-0.0449 1.699-1.62 0.0451c-1.3706 0.0381-1.62 8e-3 -1.62-0.19756zm8.9612 0.13135c-0.0608-0.0608-0.11054-0.84546-0.11054-1.7437 0-1.3463 0.0416-1.6332 0.23708-1.6332 0.19403 0 0.23706 0.27155 0.23706 1.4955v1.4955l1.462 0.0455c0.83896 0.0261 1.4619 0.11279 1.4619 0.20348 0 0.18022-3.1145 0.3099-3.2875 0.13689zm4.4202-5e-3c-0.29314-0.29313 0.0418-0.36877 1.6332-0.36877 1.44 0 1.7385 0.0407 1.7385 0.23707 0 0.19545-0.28682 0.23707-1.6332 0.23707-0.89825 0-1.6806-0.0475-1.7385-0.10537zm4.5887 5e-3c-0.29749-0.29748 0.0224-0.37411 1.5619-0.37411 1.2677 0 1.6568 0.0478 1.6072 0.19756-0.0716 0.21595-2.9684 0.37733-3.1691 0.17655zm4.2671-1.5e-4c-0.26752-0.26752-0.0516-0.37396 0.75873-0.37396h0.86926v-2.4497c0-2.3544-0.0125-2.4497-0.32002-2.4497-0.1959 0-0.37825-0.15321-0.47022-0.39511l-0.15023-0.39512h-5.5488c-4.3687 0-5.5348-0.042-5.4829-0.19756 0.0506-0.15198 1.3442-0.20714 5.6059-0.23908 5.3776-0.0403 5.5426-0.0507 5.6223-0.35561 0.0489-0.18725 0.21576-0.31409 0.41303-0.31409 0.32156 0 0.33089-0.0689 0.33089-2.4415v-2.4415l-0.82976-0.0478c-0.45636-0.0263-0.82975-0.11891-0.82975-0.20583 0-0.0869 0.37339-0.17953 0.82975-0.20582l0.82976-0.0478v-40.136c0-35.571 0.027-40.136 0.23706-40.136 0.21011 0 0.23708 4.5648 0.23708 40.135v40.135l0.58046 0.049c0.83377 0.0705 0.88838 0.44418 0.0649 0.44418h-0.64536v2.4497c0 2.1361 0.0322 2.4497 0.25187 2.4497 0.13853 0 0.28883 0.14135 0.334 0.31409 0.0797 0.30489 0.24469 0.31532 5.6223 0.35561 4.2617 0.032 5.5553 0.0871 5.606 0.23908 0.0518 0.15558-1.1292 0.19756-5.5581 0.19756-5.6023 0-5.6239 2e-3 -5.6239 0.33089 0 0.19796-0.12697 0.36409-0.31609 0.41356-0.29883 0.0781-0.3161 0.21557-0.3161 2.514v2.4313h0.64536c0.44586 0 0.62511 0.061 0.57984 0.19755-0.0716 0.21596-3.1258 0.37788-3.3273 0.1764zm4.5832-1.4e-4c-0.30045-0.30045 0.0372-0.37382 1.7203-0.37382 1.3942 0 1.8151 0.0472 1.7652 0.19756-0.0717 0.21598-3.2834 0.37838-3.4855 0.17626zm4.4253 0c-0.30045-0.30045 0.0372-0.37382 1.7203-0.37382 1.3942 0 1.8151 0.0472 1.7652 0.19756-0.0717 0.21598-3.2834 0.37838-3.4855 0.17626zm4.5784-5e-3c-0.28538-0.28535 0.0125-0.36876 1.3171-0.36876h1.4224v-1.5014c0-1.2293 0.043-1.5015 0.23706-1.5015 0.19637 0 0.23708 0.29855 0.23708 1.7385v1.7385h-1.5541c-0.85479 0-1.6016-0.0475-1.6595-0.10537zm-315.66-4.6874c-0.16842-0.43892 0.0081-3.1619 0.20882-3.2285 0.1501-0.0497 0.19755 0.35532 0.19755 1.6862 0 1.098-0.06083 1.7517-0.16301 1.7517-0.08967 0-0.19917-0.0942-0.24336-0.20941zm29.881 0.0264c-0.15386-0.40095-0.0126-3.2184 0.15917-3.1763 0.2121 0.052 0.29521 3.0483 0.0903 3.2533-0.10651 0.10649-0.18875 0.0812-0.24941-0.077zm6.0359 0.0803c-0.0594-0.0594-0.10799-0.84885-0.10799-1.7543 0-1.2466 0.0479-1.6304 0.19756-1.5808 0.13587 0.045 0.21178 0.55057 0.24309 1.6192 0.0421 1.4362-0.0642 1.9844-0.33266 1.7159zm29.763-1.6358c0-1.0536 0.0623-1.7385 0.15804-1.7385 0.0958 0 0.15804 0.68487 0.15804 1.7385 0 1.0537-0.0623 1.7385-0.15804 1.7385-0.0958 0-0.15804-0.68487-0.15804-1.7385zm187.36 1.5555c-0.15385-0.40095-0.0127-3.2184 0.15917-3.1763 0.21209 0.052 0.29522 3.0483 0.0902 3.2533-0.10649 0.10649-0.18875 0.0812-0.2494-0.077zm29.713 0c-0.15388-0.40095-0.0127-3.2184 0.15916-3.1763 0.2121 0.052 0.29522 3.0483 0.0902 3.2533-0.10648 0.10649-0.18874 0.0812-0.24938-0.077zm6.0058 0c-0.15387-0.40095-0.0127-3.2184 0.15917-3.1763 0.21209 0.052 0.29522 3.0483 0.0902 3.2533-0.10649 0.10649-0.18874 0.0812-0.24939-0.077zm29.713 0c-0.15386-0.40095-0.0127-3.2184 0.15916-3.1763 0.21212 0.052 0.29523 3.0483 0.0902 3.2533-0.10649 0.10649-0.18874 0.0812-0.2494-0.077zm-318.51-6.0994 0.04488-1.699 1.699-0.0449c1.441-0.0381 1.699-8e-3 1.699 0.19756 0 0.20086-0.25747 0.24242-1.5015 0.24242h-1.5014v1.5014c0 1.244-0.04153 1.5014-0.24241 1.5014-0.20561 0-0.23561-0.25799-0.19756-1.699zm29.837 0.19755v-1.5014h-1.5146c-1.1413 0-1.4985-0.0486-1.4491-0.19756 0.0457-0.1377 0.57647-0.21115 1.7517-0.24242l1.6862-0.0449v1.7439c0 1.4448-0.0406 1.7439-0.23707 1.7439-0.19411 0-0.23707-0.27218-0.23707-1.5014zm6.04-0.19755 0.0449-1.699h1.5673c1.1134 0 1.5864 0.0571 1.6332 0.19756 0.0494 0.14837-0.29151 0.19756-1.3698 0.19756h-1.4356v1.5014c0 1.244-0.0415 1.5014-0.24243 1.5014-0.2056 0-0.23559-0.25799-0.19755-1.699zm29.837 0.20328v-1.4957l-1.5023-0.0452c-2.089-0.0629-2.0047-0.35012 0.11934-0.4062l1.699-0.0449v1.7439c0 1.0572-0.0623 1.7439-0.15804 1.7439-0.0942 0-0.15804-0.60394-0.15804-1.4957zm187.32-0.20328 0.0449-1.699h1.5673c1.1134 0 1.5864 0.0571 1.6332 0.19756 0.0494 0.14837-0.29151 0.19756-1.3698 0.19756h-1.4356v1.5014c0 1.244-0.0415 1.5014-0.24242 1.5014-0.20562 0-0.23561-0.25799-0.19755-1.699zm29.679 0.19755v-1.5014h-1.4224c-1.1734 0-1.4224-0.0424-1.4224-0.2426 0-0.20526 0.2494-0.23567 1.62-0.19756l1.62 0.045 0.0449 1.699c0.0381 1.441 8e-3 1.699-0.19755 1.699-0.20086 0-0.24242-0.25747-0.24242-1.5014zm6.04-0.19755 0.0449-1.699h1.62c2.0351 0 2.1985 0.29768 0.19843 0.36153l-1.4233 0.0455v1.4955c0 1.2386-0.0416 1.4955-0.24241 1.4955-0.20562 0-0.23562-0.25799-0.19755-1.699zm29.679 0.19755v-1.5014h-1.4356c-1.078 0-1.4193-0.0492-1.3701-0.19756 0.0453-0.13667 0.56088-0.21143 1.6727-0.2426l1.6072-0.0451v1.7441c0 1.4449-0.0406 1.744-0.23708 1.744-0.19409 0-0.23706-0.27219-0.23706-1.5014zm-313.88-1.7435c0-0.20553 0.25668-0.23559 1.6861-0.19756 1.1752 0.0312 1.706 0.10472 1.7517 0.24241 0.0497 0.15012-0.35522 0.19756-1.6862 0.19756-1.4689 0-1.7517-0.0392-1.7517-0.24241zm4.3065 0.0449c0.0457-0.13768 0.57649-0.21114 1.7517-0.24241 1.4295-0.0381 1.6862-8e-3 1.6862 0.19756 0 0.20328-0.28282 0.24241-1.7517 0.24241-1.3309 0-1.736-0.0475-1.6862-0.19756zm9.1276-0.0395c0-0.21241 0.24248-0.24137 1.699-0.20291 0.99741 0.0263 1.699 0.11013 1.699 0.20291 0 0.0927-0.70161 0.17656-1.699 0.2029-1.4565 0.0385-1.699 9e-3 -1.699-0.2029zm4.3068 0.0395c0.0471-0.14105 0.53298-0.19756 1.699-0.19756 1.166 0 1.652 0.0565 1.699 0.19756 0.05 0.15018-0.35736 0.19756-1.699 0.19756-1.3416 0-1.7491-0.0475-1.699-0.19756zm18.136-0.0395c0-0.19493 0.28097-0.23708 1.5805-0.23708s1.5805 0.0421 1.5805 0.23708c0 0.19491-0.28097 0.23706-1.5805 0.23706s-1.5805-0.0421-1.5805-0.23706zm4.3065 0.0395c0.0457-0.13768 0.57649-0.21114 1.7517-0.24241 1.4295-0.0381 1.6862-8e-3 1.6862 0.19756 0 0.20328-0.28282 0.24241-1.7517 0.24241-1.331 0-1.736-0.0475-1.6862-0.19756zm9.1276-0.0452c0-0.20471 0.23952-0.2357 1.5282-0.19755 1.0484 0.031 1.5487 0.10725 1.5937 0.24279 0.0494 0.14933-0.32368 0.19756-1.5282 0.19756-1.3279 0-1.5936-0.0405-1.5936-0.2428zm4.3068 0.0452c0.0471-0.14105 0.53297-0.19756 1.699-0.19756s1.652 0.0565 1.699 0.19756c0.05 0.15018-0.35736 0.19756-1.699 0.19756-1.3416 0-1.7491-0.0475-1.699-0.19756zm199.18 0.0384c-0.16281-0.26344 0.26581-0.32989 1.8173-0.28176 1.0069 0.0312 1.4976 0.10868 1.5423 0.24336 0.0822 0.24831-3.2066 0.2859-3.3596 0.0384zm4.5834 0c-0.16281-0.26344 0.26582-0.32989 1.8173-0.28176 1.0068 0.0312 1.4976 0.10868 1.5423 0.24336 0.0823 0.24831-3.2066 0.2859-3.3596 0.0384zm8.9696-0.0384c0.0453-0.13667 0.56086-0.21143 1.6727-0.2426 1.3591-0.0381 1.6072-7e-3 1.6072 0.19756 0 0.20283-0.27429 0.2426-1.6727 0.2426-1.2677 0-1.6568-0.0478-1.6072-0.19756zm4.5834 0c0.0453-0.13667 0.56087-0.21143 1.6727-0.2426 1.3591-0.0381 1.6072-7e-3 1.6072 0.19756 0 0.20283-0.27428 0.2426-1.6727 0.2426-1.2677 0-1.6568-0.0478-1.6072-0.19756zm17.701 0c0.0457-0.13768 0.5765-0.21114 1.7517-0.24241 1.4295-0.0381 1.6862-8e-3 1.6862 0.19756 0 0.20328-0.28283 0.24241-1.7517 0.24241-1.331 0-1.736-0.0475-1.6862-0.19756zm4.5837 0c0.0468-0.14019 0.51716-0.19756 1.62-0.19756 1.1028 0 1.5733 0.0574 1.62 0.19756 0.0499 0.14981-0.34155 0.19756-1.62 0.19756-1.2784 0-1.6699-0.0478-1.62-0.19756zm8.8507 0c0.0474-0.14183 0.54877-0.19756 1.778-0.19756 1.2293 0 1.7308 0.0558 1.778 0.19756 0.0501 0.15052-0.37316 0.19756-1.778 0.19756-1.4049 0-1.8282-0.0471-1.778-0.19756zm4.4236 5e-3c0.0494-0.14822 0.52171-0.20288 1.7534-0.20288 2.3208 0 2.2972 0.30279-0.0282 0.36092-1.4043 0.0351-1.7783 2e-3 -1.7254-0.15804zm-309.65-2.3366v-1.1063l0.51365 5e-3c0.54226 5e-3 1.0668 0.30283 1.0668 0.60507 0 0.0991-0.0853 0.18014-0.18965 0.18014-0.14752 0-0.14752 0.0421 0 0.18966 0.51448 0.51448 0.033 1.2328-0.82637 1.2328h-0.56445v-1.1063zm0.94828 0.39513c0-0.13039-0.10667-0.23707-0.23706-0.23707-0.1304 0-0.23708 0.10668-0.23708 0.23707 0 0.13038 0.10668 0.23707 0.23708 0.23707 0.13039 0 0.23706-0.10669 0.23706-0.23707zm0-0.79024c0-0.13039-0.10667-0.23707-0.23706-0.23707-0.1304 0-0.23708 0.10668-0.23708 0.23707s0.10668 0.23708 0.23708 0.23708c0.13039 0 0.23706-0.10669 0.23706-0.23708zm0.79025 1.3101c0-0.36792 0.71103-2.0213 0.86925-2.0213 0.15821 0 0.86926 1.6534 0.86926 2.0213 0 0.10524-0.10669 0.19133-0.23707 0.19133-0.13171 0-0.23708-0.14049-0.23708-0.3161 0-0.2318-0.10536-0.3161-0.39511-0.3161s-0.39512 0.0843-0.39512 0.3161c0 0.17561-0.10536 0.3161-0.23706 0.3161-0.13039 0-0.23707-0.0861-0.23707-0.19133zm0.98025-1.1872c-0.0738-0.38624-0.0946-0.39836-0.20405-0.11854-0.17917 0.45848-0.16747 0.54875 0.0711 0.54875 0.14896 0 0.18985-0.13237 0.13292-0.43021zm1.5722 1.0061c-0.013-0.24827-0.23704-0.72079-0.49783-1.0501-0.26076-0.32926-0.47413-0.64176-0.47413-0.69445 0-0.23269 0.47911-0.0657 0.63219 0.22031 0.093 0.17385 0.26855 0.31609 0.39004 0.31609 0.12146 0 0.266-0.14224 0.32118-0.31609 0.10635-0.33509 0.55316-0.44289 0.55316-0.13346 0 0.10044-0.17186 0.40799-0.38193 0.68338-0.21007 0.27543-0.41278 0.70886-0.45047 0.96321l-0.0685 0.46246zm1.5568 0.14658c0-0.23034 0.40989-0.7215 0.60397-0.72373 0.059 0 0.18945-0.17848 0.28994-0.39511 0.15643-0.33731 0.14394-0.39389-0.0869-0.39389-0.1483 0-0.35379 0.0841-0.45666 0.18702-0.25246 0.25247-0.40307 0.0701-0.27509-0.33316 0.0787-0.24805 0.23636-0.328 0.64662-0.328 0.51844 0 0.54252 0.0255 0.54252 0.57414 0 0.39098-0.10854 0.66828-0.34027 0.86926l-0.34029 0.29512h0.34029c0.1971 0 0.34027 0.0997 0.34027 0.23707 0 0.17122-0.1756 0.23707-0.63219 0.23707-0.44253 0-0.63219-0.0677-0.63219-0.22579zm30.029-0.88055v-1.1063h0.53382c0.64484 0 0.84186 0.21799 0.857 0.94829 0.0229 1.1082-0.0711 1.2644-0.76164 1.2644h-0.62918zm0.9483 0.39513c0-0.13039-0.10669-0.23707-0.23708-0.23707s-0.23707 0.10668-0.23707 0.23707c0 0.13038 0.10668 0.23707 0.23707 0.23707s0.23708-0.10669 0.23708-0.23707zm0-0.79024c0-0.13039-0.10669-0.23707-0.23708-0.23707s-0.23707 0.10668-0.23707 0.23707 0.10668 0.23708 0.23707 0.23708 0.23708-0.10669 0.23708-0.23708zm0.65852 1.3823c0.029-0.0655 0.23013-0.56341 0.447-1.1063 0.21687-0.54295 0.46616-0.98716 0.55397-0.98716 0.15822 0 0.86927 1.6534 0.86927 2.0213 0 0.10524-0.10668 0.19133-0.23707 0.19133-0.13171 0-0.23707-0.14049-0.23707-0.3161 0-0.2318-0.10538-0.3161-0.39513-0.3161s-0.39512 0.0843-0.39512 0.3161c0 0.21495-0.10536 0.3161-0.32927 0.3161-0.18108 0-0.30555-0.0536-0.27658-0.11916zm1.112-1.2593c-0.0739-0.38624-0.0946-0.39836-0.20405-0.11854-0.17919 0.45848-0.16748 0.54875 0.0711 0.54875 0.14896 0 0.18985-0.13237 0.13293-0.43021zm1.5722 1.0061c-0.0129-0.24827-0.23705-0.72079-0.49783-1.0501-0.26078-0.32926-0.47414-0.64176-0.47414-0.69445 0-0.23269 0.47911-0.0657 0.6322 0.22031 0.093 0.17385 0.26855 0.31609 0.39002 0.31609s0.266-0.14224 0.32119-0.31609c0.10634-0.33509 0.55316-0.44289 0.55316-0.13346 0 0.10044-0.17187 0.40799-0.38194 0.68338-0.21006 0.27543-0.41277 0.70886-0.45046 0.96321l-0.0685 0.46246zm1.7148-0.0544c0-0.33189 0.0421-0.38458 0.18965-0.23706 0.26693 0.2669 0.75864 0.23617 0.75864-0.0475 0-0.1317-0.14049-0.23707-0.3161-0.23707-0.17385 0-0.31609-0.0711-0.31609-0.15806 0-0.0869 0.0711-0.15803 0.15804-0.15803 0.0869 0 0.15805-0.10669 0.15805-0.23708 0-0.28579-0.1844-0.30554-0.44254-0.0475-0.1475 0.14749-0.18965 0.0948-0.18965-0.23707 0-0.38232 0.0575-0.42673 0.55318-0.42673 0.53513 0 0.55315 0.0196 0.55315 0.60058 0 0.33032 0.0853 0.68592 0.18966 0.79023 0.14751 0.14751 0.14751 0.18965 0 0.18965-0.10431 0-0.18966 0.14226-0.18966 0.3161 0 0.25588-0.10536 0.3161-0.55315 0.3161-0.49562 0-0.55318-0.0444-0.55318-0.42673zm210.84-0.67961v-1.1063l0.59268 5e-3c0.85518 7e-3 1.5056 0.59099 0.94829 0.85107-0.15805 0.0738-0.15805 0.11063 0 0.18437 0.26643 0.12435 0.25024 0.66796-0.0283 0.94641-0.12417 0.12418-0.51533 0.22578-0.86925 0.22578h-0.64348v-1.1063zm1.1063 0.39513c0-0.13039-0.10668-0.23707-0.23707-0.23707s-0.23707 0.10668-0.23707 0.23707c0 0.13038 0.10668 0.23707 0.23707 0.23707s0.23707-0.10669 0.23707-0.23707zm0-0.79024c0-0.13039-0.10668-0.23707-0.23707-0.23707s-0.23707 0.10668-0.23707 0.23707 0.10668 0.23708 0.23707 0.23708 0.23707-0.10669 0.23707-0.23708zm0.65854 1.3823c0.029-0.0655 0.23011-0.56341 0.44699-1.1063 0.21687-0.54295 0.46616-0.98716 0.55398-0.98716 0.0879 0 0.33708 0.44421 0.55396 0.98716 0.21687 0.54293 0.41802 1.0408 0.447 1.1063 0.029 0.0654-0.0955 0.11916-0.27659 0.11916-0.22389 0-0.32926-0.10115-0.32926-0.3161 0-0.2318-0.10537-0.31609-0.39511-0.31609-0.28975 0-0.39513 0.0843-0.39513 0.31609 0 0.21495-0.10537 0.3161-0.32926 0.3161-0.18111 0-0.30557-0.0536-0.27658-0.11916zm1.1187-1.2242c-0.0415-0.21732-0.0945-0.39512-0.11771-0.39512-0.0231 0-0.0761 0.1778-0.11772 0.39512-0.0473 0.2472-3e-3 0.39512 0.11772 0.39512 0.12089 0 0.16494-0.14792 0.11771-0.39512zm1.5655 0.97726c-0.013-0.24486-0.20148-0.6783-0.4188-0.96321-0.40849-0.53556-0.50536-0.88331-0.24602-0.88331 0.082 0 0.25833 0.15599 0.39189 0.34666l0.24282 0.34667 0.36901-0.34667c0.68181-0.64052 0.81995-0.28849 0.20377 0.51935-0.21006 0.27543-0.41277 0.70887-0.45047 0.96321l-0.0685 0.46246zm1.8108 0.11614c-0.0528-0.13751-0.096-0.52286-0.096-0.85634 0-0.84354 0.13286-1.1063 0.55943-1.1063 0.34928 0 0.69881 0.53296 0.48787 0.7439-0.0484 0.0483-0.019 0.21673 0.0652 0.37417 0.22528 0.42096-0.12422 1.0946-0.56791 1.0946-0.19407 0-0.39603-0.1125-0.44877-0.25zm0.6642-0.50072c-0.0642-0.33314-0.34465-0.31214-0.41612 0.0311-0.0299 0.14319 0.0572 0.24542 0.20914 0.24542 0.16279 0 0.2403-0.10358 0.20698-0.27658zm-0.0127-0.92525c-0.0525-0.0525-0.18884-0.0581-0.30293-0.0125-0.12607 0.0504-0.0887 0.088 0.0955 0.0955 0.16661 7e-3 0.25997-0.0304 0.20745-0.0829zm29.124 0.56055v-1.1154l0.67171 0.0485 0.6717 0.0486 0.0468 1.0668 0.0468 1.0668h-1.4369zm1.1063 0.40421c0-0.14751-0.14926-0.23707-0.39512-0.23707s-0.39511 0.0896-0.39511 0.23707c0 0.1475 0.14925 0.23707 0.39511 0.23707s0.39512-0.0896 0.39512-0.23707zm0-0.79024c0-0.1475-0.14926-0.23707-0.39512-0.23707s-0.39511 0.0896-0.39511 0.23707c0 0.14751 0.14925 0.23708 0.39511 0.23708s0.39512-0.0896 0.39512-0.23708zm0.63219 1.2689c0-0.29438 0.74003-1.9801 0.86926-1.9801 0.12924 0 0.86927 1.6857 0.86927 1.9801 0 0.3462-0.33296 0.28127-0.42837-0.0834-0.052-0.19881-0.21557-0.31609-0.4409-0.31609-0.22532 0-0.38891 0.11728-0.44091 0.31609-0.0954 0.3648-0.42835 0.42972-0.42835 0.0834zm1.1063-0.78541c0-0.16683-0.3033-0.2369-0.39352-0.0909-0.0547 0.0884 0.0116 0.16062 0.14712 0.16062s0.2464-0.0313 0.2464-0.0697zm1.2644 0.51924c0-0.28847-0.16657-0.71712-0.39512-1.0168-0.47148-0.61815-0.4837-0.69716-0.1077-0.69716 0.16726 0 0.38621 0.20858 0.52371 0.49893l0.2363 0.49897 0.20668-0.49897c0.12818-0.30949 0.31941-0.49893 0.50358-0.49893 0.38609 0 0.37532 0.0763-0.0982 0.69716-0.22855 0.29964-0.39512 0.72829-0.39512 1.0168 0 0.33796-0.0765 0.49874-0.23707 0.49874-0.16064 0-0.23707-0.16078-0.23707-0.49874zm1.8966 0.3723c0-0.0696 0.0645-0.194 0.14335-0.27658 0.0789-0.0825 0.21536-0.41686 0.30335-0.74282 0.1527-0.56566 0.14255-0.59268-0.22238-0.59268-0.23453 0-0.38238-0.0917-0.38238-0.23707 0-0.17561 0.18439-0.23707 0.71121-0.23707 0.76139 0 0.88684 0.17617 0.46077 0.64698-0.13778 0.15223-0.28938 0.56677-0.33692 0.92123-0.0661 0.49311-0.15578 0.64445-0.38174 0.64445-0.1624 0-0.29526-0.0568-0.29526-0.12644zm-333.45-3.0611c0.03115-1.1118 0.10593-1.6273 0.2426-1.6727 0.14836-0.0491 0.19756 0.29203 0.19756 1.3701v1.4356h1.5015c1.2293 0 1.5015 0.043 1.5015 0.23707 0 0.19641-0.29915 0.23707-1.7441 0.23707h-1.7441zm4.4729 1.4532c-0.05588-0.0904-0.0032-0.20218 0.11723-0.24836 0.38522-0.14782 3.3573-2e-3 3.3573 0.16522 0 0.21832-3.3415 0.29827-3.4745 0.0831zm4.5409-0.0437c0.04398-0.13277 0.51281-0.21252 1.4295-0.24315l1.3641-0.0456 0.04558-1.3641c0.03063-0.91673 0.11037-1.3856 0.24314-1.4295 0.14972-0.0495 0.19756 0.33956 0.19756 1.6072v1.6727h-1.6727c-1.2677 0-1.6568-0.0478-1.6072-0.19755zm119.44-1.4751c0-1.2677 0.0479-1.6568 0.19756-1.6072 0.13276 0.044 0.21251 0.5128 0.24314 1.4295l0.0456 1.3641 1.3641 0.0456c0.91673 0.0306 1.3856 0.11038 1.4295 0.24315 0.0495 0.14971-0.33955 0.19755-1.6072 0.19755h-1.6727zm4.377 1.5716c-0.26946-0.26947 0.20741-0.37307 1.7172-0.37307 1.3614 0 1.6502 0.0414 1.6502 0.23707 0 0.19545-0.28683 0.23707-1.6332 0.23707-0.89825 0-1.6786-0.0455-1.7342-0.10105zm4.4737-0.136c0-0.1941 0.2722-0.23707 1.5014-0.23707h1.5014v-1.4356c0-1.0781 0.0492-1.4193 0.19757-1.3701 0.13666 0.0453 0.21144 0.56086 0.2426 1.6727l0.0451 1.6072h-1.744c-1.4449 0-1.7441-0.0406-1.7441-0.23707zm115.53-1.4172c0-1.3744 0.0413-1.6647 0.23707-1.6647 0.19311 0 0.23708 0.26277 0.23708 1.4167v1.4167l1.541 0.0452c2.1519 0.0632 1.9843 0.35019-0.23707 0.40602l-1.778 0.0447zm4.6226 1.4568c0.0453-0.13667 0.56086-0.21144 1.6727-0.24261 1.359-0.0381 1.6072-7e-3 1.6072 0.19756 0 0.20283-0.27428 0.2426-1.6727 0.2426-1.2677 0-1.6568-0.0478-1.6072-0.19755zm4.5833 0c0.0435-0.13129 0.49853-0.21295 1.3566-0.24346l1.2912-0.0459v-1.416c0-1.1533 0.044-1.416 0.23707-1.416 0.19568 0 0.23707 0.28975 0.23707 1.6595v1.6595h-1.5936c-1.2044 0-1.5777-0.0482-1.5282-0.19755zm119.13-1.4568c0-1.3744 0.0413-1.6647 0.23707-1.6647 0.1931 0 0.23707 0.26277 0.23707 1.4167v1.4167l1.541 0.0452c2.1519 0.0632 1.9843 0.35019-0.23708 0.40602l-1.778 0.0447zm4.5834 1.4117c0-0.20515 0.2481-0.23565 1.6072-0.19756 1.1118 0.0311 1.6273 0.10594 1.6727 0.24261 0.0496 0.14973-0.33944 0.19755-1.6071 0.19755-1.3984 0-1.6727-0.0398-1.6727-0.2426zm4.6225 0.0451c0.0435-0.13129 0.49852-0.21295 1.3566-0.24346l1.2912-0.0459v-1.416c0-1.1533 0.044-1.416 0.23706-1.416 0.19568 0 0.23708 0.28975 0.23708 1.6595v1.6595h-1.5936c-1.2044 0-1.5777-0.0482-1.5282-0.19755zm-384.41-8.2446c0-5.6023-0.0012-5.6239-0.33089-5.6239-0.19797 0-0.3641-0.12698-0.41355-0.31609-0.07799-0.29824-0.21558-0.3161-2.4349-0.3161h-2.3523v0.72438c0 0.5091-0.05871 0.70493-0.19756 0.65886-0.13667-0.0453-0.21144-0.56086-0.2426-1.6727-0.03808-1.359-0.0076-1.6072 0.19756-1.6072 0.18216 0 0.2426 0.17719 0.2426 0.71121v0.71121h2.3597c2.3268 0 2.3604-5e-3 2.4102-0.35561 0.03246-0.22852 0.17758-0.37365 0.40611-0.40611l0.35561-0.0505v-5.5339c0-4.3568 0.04203-5.5198 0.19756-5.468 0.1519 0.0506 0.20716 1.332 0.23912 5.5448 0.03611 4.7602 0.07283 5.479 0.27997 5.479 0.13112 0 0.31942 0.17781 0.41844 0.39513 0.17985 0.39472 0.18231 0.39511 2.4464 0.39511h2.2663v-0.71121c0-0.52682 0.06146-0.71121 0.23707-0.71121 0.17561 0 0.23707 0.18439 0.23707 0.71121v0.71121h4.2673v-31.293c0-27.734 0.02701-31.293 0.23746-31.293 0.21059 0 0.23295 3.5637 0.19756 31.491l-0.0399 31.491-4.6624 0.0876v0.72015c0 0.92941-0.37443 0.87101-0.44372-0.0692l-0.04859-0.65942h-2.3432c-2.2103 0-2.3479 0.018-2.4259 0.3161-0.04547 0.17386-0.19509 0.31609-0.33251 0.31609-0.22224 0-0.25443 0.61414-0.29138 5.5581-0.03195 4.276-0.0871 5.5732-0.23909 5.6239-0.15558 0.0518-0.19756-1.1292-0.19756-5.5581zm128.33 0c0-5.6023-2e-3 -5.6239-0.33088-5.6239-0.19798 0-0.3641-0.12698-0.41357-0.31609-0.0778-0.29755-0.21557-0.3161-2.3468-0.3161h-2.2642l-0.0486 0.65942c-0.0695 0.94298-0.44371 0.99775-0.44371 0.065v-0.72438h-4.5834v-31.531c0-27.922 0.0271-31.531 0.23707-31.531 0.20993 0 0.23707 3.5824 0.23707 31.293v31.293h4.1092v-0.71121c0-0.52682 0.0614-0.71121 0.23707-0.71121 0.17561 0 0.23707 0.18439 0.23707 0.71121v0.71121h2.2807c2.2448 0 2.2815-5e-3 2.3312-0.3556 0.0325-0.22853 0.17758-0.37366 0.40612-0.40612l0.35561-0.0505v-5.5339c0-4.3568 0.042-5.5198 0.19756-5.468 0.15188 0.0506 0.20717 1.3284 0.2391 5.5269 0.0403 5.2986 0.0509 5.4636 0.3556 5.5433 0.26247 0.0686 0.31407 0.21681 0.31407 0.90197s-0.0516 0.83332-0.31409 0.90196c-0.30488 0.0797-0.31531 0.24469-0.3556 5.6223-0.0319 4.2617-0.0871 5.5553-0.23908 5.606-0.15559 0.0518-0.19756-1.1292-0.19756-5.5581zm124.64 5.4879c-0.0556-0.0556-0.10105-2.5702-0.10105-5.588 0-5.354-7e-3 -5.4889-0.3161-5.5696-0.26483-0.0693-0.31609-0.21559-0.31609-0.9025s0.0513-0.83322 0.31609-0.9025c0.30848-0.0807 0.3161-0.21558 0.3161-5.5959 0-4.7953 0.0309-5.5132 0.23707-5.5132 0.2062 0 0.23707 0.71878 0.23707 5.5207v5.5207l0.35561 0.0505c0.22853 0.0325 0.37366 0.17759 0.40611 0.40611 0.0497 0.35002 0.0863 0.35561 2.3312 0.35561h2.2807v-0.71121c0-0.52682 0.0615-0.71121 0.23707-0.71121 0.17562 0 0.23708 0.18439 0.23708 0.71121v0.71123h4.1092v-31.293c0-27.734 0.027-31.293 0.23746-31.293 0.21059 0 0.23295 3.5637 0.19757 31.491l-0.0399 31.491-4.4866 0.0876-0.0483 0.66741c-0.0628 0.86625-0.35031 0.86326-0.41309-4e-3l-0.0485-0.67171h-2.2642c-2.1312 0-2.269 0.0186-2.3468 0.3161-0.0494 0.18912-0.21559 0.31609-0.41356 0.31609-0.32951 0-0.33089 0.023-0.33089 5.5224 0 5.0095-0.0596 5.9028-0.37307 5.5894zm128.33 0c-0.0556-0.0556-0.10105-2.5785-0.10105-5.6064 0-4.932-0.0262-5.5053-0.25187-5.5053-0.13851 0-0.28907-0.14224-0.33453-0.31609-0.0781-0.29877-0.21559-0.3161-2.5049-0.3161h-2.4222l-0.0485 0.67171c-0.0628 0.86753-0.35028 0.87052-0.41309 4e-3l-0.0483-0.66742-4.4866-0.0876-0.04-23.491c-0.0397-23.329-0.0422-23.492-0.35561-23.574-0.26424-0.0691-0.31558-0.21588-0.31558-0.90234 0-0.68692 0.0513-0.83324 0.3161-0.9025 0.31011-0.0811 0.31609-0.21559 0.31609-7.0974 0-6.1299 0.0299-7.0147 0.23708-7.0147s0.23706 0.88682 0.23706 7.0331c0 7.0326 4e-5 7.0331 0.33089 7.0331 0.19798 0 0.3641 0.12697 0.41357 0.31609 0.0822 0.3143 0.21558 0.31609 23.376 0.31609h23.293v-64.94l-0.75074-0.0481c-0.41289-0.0265-0.75072-0.1193-0.75072-0.20622 0-0.0869 0.33783-0.17972 0.75072-0.20622l0.75074-0.0481v-4.7319l-0.39512-0.15022c-0.21733-0.0827-0.39513-0.25866-0.39513-0.39121 0-0.21135-0.68008-0.24099-5.5317-0.24099-4.8117 0-5.5317-0.0308-5.5317-0.23707 0-0.2062 0.71877-0.23707 5.5207-0.23707h5.5207l0.0505-0.35561c0.0454-0.31955 0.13864-0.35559 0.91977-0.35559 0.78114 0 0.87439 0.0361 0.91977 0.35559l0.0505 0.35561h5.6919c4.4832 0 5.6779 0.0419 5.6261 0.19757-0.0507 0.15207-1.3636 0.20711-5.7029 0.23906-4.9071 0.0362-5.6371 0.0724-5.6371 0.2805 0 0.13144-0.17781 0.30657-0.39512 0.38921l-0.39512 0.15022v4.7493h0.88243c1.1606 0 1.1056 0.37446-0.065 0.44289l-0.81733 0.0478v65.415h-23.47c-23.448 0-23.47 3.3e-4 -23.47 0.31948 0 0.18742-0.16334 0.39391-0.39512 0.49951l-0.39512 0.18004v46.415h4.1092v-0.71122c0-0.52682 0.0614-0.71121 0.23707-0.71121 0.1756 0 0.23707 0.18439 0.23707 0.71121v0.71122h2.4497c2.3809 0 2.4497-9e-3 2.4497-0.33089 0-0.19798 0.12699-0.36409 0.31611-0.41357 0.30848-0.0807 0.31609-0.21557 0.31609-5.5959 0-4.7953 0.0308-5.5132 0.23708-5.5132 0.2062 0 0.23706 0.71878 0.23706 5.5207v5.5207l0.35561 0.0505c0.22854 0.0325 0.37365 0.17759 0.40612 0.40612 0.0496 0.35001 0.0863 0.35561 2.3312 0.35561h2.2807v-0.71122c0-0.53402 0.0604-0.71121 0.24261-0.71121 0.20525 0 0.23566 0.24939 0.19755 1.62-0.0452 1.6267-0.31542 2.252-0.40974 0.94829l-0.0486-0.67171h-2.2642c-2.1312 0-2.269 0.0186-2.3468 0.3161-0.0494 0.18911-0.21559 0.31609-0.41357 0.31609-0.3295 0-0.33089 0.023-0.33089 5.5224 0 5.0095-0.0596 5.9028-0.37307 5.5894zm-387.25-1.5115c-0.17237-0.44918 0.0012-3.3297 0.20474-3.3972 0.24868-0.0825 0.2863 3.3644 0.0384 3.5176-0.08754 0.0542-0.19695-1.1e-4 -0.24314-0.12046zm11.854 0c-0.17237-0.44918 0.0012-3.3297 0.20474-3.3972 0.24868-0.0825 0.2863 3.3644 0.0384 3.5176-0.08754 0.0542-0.19695-1.1e-4 -0.24314-0.12046zm116.68 0.0961c-0.0594-0.0594-0.10799-0.8844-0.10799-1.8333 0-1.3099 0.0476-1.7096 0.19756-1.6598 0.13698 0.0454 0.21145 0.56619 0.24288 1.6984 0.0418 1.5076-0.0615 2.0656-0.33245 1.7947zm11.854 0c-0.0594-0.0594-0.108-0.8844-0.108-1.8333 0-1.3099 0.0476-1.7096 0.19757-1.6598 0.13698 0.0454 0.21145 0.56619 0.24288 1.6984 0.0418 1.5076-0.0616 2.0656-0.33245 1.7947zm112.49-0.0961c-0.17237-0.44918 2e-3 -3.3297 0.20474-3.3972 0.24869-0.0825 0.28631 3.3644 0.0383 3.5176-0.0875 0.0542-0.19694-1.1e-4 -0.24312-0.12046zm11.854 0c-0.17237-0.44918 2e-3 -3.3297 0.20474-3.3972 0.24869-0.0825 0.2863 3.3644 0.0384 3.5176-0.0875 0.0542-0.19695-1.1e-4 -0.24313-0.12046zm116.49 0.0165c-0.15194-0.39598-0.0122-3.2963 0.15894-3.2962 0.21292 9e-5 0.29742 3.1654 0.09 3.3728-0.10621 0.10622-0.18853 0.081-0.24896-0.0765zm11.854 0c-0.15195-0.39598-0.0122-3.2963 0.15893-3.2962 0.21292 9e-5 0.29741 3.1654 0.09 3.3728-0.1062 0.10622-0.18853 0.081-0.24895-0.0765zm-393.07-4.4519c-0.14256-0.3715 0.0054-3.2685 0.16907-3.3085 0.09634-0.0235 0.17549 0.65541 0.20273 1.7393 0.02965 1.1794-0.01193 1.778-0.1235 1.778-0.0925 0-0.20424-0.0939-0.24831-0.20883zm11.854 0c-0.14256-0.3715 0.0054-3.2685 0.16907-3.3085 0.09634-0.0235 0.17549 0.65541 0.20274 1.7393 0.02965 1.1794-0.01193 1.778-0.1235 1.778-0.09251 0-0.20424-0.0939-0.24831-0.20883zm116.57-1.6087c0-1.4049 0.0471-1.8282 0.19756-1.778 0.14184 0.0473 0.19756 0.54877 0.19756 1.778 0 1.2292-0.0558 1.7308-0.19756 1.778-0.15052 0.0501-0.19756-0.37316-0.19756-1.778zm11.854 0c0-1.4049 0.0471-1.8282 0.19757-1.778 0.14183 0.0473 0.19756 0.54877 0.19756 1.778 0 1.2292-0.0558 1.7308-0.19756 1.778-0.15052 0.0501-0.19757-0.37316-0.19757-1.778zm112.61 1.6352c-0.15195-0.39596-0.0122-3.2963 0.15893-3.2962 0.21292 1e-4 0.29741 3.1654 0.09 3.3728-0.1062 0.10621-0.18854 0.081-0.24896-0.0765zm11.854 0c-0.15194-0.39596-0.0122-3.2963 0.15893-3.2962 0.21293 1e-4 0.29742 3.1654 0.0901 3.3728-0.1062 0.10621-0.18854 0.081-0.24896-0.0765zm116.48 0c-0.15194-0.39596-0.0122-3.2963 0.15894-3.2962 0.21292 1e-4 0.29742 3.1654 0.09 3.3728-0.10621 0.10621-0.18853 0.081-0.24896-0.0765zm11.854 0c-0.15195-0.39596-0.0122-3.2963 0.15893-3.2962 0.21292 1e-4 0.29741 3.1654 0.09 3.3728-0.1062 0.10621-0.18853 0.081-0.24895-0.0765zm-252.8-6.0473c0-1.3984 0.0399-1.6727 0.24262-1.6727 0.20514 0 0.23565 0.24811 0.19755 1.6072-0.0311 1.1118-0.10594 1.6273-0.2426 1.6727-0.14973 0.0496-0.19757-0.33944-0.19757-1.6071zm112.63 1.5366c-0.0556-0.0556-0.10105-0.80041-0.10105-1.6552 0-1.2761 0.0424-1.5541 0.23707-1.5541 0.19483 0 0.23708 0.27993 0.23708 1.5712 0 1.439-0.10616 1.9051-0.37307 1.6382zm-252.87-4.5791c-0.05794-0.058-0.10537-0.80472-0.10537-1.6595 0-1.2761 0.04241-1.5541 0.23707-1.5541 0.19568 0 0.23707 0.28975 0.23707 1.6595 0 1.5196-0.07734 1.8456-0.36878 1.5541zm11.854 0c-0.05795-0.058-0.10537-0.80472-0.10537-1.6595 0-1.2761 0.04241-1.5541 0.23707-1.5541 0.19568 0 0.23707 0.28975 0.23707 1.6595 0 1.5196-0.07734 1.8456-0.36878 1.5541zm116.53-1.541c0-1.3984 0.0398-1.6727 0.2426-1.6727 0.20515 0 0.23566 0.2481 0.19756 1.6072-0.0311 1.1118-0.10593 1.6273-0.2426 1.6727-0.14973 0.0496-0.19756-0.33944-0.19756-1.6072zm11.854 0c0-1.3984 0.0399-1.6727 0.24262-1.6727 0.20514 0 0.23565 0.2481 0.19755 1.6072-0.0311 1.1118-0.10594 1.6273-0.2426 1.6727-0.14973 0.0496-0.19757-0.33944-0.19757-1.6072zm112.53-0.0132c0-1.3698 0.0414-1.6595 0.23707-1.6595 0.19568 0 0.23708 0.28975 0.23708 1.6595s-0.0414 1.6595-0.23708 1.6595c-0.19567 0-0.23707-0.28975-0.23707-1.6595zm11.854 0c0-1.3698 0.0414-1.6595 0.23707-1.6595 0.19569 0 0.23707 0.28975 0.23707 1.6595s-0.0414 1.6595-0.23707 1.6595c-0.19568 0-0.23707-0.28975-0.23707-1.6595zm116.48 0c0-1.3698 0.0414-1.6595 0.23707-1.6595 0.19568 0 0.23707 0.28975 0.23707 1.6595s-0.0414 1.6595-0.23707 1.6595-0.23707-0.28975-0.23707-1.6595zm11.854 0c0-1.3698 0.0414-1.6595 0.23707-1.6595 0.19568 0 0.23708 0.28975 0.23708 1.6595s-0.0414 1.6595-0.23708 1.6595c-0.19567 0-0.23707-0.28975-0.23707-1.6595zm-393.03-4.373c0.03116-1.1118 0.10593-1.6273 0.2426-1.6727 0.14973-0.0496 0.19756 0.33944 0.19756 1.6072 0 1.3984-0.03978 1.6727-0.2426 1.6727-0.20515 0-0.23565-0.2481-0.19756-1.6072zm11.854 0c0.03115-1.1118 0.10593-1.6273 0.2426-1.6727 0.14973-0.0496 0.19756 0.33944 0.19756 1.6072 0 1.3984-0.03978 1.6727-0.2426 1.6727-0.20515 0-0.23565-0.2481-0.19756-1.6072zm116.61-0.0654c0-1.2677 0.0478-1.6568 0.19756-1.6072 0.13667 0.0453 0.21143 0.56086 0.2426 1.6727 0.0381 1.3591 7e-3 1.6072-0.19756 1.6072-0.20283 0-0.2426-0.27426-0.2426-1.6727zm11.854 0c0-1.2677 0.0479-1.6568 0.19757-1.6072 0.13666 0.0453 0.21143 0.56086 0.2426 1.6727 0.0381 1.3591 7e-3 1.6072-0.19755 1.6072-0.20283 0-0.24262-0.27426-0.24262-1.6727zm112.53 0.013c0-1.3698 0.0414-1.6595 0.23707-1.6595 0.19568 0 0.23708 0.28975 0.23708 1.6595 0 1.3698-0.0414 1.6595-0.23708 1.6595-0.19567 0-0.23707-0.28975-0.23707-1.6595zm11.854 0c0-1.3698 0.0414-1.6595 0.23707-1.6595 0.19569 0 0.23707 0.28975 0.23707 1.6595 0 1.3698-0.0414 1.6595-0.23707 1.6595-0.19568 0-0.23707-0.28975-0.23707-1.6595zm116.48 0c0-1.3698 0.0414-1.6595 0.23707-1.6595 0.19568 0 0.23707 0.28975 0.23707 1.6595 0 1.3698-0.0414 1.6595-0.23707 1.6595s-0.23707-0.28975-0.23707-1.6595zm11.854 0c0-1.3698 0.0414-1.6595 0.23707-1.6595 0.19568 0 0.23708 0.28975 0.23708 1.6595 0 1.3698-0.0414 1.6595-0.23708 1.6595-0.19567 0-0.23707-0.28975-0.23707-1.6595zm-392.99-2.8065c-0.04619-0.12036-0.06346-0.92498-0.0384-1.7881l0.04558-1.5692 1.699-0.0449c1.441-0.0381 1.699-8e-3 1.699 0.19755 0 0.20087-0.25747 0.24243-1.5015 0.24243h-1.5015v1.4921c0 1.3576-0.18544 2.0352-0.4023 1.47zm11.883 0.0892c-0.05558-0.0556-0.10107-0.76486-0.10107-1.5762v-1.4751h-1.4224c-1.159 0-1.4224-0.0439-1.4224-0.23707 0-0.19568 0.28975-0.23707 1.6595-0.23707h1.6595v1.7292c0 1.5806-0.10125 2.0681-0.37308 1.7962zm116.54-1.6947v-1.8307h1.6595c1.3698 0 1.6595 0.0414 1.6595 0.23707 0 0.1931-0.26276 0.23707-1.4167 0.23707h-1.4167l-0.0452 1.5282c-0.031 1.0484-0.10725 1.5487-0.24279 1.5936-0.15044 0.0498-0.19756-0.37108-0.19756-1.7652zm11.854 0.23708v-1.5936h-1.5014c-1.244 0-1.5014-0.0415-1.5014-0.24242 0-0.2056 0.258-0.2356 1.699-0.19756l1.699 0.0449v1.7254c0 1.2398-0.0557 1.7439-0.19756 1.7912-0.14933 0.0497-0.19757-0.32312-0.19757-1.5278zm112.6 1.3685c-0.0462-0.12036-0.0635-0.92498-0.0384-1.7881l0.0456-1.5692h1.699c2.1442 0 2.3077 0.29783 0.19838 0.36134l-1.5023 0.0452v1.4864c0 1.3525-0.18576 2.0286-0.4023 1.4643zm11.883 0.0892c-0.0556-0.0556-0.10105-0.76486-0.10105-1.5762v-1.4751h-1.3566c-1.0148 0-1.3401-0.0497-1.2911-0.19756 0.0449-0.13554 0.54523-0.21177 1.5936-0.2428l1.5282-0.0452v1.7349c0 1.5857-0.10105 2.074-0.37307 1.802zm116.45-0.0892c-0.0462-0.12036-0.0635-0.92498-0.0384-1.7881l0.0456-1.5692h1.699c2.1442 0 2.3076 0.29783 0.19835 0.36134l-1.5022 0.0452v1.4864c0 1.3525-0.18575 2.0286-0.40229 1.4643zm11.89 0.0961c-0.0594-0.0594-0.10799-0.7718-0.10799-1.5831v-1.4751h-1.3434c-1.1028 0-1.3434-0.0435-1.3434-0.24279 0-0.20486 0.24081-0.23572 1.541-0.19756l1.541 0.0452 0.0453 1.6458c0.0418 1.5191-0.0611 2.0789-0.33246 1.8076zm-388.67-3.2123c-0.05588-0.0904-0.0032-0.20217 0.11723-0.24836 0.38522-0.14782 3.3573-2e-3 3.3573 0.16523 0 0.21832-3.3415 0.29827-3.4745 0.0832zm128.36 0.0529c-0.26946-0.26946 0.20741-0.37307 1.7172-0.37307 1.3614 0 1.6502 0.0414 1.6502 0.23707 0 0.19544-0.28681 0.23707-1.6332 0.23707-0.89825 0-1.6786-0.0455-1.7342-0.10104zm124.59-0.136c0-0.19568 0.28975-0.23707 1.6595-0.23707s1.6595 0.0414 1.6595 0.23707-0.28975 0.23707-1.6595 0.23707-1.6595-0.0414-1.6595-0.23707zm128.33 0c0-0.19568 0.28975-0.23707 1.6595-0.23707 1.3698 0 1.6595 0.0414 1.6595 0.23707s-0.28974 0.23707-1.6595 0.23707c-1.3698 0-1.6595-0.0414-1.6595-0.23707zm-383.27-2.3707v-1.0273h0.71122c0.50823 0 0.71122 0.0639 0.71122 0.2239 0 0.12314 0.0889 0.25997 0.19756 0.30406 0.14916 0.0605 0.13948 0.12477-0.03952 0.26227-0.17899 0.1375-0.18867 0.20176-0.03952 0.26228 0.10866 0.0441 0.19756 0.2876 0.19756 0.54113 0 0.45339-0.0143 0.46098-0.86926 0.46098h-0.86926zm1.1063 0.7088c0.21073-0.13834 0.21073-0.17293 0-0.31127-0.37828-0.24831-0.63219-0.18581-0.63219 0.15562 0 0.34146 0.25392 0.40395 0.63219 0.15565zm-0.05644-1.183c-0.13039-0.13039-0.31328-0.23707-0.40641-0.23707-0.09314 0-0.16934 0.10668-0.16934 0.23707 0 0.14927 0.15052 0.23707 0.40641 0.23707 0.36125 0 0.38007-0.0263 0.16934-0.23707zm0.84668 1.3479c0-0.27718 0.76984-1.9011 0.90008-1.8987 0.06998 9.9e-4 0.31501 0.46363 0.54452 1.0273 0.39219 0.96325 0.39932 1.0249 0.11854 1.0249-0.19339 0-0.29876-0.11148-0.29876-0.3161 0-0.21544-0.10537-0.31609-0.33089-0.31609-0.19797 0-0.3641 0.12697-0.41355 0.31609-0.08262 0.31595-0.51994 0.45268-0.51994 0.16255zm1.0054-0.87376c-0.05003-0.13039-0.11132-0.23708-0.13618-0.23708-0.02487 0-0.08614 0.10669-0.13618 0.23708-0.05486 0.14296-7.9e-4 0.23707 0.13618 0.23707 0.13698 0 0.19104-0.0941 0.13618-0.23707zm1.3618 0.59267c-2e-3 -0.23904-0.14259-0.61242-0.31258-0.82975-0.35951-0.45961-0.40457-0.79023-0.1077-0.79023 0.11462 0 0.31473 0.22451 0.4447 0.49894l0.2363 0.49895 0.20667-0.49895c0.11367-0.27443 0.30473-0.49894 0.42457-0.49894 0.30571 0 0.26525 0.32559-0.09819 0.79023-0.16999 0.21733-0.31065 0.59071-0.31258 0.82975-0.0023 0.27941-0.08818 0.43464-0.24059 0.43464-0.15241 0-0.23833-0.15523-0.24059-0.43464zm2.3742-0.18439c0-0.34068-0.08883-0.66047-0.19756-0.71122-0.15805-0.0737-0.15805-0.11062 0-0.18438 0.10866-0.0507 0.19756-0.19295 0.19756-0.31609 0-0.12315 0.10668-0.2239 0.23707-0.2239 0.18642 0 0.23707 0.2195 0.23707 1.0273 0 0.80779-0.05066 1.0273-0.23707 1.0273-0.17038 0-0.23707-0.17414-0.23707-0.61903zm121.7-0.40828v-1.0273h0.6322c0.44004 0 0.6322 0.068 0.6322 0.2239 0 0.12314 0.0889 0.25997 0.19755 0.30406 0.14916 0.0605 0.13947 0.12477-0.0396 0.26227-0.17898 0.1375-0.18867 0.20176-0.0395 0.26228 0.10866 0.0441 0.19756 0.2876 0.19756 0.54113 0 0.4478-0.0225 0.46098-0.79024 0.46098h-0.79025zm0.94829 0.7088c0.21073-0.13834 0.21073-0.17293 0-0.31127-0.37827-0.24831-0.63219-0.18581-0.63219 0.15562 0 0.34146 0.25392 0.40395 0.63219 0.15565zm-0.0564-1.183c-0.1304-0.13039-0.31328-0.23707-0.40643-0.23707-0.0931 0-0.16933 0.10668-0.16933 0.23707 0 0.14927 0.15053 0.23707 0.4064 0.23707 0.36125 0 0.38009-0.0263 0.16936-0.23707zm0.84668 1.3892c0-0.3092 0.73087-1.9423 0.86925-1.9423 0.13839 0 0.86926 1.6331 0.86926 1.9423 0 0.0618-0.10668 0.11231-0.23706 0.11231-0.1317 0-0.23708-0.14049-0.23708-0.3161 0-0.2318-0.10537-0.31609-0.39512-0.31609s-0.39511 0.0843-0.39511 0.31609c0 0.17561-0.10538 0.3161-0.23707 0.3161-0.1304 0-0.23707-0.0506-0.23707-0.11231zm0.99406-0.99402c-0.0455-0.17386-0.10162-0.31611-0.12481-0.31611-0.0231 0-0.0793 0.14225-0.12481 0.31611-0.0517 0.19754-5e-3 0.31609 0.12481 0.31609 0.12966 0 0.17648-0.11855 0.12481-0.31609zm1.3766 0.70282c0-0.22193-0.17852-0.6662-0.39669-0.98727-0.26738-0.3935-0.33458-0.60447-0.20618-0.64728 0.10478-0.0349 0.29195 0.0893 0.41596 0.27606 0.28273 0.42582 0.60909 0.43616 0.74008 0.0234 0.10634-0.33509 0.55316-0.44288 0.55316-0.13346 0 0.10044-0.17781 0.41577-0.39512 0.70067-0.21731 0.28492-0.39512 0.66502-0.39512 0.84468 0 0.17965-0.0711 0.32663-0.15804 0.32663-0.0869 0-0.15805-0.18157-0.15805-0.4035zm2.5288 0.16643c0-0.15804-0.15805-0.23708-0.47414-0.23708-0.26078 0-0.47415-0.0385-0.47415-0.0857 0-0.21003 1.0475-1.4831 1.2249-1.4886 0.12548-4e-3 0.19756 0.21972 0.19756 0.61285 0 0.34069 0.0889 0.66047 0.19757 0.71121 0.15804 0.0737 0.15804 0.11064 0 0.1844-0.10867 0.0507-0.19757 0.19294-0.19757 0.31609 0 0.12314-0.10667 0.2239-0.23707 0.2239-0.13039 0-0.23707-0.10668-0.23707-0.23707zm0-0.79023c0-0.13039-0.028-0.23708-0.0622-0.23708-0.0341 0-0.10304 0.10669-0.15308 0.23708-0.05 0.13038-0.022 0.23707 0.0622 0.23707 0.0841 0 0.15308-0.10669 0.15308-0.23707zm118.06 0v-1.0273h0.62663c0.48132 0 0.66922 0.0795 0.81025 0.34309 0.15217 0.28431 0.1344 0.37909-0.10367 0.55317-0.24805 0.18137-0.25221 0.21006-0.0306 0.21006 0.16241 0 0.27553 0.15977 0.30778 0.43465 0.0438 0.3731 0.10666 0.2948 0.44433-0.55318 0.21634-0.54328 0.46518-0.98779 0.55299-0.98779 0.13838 0 0.86926 1.6331 0.86926 1.9423 0 0.25992-0.4442 0.0858-0.51992-0.20379-0.0494-0.18912-0.21559-0.31609-0.41357-0.31609-0.22552 0-0.33089 0.10064-0.33089 0.31609 0 0.28599-0.10538 0.3161-1.1063 0.3161h-1.1063zm0.93298 0.65064c0.14042-0.1692 0.12402-0.24064-0.0726-0.31609-0.4219-0.1619-0.54427-0.11276-0.54427 0.2186 0 0.36359 0.35012 0.41891 0.61688 0.0975zm1.8113-0.64974c-0.0498-0.12989-0.15429-0.19682-0.23212-0.14872-0.22314 0.13791-0.16499 0.38489 0.0906 0.38489 0.14099 0 0.19653-0.0927 0.14149-0.23617zm-1.8969-0.47505c-0.05-0.13039-0.19003-0.23707-0.31113-0.23707-0.12109 0-0.22016 0.10668-0.22016 0.23707 0 0.13045 0.13994 0.23707 0.31114 0.23707 0.21164 0 0.28203-0.0758 0.22015-0.23707zm3.2618 1.0817c0-0.23084-0.17779-0.65283-0.39512-0.93775-0.47526-0.62311-0.4848-0.69715-0.0897-0.69715 0.16799 0 0.35061 0.14224 0.40577 0.31609 0.0552 0.17385 0.19742 0.31609 0.3161 0.31609s0.26091-0.14224 0.31609-0.31609c0.0572-0.18052 0.23913-0.31609 0.42396-0.31609 0.34941 0 0.33854 0.0287-0.44819 1.181-0.11707 0.17145-0.21284 0.43816-0.21284 0.59267 0 0.15452-0.0711 0.28094-0.15804 0.28094-0.0869 0-0.15806-0.18887-0.15806-0.41972zm1.9016 0.0641c5e-3 -0.34712 0.0106-0.34828 0.23765-0.048 0.29682 0.39246 0.62884 0.11847 0.46853-0.38661-0.0803-0.25316-0.1578-0.30054-0.28437-0.17395-0.31069 0.31067-0.42684 0.18597-0.42684-0.45825 0-0.61955 0.0113-0.63219 0.56449-0.63219 0.50224 0 0.55905 0.0412 0.51538 0.37447-0.027 0.20595 0.0497 0.55914 0.17058 0.78484 0.29195 0.54554 0.012 0.89531-0.71663 0.89531-0.44972 0-0.53303-0.0561-0.52879-0.35561zm122.32-0.6717v-1.0273h0.63219c0.44005 0 0.63219 0.068 0.63219 0.22391 0 0.12315 0.0889 0.25722 0.19757 0.29795 0.13686 0.0513 0.10043 0.15091-0.11854 0.32424-0.27232 0.21554-0.27924 0.25088-0.0499 0.25521 0.17091 3e-3 0.28431 0.16047 0.31708 0.43966 0.0438 0.37311 0.10664 0.29481 0.44431-0.55317 0.21634-0.54328 0.46482-0.98671 0.55219-0.98539 0.0873 9.9e-4 0.34664 0.46363 0.57615 1.0273 0.37857 0.92982 0.39128 1.0249 0.13697 1.0249-0.15418 0-0.31753-0.14224-0.36298-0.31609-0.0494-0.18912-0.2156-0.31609-0.41357-0.31609-0.22551 0-0.33089 0.10064-0.33089 0.31609 0 0.28599-0.10536 0.31609-1.1063 0.31609h-1.1063zm0.93297 0.65065c0.14043-0.1692 0.12402-0.24064-0.0727-0.31609-0.42191-0.1619-0.54428-0.11276-0.54428 0.2186 0 0.36359 0.35012 0.41891 0.61688 0.0975zm1.7858-0.84378c-0.0739-0.38624-0.0946-0.39835-0.20405-0.11854-0.17917 0.45848-0.16748 0.54875 0.0711 0.54875 0.14895 0 0.18986-0.13237 0.13292-0.43021zm-1.8714-0.28101c-0.05-0.13038-0.19004-0.23707-0.31114-0.23707-0.12107 0-0.22016 0.10669-0.22016 0.23707 0 0.13045 0.13994 0.23707 0.31114 0.23707 0.21163 0 0.28204-0.0758 0.22016-0.23707zm3.2583 1.0668c-2e-3 -0.23905-0.1426-0.61242-0.31259-0.82975-0.33563-0.42907-0.40847-0.79024-0.15939-0.79024 0.0862 0 0.24554 0.14225 0.35413 0.3161 0.10856 0.17385 0.28217 0.31609 0.3858 0.31609 0.10362 0 0.23356-0.14224 0.28873-0.31609 0.10322-0.32523 0.55316-0.44696 0.55316-0.14966 0 0.0914-0.1778 0.42809-0.39512 0.74791-0.2173 0.3198-0.39511 0.70719-0.39511 0.86087 0 0.15367-0.0711 0.2794-0.15805 0.2794-0.0869 0-0.15963-0.19558-0.16156-0.43463zm1.9409-0.55316c0.0381-0.9837 0.0402-0.98781 0.51239-0.98781 0.43314 0 0.47486 0.047 0.48255 0.54281 5e-3 0.29855 0.0935 0.57119 0.19757 0.60586 0.27544 0.0918 0.23157 0.61878-0.0608 0.731-0.1375 0.0528-0.45696 0.096-0.70992 0.096h-0.45996zm0.74945 0.51364c0-0.17385-0.0948-0.31608-0.21073-0.31608-0.29727 0-0.41382 0.15209-0.31463 0.41057 0.129 0.33618 0.52536 0.2649 0.52536-0.0944zm0-1.0273c0-0.13038-0.10668-0.23707-0.23706-0.23707-0.1304 0-0.23708 0.10669-0.23708 0.23707 0 0.13039 0.10668 0.23707 0.23708 0.23707 0.13038 0 0.23706-0.10668 0.23706-0.23707zm-337.43-36.825v-1.3434h0.64259c0.95081 0 1.3085 0.24104 1.1956 0.80567-0.0507 0.25324-0.0114 0.63756 0.0872 0.85405 0.28048 0.61559-0.18415 1.0271-1.1597 1.0271h-0.76574zm1.5014 0.55317c0-0.34251-0.0789-0.40166-0.59268-0.44418-0.56874-0.0472-0.59267-0.0292-0.59267 0.44418 0 0.4733 0.0239 0.49123 0.59267 0.44416 0.51375-0.0425 0.59268-0.10167 0.59268-0.44416zm0-1.1854c0-0.25118-0.12171-0.32618-0.59268-0.36515-0.54658-0.0453-0.59267-0.0168-0.59267 0.36515 0 0.38199 0.0461 0.41038 0.59267 0.36515 0.47097-0.0391 0.59268-0.11398 0.59268-0.36515zm0.77922 1.699c0.61552-1.6721 0.96535-2.4102 1.1423-2.4102 0.11665 0 0.21209 0.0199 0.21209 0.0443 0 0.0243 0.24655 0.6289 0.5479 1.3434 0.37734 0.89474 0.48363 1.2991 0.34146 1.2991-0.11353 0-0.28743-0.17781-0.38645-0.39512-0.14276-0.31334-0.29603-0.39513-0.7405-0.39513-0.45241 0-0.58943 0.0761-0.71069 0.39513-0.0827 0.21731-0.23072 0.39512-0.32909 0.39512-0.10377 0-0.13613-0.11613-0.0771-0.27659zm1.5069-1.0273c-3e-3 -0.10867-0.0995-0.36701-0.21431-0.5741l-0.20872-0.37653-0.1808 0.51865c-0.23225 0.66621-0.24473 0.62953 0.21432 0.62953 0.21731 0 0.3926-0.0889 0.38951-0.19755zm1.7441 0.73969c0-0.3723-0.16645-0.80617-0.48937-1.2755-0.26915-0.39121-0.44084-0.75963-0.38151-0.81872 0.10211-0.10169 0.54547 0.35612 0.87707 0.90566 0.16084 0.26655 0.25615 0.18865 0.85269-0.69699 0.1171-0.17385 0.2631-0.26775 0.32445-0.20867 0.0613 0.0591-0.10869 0.42751-0.37784 0.81872-0.32292 0.46933-0.48938 0.9032-0.48938 1.2755 0 0.31029-0.0711 0.5642-0.15805 0.5642-0.0869 0-0.15806-0.25391-0.15806-0.5642zm2.6868 0.43218c0-0.0727 0.32625-0.46293 0.72501-0.8674 0.73786-0.74844 0.80114-0.9845 0.34165-1.2743-0.1913-0.12067-0.33497-0.0929-0.5562 0.10724-0.51082 0.46228-0.7491 0.21506-0.26211-0.27194 0.5102-0.5102 1.4902-0.1463 1.4902 0.55334 0 0.16775-0.29306 0.58938-0.65125 0.937l-0.65125 0.63202h0.65125c0.35819 0 0.65125 0.0711 0.65125 0.15804 0 0.0869-0.39117 0.15806-0.86927 0.15806-0.47809 0-0.86925-0.0594-0.86925-0.13202zm63.693-1.2114v-1.3434h0.64258c0.95084 0 1.3085 0.24104 1.1956 0.80567-0.0507 0.25324-0.0114 0.63756 0.0872 0.85405 0.28048 0.61559-0.18416 1.0271-1.1597 1.0271h-0.76575zm1.5015 0.55317c0-0.34251-0.0789-0.40166-0.59268-0.44418-0.56873-0.0472-0.59267-0.0292-0.59267 0.44418 0 0.4733 0.0239 0.49123 0.59267 0.44416 0.51376-0.0425 0.59268-0.10167 0.59268-0.44416zm0-1.1854c0-0.25118-0.12171-0.32618-0.59268-0.36515-0.54659-0.0453-0.59267-0.0168-0.59267 0.36515 0 0.38199 0.0461 0.41038 0.59267 0.36515 0.47097-0.0391 0.59268-0.11398 0.59268-0.36515zm0.77921 1.699c0.61553-1.6721 0.96535-2.4102 1.1423-2.4102 0.11664 0 0.2121 0.0199 0.2121 0.0443 0 0.0243 0.24655 0.6289 0.54788 1.3434 0.37736 0.89474 0.48365 1.2991 0.34146 1.2991-0.11352 0-0.28743-0.17781-0.38644-0.39512-0.14278-0.31334-0.29603-0.39513-0.7405-0.39513-0.45241 0-0.58944 0.0761-0.71069 0.39513-0.0827 0.21731-0.23073 0.39512-0.32909 0.39512-0.10376 0-0.13612-0.11613-0.0771-0.27659zm1.5069-1.0273c-3e-3 -0.10867-0.0995-0.36701-0.21433-0.5741l-0.20871-0.37653-0.1808 0.51865c-0.23226 0.66621-0.24473 0.62953 0.21432 0.62953 0.21731 0 0.3926-0.0889 0.38952-0.19755zm1.7441 0.73969c0-0.3723-0.16648-0.80617-0.48939-1.2755-0.26915-0.39121-0.44083-0.75963-0.3815-0.81872 0.10211-0.10169 0.54547 0.35612 0.87707 0.90566 0.16084 0.26655 0.25615 0.18865 0.85268-0.69699 0.11712-0.17385 0.2631-0.26775 0.32446-0.20867 0.0613 0.0591-0.1087 0.42751-0.37785 0.81872-0.32291 0.46933-0.48937 0.9032-0.48937 1.2755 0 0.31029-0.0711 0.5642-0.15806 0.5642-0.0869 0-0.15804-0.25391-0.15804-0.5642zm3.7932 0.2481c0-0.26342-0.10538-0.3161-0.6322-0.3161-0.3477 0-0.63219-0.042-0.63219-0.0934 0-0.18103 1.3119-1.9612 1.4453-1.9612 0.0744 0 0.13515 0.38524 0.13515 0.85609 0 0.53034 0.0751 0.89117 0.19756 0.94829 0.15805 0.0737 0.15805 0.11064 0 0.18439-0.10865 0.0507-0.19756 0.2285-0.19756 0.39512 0 0.16661-0.0711 0.30293-0.15805 0.30293-0.0869 0-0.15804-0.14225-0.15804-0.3161zm0-1.1063c0-0.26078-0.0308-0.47414-0.0682-0.47414-0.0376 0-0.22019 0.21336-0.40587 0.47414l-0.33763 0.47414h0.40588c0.34562 0 0.40589-0.0704 0.40589-0.47414zm135.92 0.079v-1.3434h0.64258c0.95083 0 1.3085 0.24104 1.1956 0.80567-0.0507 0.25324-0.0114 0.63756 0.0872 0.85405 0.28046 0.61559-0.18417 1.0271-1.1597 1.0271h-0.76574zm1.5015 0.55317c0-0.34251-0.0789-0.40166-0.59268-0.44418-0.56874-0.0472-0.59267-0.0292-0.59267 0.44418 0 0.4733 0.0239 0.49123 0.59267 0.44416 0.51375-0.0425 0.59268-0.10167 0.59268-0.44416zm0-1.1854c0-0.25119-0.12171-0.32618-0.59268-0.36515-0.54659-0.0453-0.59267-0.0169-0.59267 0.36515 0 0.38199 0.0461 0.41038 0.59267 0.36515 0.47097-0.0391 0.59268-0.11398 0.59268-0.36515zm0.77921 1.699c0.61552-1.6721 0.96534-2.4102 1.1423-2.4102 0.11665 0 0.2121 0.0199 0.2121 0.0443 0 0.0243 0.24655 0.6289 0.54789 1.3434 0.37735 0.89474 0.48363 1.2991 0.34146 1.2991-0.11352 0-0.28744-0.17781-0.38644-0.39512-0.14277-0.31334-0.29603-0.39513-0.74051-0.39513-0.45241 0-0.58943 0.0761-0.71068 0.39513-0.0827 0.21731-0.23073 0.39512-0.32909 0.39512-0.10377 0-0.13613-0.11613-0.0771-0.27659zm1.5069-1.0273c-3e-3 -0.10867-0.0995-0.36701-0.21433-0.5741l-0.20871-0.37653-0.18079 0.51864c-0.23226 0.66622-0.24474 0.62954 0.21432 0.62954 0.2173 0 0.3926-0.0889 0.38951-0.19755zm1.7441 0.73968c0-0.37229-0.16647-0.80616-0.48938-1.2755-0.26915-0.39121-0.44084-0.75963-0.3815-0.81872 0.10211-0.10169 0.54546 0.35612 0.87706 0.90566 0.16085 0.26655 0.25616 0.18865 0.85269-0.69699 0.11711-0.17385 0.26309-0.26775 0.32446-0.20867 0.0613 0.0591-0.1087 0.42751-0.37785 0.81872-0.32291 0.46933-0.48938 0.9032-0.48938 1.2755 0 0.31031-0.0711 0.56421-0.15805 0.56421-0.0869 0-0.15805-0.2539-0.15805-0.56421zm2.923 0.24714c-0.15783-0.1744-0.23414-0.36987-0.16962-0.43438 0.0645-0.0645 0.21241 0.0127 0.32864 0.17169 0.12704 0.17372 0.35829 0.26819 0.57976 0.23682 0.28684-0.0406 0.37941-0.16619 0.41804-0.56693 0.0594-0.61617-0.2744-0.81519-0.85028-0.50698-0.2113 0.11309-0.40764 0.17588-0.43626 0.13953-0.0287-0.0364 0.0111-0.36836 0.0881-0.73779 0.13621-0.65292 0.15754-0.67171 0.763-0.67171 0.3426 0 0.62291 0.0711 0.62291 0.15805 0 0.0869-0.20577 0.15806-0.45724 0.15806-0.27115 0-0.49629 0.10174-0.55317 0.24998-0.13408 0.34943-0.13731 0.34627 0.27425 0.2676 0.77367-0.14789 1.2226 1.0328 0.60518 1.5916-0.38847 0.35155-0.86464 0.32978-1.2133-0.0555zm27.106-1.0263v-1.3434h0.64258c0.95083 0 1.3085 0.24104 1.1956 0.80567-0.0507 0.25324-0.0114 0.63756 0.0872 0.85405 0.28048 0.61559-0.18417 1.0271-1.1597 1.0271h-0.76574zm1.5015 0.55317c0-0.34251-0.0789-0.40166-0.59268-0.44418-0.56875-0.0472-0.59268-0.0292-0.59268 0.44418 0 0.4733 0.0239 0.49123 0.59268 0.44416 0.51375-0.0425 0.59268-0.10167 0.59268-0.44416zm0-1.1854c0-0.25119-0.12172-0.32618-0.59268-0.36515-0.5466-0.0453-0.59268-0.0169-0.59268 0.36515 0 0.38199 0.0461 0.41038 0.59268 0.36515 0.47096-0.0391 0.59268-0.11398 0.59268-0.36515zm0.7792 1.699c0.61553-1.6721 0.96535-2.4102 1.1423-2.4102 0.11664 0 0.2121 0.0199 0.2121 0.0443 0 0.0243 0.24654 0.6289 0.54788 1.3434 0.37737 0.89474 0.48365 1.2991 0.34146 1.2991-0.11352 0-0.28743-0.17781-0.38643-0.39512-0.14278-0.31334-0.29604-0.39513-0.74051-0.39513-0.45241 0-0.58944 0.0761-0.71069 0.39513-0.0827 0.21731-0.23072 0.39512-0.32909 0.39512-0.10377 0-0.13612-0.11613-0.0771-0.27659zm1.5069-1.0273c-3e-3 -0.10867-0.0995-0.36701-0.21432-0.5741l-0.20872-0.37653-0.18079 0.51864c-0.23225 0.66622-0.24474 0.62954 0.21432 0.62954 0.2173 0 0.3926-0.0889 0.38951-0.19755zm1.7441 0.73968c0-0.37229-0.16649-0.80616-0.48939-1.2755-0.26916-0.39121-0.44085-0.75963-0.38151-0.81872 0.10212-0.10169 0.54546 0.35612 0.87706 0.90566 0.16085 0.26655 0.25616 0.18865 0.85269-0.69699 0.11711-0.17385 0.2631-0.26775 0.32446-0.20867 0.0613 0.0591-0.1087 0.42751-0.37785 0.81872-0.32291 0.46933-0.48938 0.9032-0.48938 1.2755 0 0.31031-0.0711 0.56421-0.15805 0.56421-0.0869 0-0.15803-0.2539-0.15803-0.56421zm2.9484 0.27517c-0.33556-0.37078-0.34473-1.5766-0.0155-2.0465 0.28097-0.40113 0.81614-0.45494 1.2645-0.12711 0.40249 0.2943 0.19825 0.49084-0.23129 0.22258-0.3834-0.23942-0.84914-0.0374-0.9364 0.40619-0.0415 0.21125 0.0285 0.24559 0.34089 0.16718 0.58582-0.14703 1.0548 0.16985 1.0548 0.7127 0 0.85996-0.92401 1.276-1.477 0.66498zm1.0818-0.58022c0-0.39463-0.0634-0.47415-0.3779-0.47415-0.50591 0-0.7832 0.43859-0.49603 0.78462 0.11775 0.14186 0.36255 0.23673 0.544 0.21081 0.25074-0.0359 0.32993-0.16094 0.32993-0.52128zm26.473-0.47415v-1.3434h0.64258c0.95083 0 1.3085 0.24104 1.1956 0.80567-0.0507 0.25324-0.0114 0.63756 0.0872 0.85405 0.28048 0.61559-0.18414 1.0271-1.1597 1.0271h-0.76576zm1.5015 0.55317c0-0.34251-0.0789-0.40166-0.59268-0.44418-0.56874-0.0472-0.59268-0.0292-0.59268 0.44418 0 0.4733 0.0239 0.49123 0.59268 0.44416 0.51375-0.0425 0.59268-0.10167 0.59268-0.44416zm0-1.1854c0-0.25119-0.12171-0.32618-0.59268-0.36515-0.54659-0.0453-0.59268-0.0169-0.59268 0.36515 0 0.38199 0.0461 0.41038 0.59268 0.36515 0.47097-0.0391 0.59268-0.11398 0.59268-0.36515zm0.77921 1.699c0.61553-1.6721 0.96536-2.4102 1.1423-2.4102 0.11665 0 0.2121 0.0199 0.2121 0.0443 0 0.0243 0.24655 0.6289 0.54787 1.3434 0.37737 0.89474 0.48366 1.2991 0.34147 1.2991-0.11352 0-0.28744-0.17781-0.38644-0.39512-0.14278-0.31334-0.29604-0.39513-0.7405-0.39513-0.45241 0-0.58944 0.0761-0.71069 0.39513-0.0827 0.21731-0.23072 0.39512-0.32909 0.39512-0.10377 0-0.13613-0.11613-0.0771-0.27659zm1.5069-1.0273c-3e-3 -0.10867-0.0995-0.36701-0.21432-0.5741l-0.20872-0.37653-0.18078 0.51864c-0.23227 0.66622-0.24474 0.62954 0.2143 0.62954 0.21732 0 0.39261-0.0889 0.38952-0.19755zm1.7441 0.73968c0-0.37229-0.16647-0.80616-0.48939-1.2755-0.26916-0.39121-0.44083-0.75963-0.3815-0.81872 0.10211-0.10169 0.54547 0.35612 0.87707 0.90566 0.16084 0.26655 0.25615 0.18865 0.85267-0.69699 0.11712-0.17385 0.26312-0.26775 0.32446-0.20867 0.0613 0.0591-0.10868 0.42751-0.37784 0.81872-0.3229 0.46933-0.48938 0.9032-0.48938 1.2755 0 0.31031-0.0711 0.56421-0.15805 0.56421-0.0869 0-0.15804-0.2539-0.15804-0.56421zm3.1625 0.2086c2e-3 -0.19559 0.17536-0.729 0.38784-1.1854l0.3863-0.82974h-0.62492c-0.3437 0-0.62492-0.0711-0.62492-0.15806 0-0.0869 0.39117-0.15805 0.86926-0.15805 0.9583 0 1.0372 0.11049 0.55868 0.78252-0.17082 0.23989-0.39896 0.76651-0.50693 1.1702-0.20698 0.77388-0.44792 0.97865-0.44531 0.37846zm27.183-0.9878v-1.3434h0.64258c0.95083 0 1.3085 0.24104 1.1956 0.80567-0.0507 0.25324-0.0114 0.63756 0.0872 0.85405 0.28047 0.61559-0.18416 1.0271-1.1597 1.0271h-0.76575zm1.5014 0.55317c0-0.34251-0.0789-0.40166-0.59267-0.44418-0.56873-0.0472-0.59268-0.0292-0.59268 0.44418 0 0.4733 0.0239 0.49123 0.59268 0.44416 0.51375-0.0425 0.59267-0.10167 0.59267-0.44416zm0-1.1854c0-0.25119-0.12171-0.32618-0.59267-0.36515-0.5466-0.0453-0.59268-0.0169-0.59268 0.36515 0 0.38199 0.0461 0.41038 0.59268 0.36515 0.47096-0.0391 0.59267-0.11398 0.59267-0.36515zm0.77921 1.699c0.61554-1.6721 0.96536-2.4102 1.1424-2.4102 0.11665 0 0.21209 0.0199 0.21209 0.0443 0 0.0243 0.24656 0.6289 0.54789 1.3434 0.37736 0.89474 0.48365 1.2991 0.34146 1.2991-0.11352 0-0.28744-0.17781-0.38644-0.39512-0.14278-0.31334-0.29604-0.39513-0.7405-0.39513-0.4524 0-0.58944 0.0761-0.7107 0.39513-0.0827 0.21731-0.2307 0.39512-0.32907 0.39512-0.10378 0-0.13614-0.11613-0.0771-0.27659zm1.5069-1.0273c-3e-3 -0.10867-0.0995-0.36701-0.21434-0.5741l-0.20871-0.37653-0.18079 0.51864c-0.23225 0.66622-0.24474 0.62954 0.21431 0.62954 0.21732 0 0.3926-0.0889 0.38953-0.19755zm1.7441 0.73968c0-0.37229-0.16648-0.80616-0.48938-1.2755-0.26916-0.39121-0.44084-0.75963-0.38151-0.81872 0.10211-0.10169 0.54547 0.35612 0.87707 0.90566 0.16084 0.26655 0.25615 0.18865 0.85268-0.69699 0.11712-0.17385 0.2631-0.26775 0.32445-0.20867 0.0613 0.0591-0.10869 0.42751-0.37783 0.81872-0.32291 0.46933-0.48939 0.9032-0.48939 1.2755 0 0.31031-0.0711 0.56421-0.15805 0.56421-0.0869 0-0.15804-0.2539-0.15804-0.56421zm2.9484 0.27517c-0.27754-0.30666-0.33911-0.68693-0.14305-0.8834 0.0652-0.0652 0.11854-0.37082 0.11854-0.67887 0-0.65531 0.31991-0.92833 0.91329-0.77939 0.48869 0.12264 0.69917 0.64643 0.40366 1.0045-0.1655 0.20055-0.16831 0.26944-0.013 0.32169 0.10866 0.0366 0.19757 0.27142 0.19757 0.52191 0 0.74048-0.96246 1.0621-1.477 0.49359zm1.0818-0.5012c0-0.54648-0.78632-0.66836-0.95164-0.14751-0.12557 0.39565 0.14682 0.64554 0.63554 0.58304 0.22103-0.0283 0.3161-0.15926 0.3161-0.43553zm-0.079-1.1854c0-0.28575-0.0849-0.39511-0.30677-0.39511-0.16871 0-0.35282 0.0745-0.40912 0.1656-0.16931 0.27395 0.0524 0.62463 0.39483 0.62463 0.23711 0 0.32106-0.10334 0.32106-0.39512zm1.062 0.67965c0.41173-1.3557 0.47012-1.492 0.58852-1.3736 0.12033 0.12032-0.64365 2.571-0.81978 2.6297-0.0919 0.0306 0.0122-0.53461 0.23126-1.2561zm1.0755 1.0401c-0.34805-0.34806-0.16983-0.47631 0.30718-0.22102 0.31586 0.16905 0.43534 0.1704 0.63195 7e-3 0.40002-0.33198 0.30429-0.65821-0.15903-0.54192-0.81304 0.20406-1.3575-0.84752-0.73192-1.4136 0.37919-0.34316 0.86265-0.33198 1.188 0.0274 0.33556 0.37079 0.34471 1.5766 0.0154 2.0465-0.28925 0.41294-0.88843 0.4586-1.2517 0.0954zm1.1026-1.5617c0-0.39463-0.0634-0.47415-0.37789-0.47415-0.50591 0-0.7832 0.4386-0.49602 0.78462 0.11774 0.14186 0.36254 0.23672 0.54399 0.21081 0.25075-0.0359 0.32992-0.16093 0.32992-0.52128zm-301.63 0.31609v-1.3434h0.64258c0.95083 0 1.3085 0.24103 1.1956 0.80566-0.0507 0.25324-0.0114 0.63755 0.0872 0.85405 0.28048 0.61559-0.18415 1.0271-1.1597 1.0271h-0.76575zm1.5014 0.55317c0-0.3425-0.0789-0.40165-0.59268-0.44417-0.56873-0.0472-0.59267-0.0292-0.59267 0.44417 0 0.47331 0.0239 0.49124 0.59267 0.44417 0.51375-0.0425 0.59268-0.10167 0.59268-0.44417zm0-1.1854c0-0.25118-0.12171-0.32617-0.59268-0.36515-0.54658-0.0452-0.59267-0.0169-0.59267 0.36515 0 0.38198 0.0461 0.41038 0.59267 0.36515 0.47097-0.039 0.59268-0.11396 0.59268-0.36515zm0.77921 1.699c0.61553-1.6721 0.96537-2.4102 1.1423-2.4102 0.11665 0 0.2121 0.0199 0.2121 0.0443s0.24655 0.62891 0.54789 1.3434c0.37735 0.89474 0.48363 1.2991 0.34146 1.2991-0.11353 0-0.28743-0.17779-0.38645-0.39512-0.14276-0.31333-0.29604-0.39511-0.7405-0.39511-0.4524 0-0.58943 0.0761-0.71069 0.39511-0.0827 0.21733-0.23071 0.39512-0.32908 0.39512-0.10378 0-0.13613-0.11611-0.0771-0.27658zm1.5069-1.0273c-3e-3 -0.10865-0.0995-0.367-0.21432-0.57409l-0.20871-0.37653-0.18081 0.51866c-0.23225 0.6662-0.24472 0.62951 0.21432 0.62951 0.21732 0 0.39259-0.0889 0.38952-0.19755zm1.7441 0.7397c0-0.3723-0.16646-0.80615-0.48938-1.2755-0.26916-0.39121-0.44083-0.75962-0.3815-0.81871 0.10209-0.10171 0.54547 0.35611 0.87707 0.90566 0.16083 0.26655 0.25615 0.18864 0.85268-0.69699 0.11711-0.17385 0.2631-0.26776 0.32445-0.20867 0.0613 0.0591-0.10869 0.4275-0.37784 0.81871-0.32291 0.46935-0.48938 0.9032-0.48938 1.2755 0 0.31031-0.0711 0.56419-0.15805 0.56419-0.0869 0-0.15805-0.25388-0.15805-0.56419zm2.923 0.24713c-0.36733-0.4059-0.17877-0.61323 0.22521-0.24763 0.42346 0.38324 0.88199 0.26485 0.88199-0.22771 0-0.28718-0.0958-0.40655-0.35561-0.44346-0.44074-0.0626-0.46271-0.27974-0.0395-0.3904 0.37094-0.097 0.42226-0.55559 0.077-0.68807-0.1315-0.0505-0.34247-6e-3 -0.46883 0.0989-0.35888 0.29784-0.65031 0.11916-0.32928-0.20188 0.31322-0.31322 0.89065-0.35285 1.1636-0.0798 0.24981 0.24982 0.24411 0.91536-8e-3 0.92148-0.10964 3e-3 -0.0744 0.0764 0.079 0.1659 0.38321 0.22321 0.36423 1.0356-0.0292 1.2462-0.46647 0.24964-0.87977 0.19664-1.1966-0.15346zm-79.576-1.3424v-1.3434h0.64258c0.95082 0 1.3085 0.24105 1.1956 0.80568-0.05065 0.25324-0.01139 0.63755 0.08726 0.85405 0.28048 0.61558-0.18415 1.0271-1.1597 1.0271h-0.76574zm1.5015 0.55315c0-0.34249-0.07894-0.40164-0.59268-0.44416-0.56874-0.0472-0.59268-0.0292-0.59268 0.44416 0 0.47332 0.02393 0.49125 0.59268 0.44418 0.51375-0.0425 0.59268-0.10167 0.59268-0.44418zm0-1.1854c0-0.25118-0.12172-0.32617-0.59268-0.36514-0.54658-0.0452-0.59268-0.0169-0.59268 0.36514 0 0.38199 0.0461 0.41039 0.59268 0.36516 0.47096-0.0391 0.59268-0.11398 0.59268-0.36516zm0.77921 1.699c0.61553-1.6721 0.96536-2.4102 1.1423-2.4102 0.11666 0 0.2121 0.0199 0.2121 0.0443 0 0.0243 0.24655 0.6289 0.54789 1.3434 0.37735 0.89474 0.48364 1.2991 0.34146 1.2991-0.11353 0-0.28744-0.17781-0.38645-0.39512-0.14276-0.31334-0.29604-0.39514-0.74049-0.39514-0.45241 0-0.58943 0.0762-0.71069 0.39514-0.08262 0.21731-0.23071 0.39512-0.32909 0.39512-0.10377 0-0.13612-0.11613-0.07704-0.2766zm1.5069-1.0273c-0.0031-0.10867-0.09952-0.367-0.21432-0.5741l-0.20872-0.37652-0.1808 0.51864c-0.23224 0.66621-0.24473 0.62954 0.21432 0.62954 0.21731 0 0.3926-0.0889 0.38952-0.19756zm1.7441 0.73969c0-0.3723-0.16646-0.80616-0.48938-1.2755-0.26916-0.39121-0.44084-0.75963-0.38152-0.81872 0.10211-0.10169 0.54548 0.35612 0.87707 0.90565 0.16084 0.26656 0.25615 0.18866 0.85269-0.69698 0.1171-0.17385 0.2631-0.26775 0.32445-0.20867 0.06135 0.0591-0.10868 0.42751-0.37784 0.81872-0.32291 0.46933-0.48938 0.90319-0.48938 1.2755 0 0.3103-0.07112 0.56421-0.15805 0.56421-0.08692 0-0.15805-0.25391-0.15805-0.56421zm3.6351-0.46867c0-0.9839-0.01498-1.0248-0.3161-0.86369-0.17385 0.093-0.3161 0.10794-0.3161 0.0331 0-0.15761 0.67913-0.82335 0.83994-0.82335 0.0596 0 0.10835 0.60454 0.10835 1.3434 0 0.79023-0.06507 1.3434-0.15805 1.3434-0.08924 0-0.15805-0.44967-0.15805-1.0329zm-9.3248-7.0829c0-0.11734 0.22096-0.51838 0.49101-0.89118 0.57977-0.80035 1.2475-2.6624 1.2475-3.4788 0-0.8164-0.66774-2.6785-1.2475-3.4788-0.51786-0.71487-0.62189-1.1058-0.29346-1.1027 0.34437 3e-3 1.3335 1.6164 1.6806 2.7411 0.4251 1.377 0.42356 2.4603-0.0052 3.7458-0.52056 1.5603-1.8729 3.3399-1.8729 2.4646zm35.719 0c0-0.11734 0.22025-0.51742 0.48946-0.88904 1.4474-1.998 1.4474-4.9639 0-6.962-0.51644-0.71292-0.62007-1.1036-0.2919-1.1005 0.28994 3e-3 1.2942 1.5358 1.596 2.4365 0.16247 0.48478 0.26103 1.2947 0.26103 2.145 0 0.85029-0.0986 1.6602-0.26103 2.145-0.45752 1.3652-1.7936 3.0227-1.7936 2.225zm35.877 0c0-0.11734 0.22025-0.51742 0.48946-0.88904 1.4474-1.998 1.4474-4.9639 0-6.962-0.51644-0.71292-0.62008-1.1036-0.29191-1.1005 0.28995 3e-3 1.2942 1.5358 1.596 2.4365 0.16245 0.48478 0.26103 1.2947 0.26103 2.145 0 0.85029-0.0987 1.6602-0.26103 2.145-0.45753 1.3652-1.7936 3.0227-1.7936 2.225zm35.719 0c0-0.11734 0.22025-0.51742 0.48945-0.88904 0.69239-0.95582 1.091-2.2276 1.091-3.481 0-1.2533-0.39862-2.5252-1.091-3.481-0.51644-0.71292-0.62007-1.1036-0.2919-1.1005 0.28995 3e-3 1.2942 1.5358 1.596 2.4365 0.16246 0.48478 0.26102 1.2947 0.26102 2.145 0 0.85029-0.0985 1.6602-0.26102 2.145-0.45752 1.3652-1.7936 3.0227-1.7936 2.225zm145.56 0c0-0.11734 0.22025-0.51742 0.48946-0.88904 0.69238-0.95582 1.091-2.2276 1.091-3.481 0-1.2533-0.39864-2.5252-1.091-3.481-0.51644-0.71292-0.62007-1.1036-0.2919-1.1005 0.28996 3e-3 1.2942 1.5358 1.596 2.4365 0.16249 0.48478 0.26105 1.2947 0.26105 2.145 0 0.85029-0.0986 1.6602-0.26105 2.145-0.45751 1.3652-1.7936 3.0227-1.7936 2.225zm35.877 0c0-0.11734 0.22095-0.51838 0.49101-0.89118 0.57978-0.80035 1.2475-2.6624 1.2475-3.4788 0-0.8164-0.66774-2.6785-1.2475-3.4788-0.51784-0.71487-0.62188-1.1058-0.29345-1.1027 0.3224 3e-3 1.3097 1.5801 1.6753 2.6761 0.6241 1.8707 0.29787 3.9015-0.90877 5.6572-0.54792 0.79722-0.9641 1.0641-0.9641 0.61826zm35.719 0c0-0.11734 0.22025-0.51742 0.48945-0.88904 0.6924-0.95582 1.091-2.2276 1.091-3.481 0-1.2533-0.39862-2.5252-1.091-3.481-0.51644-0.71292-0.62007-1.1036-0.2919-1.1005 0.28996 3e-3 1.2942 1.5358 1.596 2.4365 0.16247 0.48478 0.26103 1.2947 0.26103 2.145 0 0.85029-0.0986 1.6602-0.26103 2.145-0.45751 1.3652-1.7936 3.0227-1.7936 2.225zm35.719 0c0-0.11734 0.22026-0.51742 0.48947-0.88904 0.69238-0.95582 1.091-2.2276 1.091-3.481 0-1.2533-0.39862-2.5252-1.091-3.481-0.51645-0.71292-0.62008-1.1036-0.29191-1.1005 0.28995 3e-3 1.2942 1.5358 1.596 2.4365 0.16247 0.48478 0.26102 1.2947 0.26102 2.145 0 0.85029-0.0985 1.6602-0.26102 2.145-0.45753 1.3652-1.7936 3.0227-1.7936 2.225zm-361.3-20.333v-12.328h-0.33089c-0.19797 0-0.3641-0.12698-0.41355-0.3161-0.08166-0.31227-0.21558-0.3161-11.03-0.3161-10.815 0-10.948 4e-3 -11.03 0.3161-0.06926 0.26484-0.21558 0.3161-0.90249 0.3161-0.68364 0-0.8334-0.0519-0.90151-0.31236-0.07663-0.29306-0.24416-0.31503-2.7115-0.35561-3.5295-0.0581-3.5171-0.34483 0.01746-0.40268 2.5576-0.0418 2.6473-0.0545 2.6473-0.37041 0-0.19415 0.12846-0.36065 0.3161-0.40973 0.3127-0.0818 0.3161-0.21558 0.3161-12.471 0-10.906 0.02835-12.388 0.23707-12.388 0.20872 0 0.23707 1.4827 0.23707 12.396v12.396l0.35561 0.0505c0.22853 0.0325 0.37366 0.17758 0.40611 0.40611l0.0505 0.35561h21.796l0.15338-0.40341c0.14127-0.37158 0.21891-0.39964 0.98389-0.35561 0.72364 0.0416 0.83701 0.0935 0.88102 0.40341l0.0505 0.35561h33.778l0.0505-0.35561c0.0454-0.31956 0.13864-0.35561 0.91977-0.35561s0.87438 0.0361 0.91976 0.35561l0.0505 0.35561h33.936l0.0505-0.35561c0.0454-0.31956 0.13865-0.35561 0.91978-0.35561 0.78112 0 0.87438 0.0361 0.91977 0.35561l0.0505 0.35561h33.778l0.0504-0.35561c0.0454-0.31956 0.13865-0.35561 0.91978-0.35561 0.78114 0 0.87439 0.0361 0.91978 0.35561l0.0505 0.35561h33.484v-0.33089c0-0.19798 0.12699-0.3641 0.3161-0.41356 0.31281-0.0819 0.3161-0.21558 0.3161-12.866 0-11.258 0.0284-12.783 0.23708-12.783 0.20877 0 0.23706 1.5266 0.23706 12.791v12.791l0.35561 0.0504c0.22853 0.0325 0.37366 0.17758 0.40612 0.40611l0.0505 0.35561h33.484v-0.33089c0-0.19798 0.12697-0.3641 0.3161-0.41356 0.3127-0.0818 0.3161-0.21558 0.3161-12.471 0-10.906 0.0284-12.388 0.23706-12.388 0.20873 0 0.23708 1.4827 0.23708 12.396v12.396l0.35561 0.0505c0.22719 0.0323 0.37367 0.17755 0.40561 0.40233 0.0491 0.34567 0.0962 0.35259 2.6868 0.39513 3.5259 0.0579 3.5309 0.34468 7e-3 0.40263-2.4674 0.0406-2.6349 0.0626-2.7115 0.3556-0.0681 0.26047-0.21788 0.31237-0.90152 0.31237-0.6869 0-0.83322-0.0513-0.90249-0.31611-0.082-0.31358-0.21559-0.31609-16.799-0.31609-16.583 0-16.717 2e-3 -16.799 0.31609-0.0692 0.26484-0.2156 0.31611-0.9025 0.31611-0.68691 0-0.83323-0.0513-0.9025-0.31611-0.082-0.31358-0.21557-0.31609-16.817-0.31609-15.207 0-16.735 0.0229-16.735 0.25187 0 0.13852-0.14225 0.28906-0.3161 0.33452-0.31268 0.0818-0.31609 0.21559-0.31609 12.392 0 10.836-0.0284 12.309-0.23708 12.309-0.2087 0-0.23706-1.4751-0.23706-12.328v-12.328h-0.33089c-0.19798 0-0.36411-0.12699-0.41357-0.31611-0.082-0.3136-0.21557-0.31609-16.957-0.31609-16.741 0-16.875 2e-3 -16.957 0.31609-0.0494 0.18912-0.21559 0.31611-0.41356 0.31611h-0.33089v12.328c0 10.853-0.0284 12.328-0.23707 12.328-0.20871 0-0.23707-1.4751-0.23707-12.328 0-11.174-0.0235-12.328-0.25187-12.328-0.13854 0-0.28907-0.14224-0.33453-0.31609-0.082-0.31362-0.21559-0.3161-17.036-0.3161-16.82 0-16.954 2e-3 -17.036 0.3161-0.0494 0.18912-0.21558 0.31609-0.41356 0.31609h-0.33089v12.328c0 10.853-0.0284 12.328-0.23707 12.328-0.2087 0-0.23707-1.4751-0.23707-12.328 0-11.174-0.0235-12.328-0.25187-12.328-0.13852 0-0.28906-0.14224-0.33452-0.31609-0.0821-0.31361-0.21559-0.3161-16.957-0.3161-16.741 0-16.875 2e-3 -16.957 0.3161-0.04547 0.17385-0.196 0.31609-0.33453 0.31609-0.22831 0-0.25187 1.1532-0.25187 12.328 0 10.853-0.02836 12.328-0.23707 12.328-0.2087 0-0.23707-1.4751-0.23707-12.328zm252.72 0c0-11.174-0.0235-12.328-0.25187-12.328-0.13853 0-0.28907-0.14225-0.33454-0.3161-0.0817-0.31227-0.21558-0.3161-11.03-0.3161-10.815 0-10.948 4e-3 -11.03 0.3161-0.0693 0.26484-0.2156 0.3161-0.90251 0.3161-0.6869 0-0.83322-0.0513-0.9025-0.3161-0.0784-0.29987-0.21558-0.3161-2.672-0.3161-2.1963 0-2.5894-0.036-2.5894-0.23707 0-0.20112 0.39391-0.23707 2.5968-0.23707 2.5726 0 2.5973-3e-3 2.6473-0.35561 0.0325-0.22853 0.17758-0.37366 0.40613-0.40611l0.3556-0.0505v-46.602h-50.575v7.4283c0 6.5185-0.0293 7.4282-0.23858 7.4282-0.21004 0-0.23368-0.91299-0.19757-7.6258l0.041-7.6258h51.366l0.04 23.491c0.0397 23.329 0.0422 23.492 0.35562 23.574 0.18862 0.0493 0.31557 0.21563 0.31557 0.41342v0.33089h21.947l0.0504-0.35561c0.0454-0.31956 0.13865-0.3556 0.91979-0.3556 0.78113 0 0.87438 0.0361 0.91976 0.3556l0.0505 0.35561h33.778l0.0505-0.35561c0.044-0.30978 0.15742-0.36176 0.8799-0.40336 0.75743-0.0437 0.84532-0.0128 1.0132 0.3556l0.18377 0.40337h33.621l0.15337-0.40341c0.14128-0.37157 0.21892-0.39964 0.9839-0.35561 0.72363 0.0416 0.837 0.0935 0.88103 0.40341l0.0504 0.35561h33.778l0.0505-0.35561c0.0454-0.31956 0.13864-0.3556 0.91978-0.3556 0.78113 0 0.87438 0.0361 0.91977 0.3556 0.05 0.35239 0.0741 0.35561 2.6605 0.35561 2.0176 0 2.595 0.0449 2.5443 0.19756-0.048 0.14464-0.74544 0.20917-2.6035 0.24091-2.3754 0.0405-2.5431 0.0634-2.6195 0.3556-0.0485 0.18554-0.21593 0.31227-0.41256 0.31227h-0.33095v12.328c0 10.853-0.0284 12.328-0.23707 12.328-0.20869 0-0.23707-1.4731-0.23707-12.309 0-12.176-3e-3 -12.31-0.3161-12.392-0.17385-0.0455-0.31609-0.19599-0.31609-0.33452 0-0.22889-1.5413-0.25187-16.893-0.25187-16.76 0-16.893 2e-3 -16.975 0.3161-0.0455 0.17385-0.19601 0.3161-0.33454 0.3161-0.2283 0-0.25188 1.1532-0.25188 12.328 0 10.853-0.0284 12.328-0.23706 12.328-0.20871 0-0.23708-1.4751-0.23708-12.328v-12.328h-0.33089c-0.19795 0-0.36409-0.12698-0.41355-0.3161-0.0821-0.31362-0.21558-0.3161-17.036-0.3161-16.82 0-16.954 2e-3 -17.036 0.3161-0.0494 0.18912-0.2156 0.3161-0.41357 0.3161h-0.33089v12.328c0 10.853-0.0284 12.328-0.23707 12.328-0.2087 0-0.23707-1.4751-0.23707-12.328 0-11.174-0.0235-12.328-0.25186-12.328-0.13854 0-0.28907-0.14225-0.33455-0.3161-0.082-0.31361-0.21557-0.3161-16.957-0.3161-16.741 0-16.875 2e-3 -16.957 0.3161-0.0494 0.18912-0.21559 0.3161-0.41356 0.3161h-0.33089v12.328c0 10.853-0.0284 12.328-0.23706 12.328-0.20872 0-0.23708-1.4751-0.23708-12.328zm-204.51-19.203v-1.0273h0.64348c0.74049 0 1.095 0.27779 1.095 0.85797 0 0.36878-0.0585 0.40642-0.6322 0.40642-0.56896 0-0.63217 0.0395-0.63217 0.39511 0 0.24586-0.0896 0.39512-0.23708 0.39512-0.18642 0-0.23707-0.21951-0.23707-1.0273zm1.1854-0.23706c0-0.13039-0.16003-0.25981-0.3556-0.28758-0.2737-0.0388-0.3556 0.0273-0.3556 0.28758 0 0.26019 0.0819 0.32644 0.3556 0.28757 0.19557-0.0278 0.3556-0.15719 0.3556-0.28757zm0.71122 0.23706c0-0.8078 0.0507-1.0273 0.23707-1.0273 0.15804 0 0.23708 0.15805 0.23708 0.47414 0 0.4004 0.0615 0.47415 0.39511 0.47415 0.33366 0 0.39512-0.0737 0.39512-0.47415 0-0.31609 0.079-0.47414 0.23707-0.47414 0.1842 0 0.23968 0.22033 0.24879 0.9878l0.0117 0.98781 0.45998-0.99866c0.25298-0.54925 0.52661-0.95746 0.60803-0.90713 0.0815 0.0504 0.26825 0.40623 0.41516 0.7909 0.20925 0.54791 0.30994 0.65936 0.46488 0.51462 0.14872-0.13892 0.15417-0.25914 0.022-0.48461-0.13305-0.22686-0.12777-0.31724 0.0217-0.37138 0.10865-0.0393 0.19755-0.1723 0.19755-0.29544 0-0.15053 0.1813-0.22391 0.55317-0.22391 0.30425 0 0.55317 0.0298 0.55317 0.0661 0 0.0364 0.0473 0.18911 0.10489 0.33947 0.0871 0.22701 0.0335 0.25971-0.31609 0.19288-0.55437-0.10597-0.56904 0.2784-0.0159 0.41723 0.32859 0.0824 0.39574 0.18271 0.3556 0.53079-0.0474 0.41109-0.0903 0.43038-1.0213 0.45905-0.84277 0.026-0.98252-0.0108-1.052-0.27658-0.10501-0.4016-0.59036-0.39493-0.69614 9e-3 -0.0622 0.23752-0.21558 0.31609-0.6174 0.31609-0.46501 0-0.53473-0.0515-0.53473-0.39512 0-0.31609-0.079-0.39511-0.39512-0.39511-0.31609 0-0.39511 0.079-0.39511 0.39511 0 0.24585-0.0896 0.39512-0.23708 0.39512-0.18641 0-0.23707-0.21951-0.23707-1.0273zm4.8995 0.47415c0-0.14751-0.14926-0.23707-0.39511-0.23707s-0.39512 0.0896-0.39512 0.23707c0 0.14751 0.14927 0.23707 0.39512 0.23707s0.39511-0.0896 0.39511-0.23707zm0.6322-0.47415v-1.0273h0.79023c0.59708 0 0.79025 0.058 0.79025 0.23707 0 0.15806-0.15805 0.23707-0.47414 0.23707-0.31611 0-0.47414 0.079-0.47414 0.23708 0 0.15805 0.15803 0.23707 0.47414 0.23707 0.26077 0 0.47414 0.0711 0.47414 0.15805 0 0.0869-0.21337 0.15805-0.47414 0.15805-0.31611 0-0.47414 0.079-0.47414 0.23707 0 0.15804 0.15803 0.23707 0.47414 0.23707 0.26077 0 0.47414 0.0711 0.47414 0.15805 0 0.0869-0.3556 0.15804-0.79025 0.15804h-0.79023zm3.0029 0.40829c0-0.34067-0.0889-0.66048-0.19756-0.71122-0.15804-0.0738-0.15804-0.11063 0-0.18438 0.10866-0.0507 0.19756-0.19295 0.19756-0.31609s0.0711-0.22391 0.15804-0.22391c0.0892 0 0.15806 0.44781 0.15806 1.0273 0 0.57952-0.0688 1.0273-0.15806 1.0273-0.0869 0-0.15804-0.27855-0.15804-0.61902zm237.07-0.40829v-1.0273h0.6732c0.75073 0 1.1099 0.34873 0.95784 0.93008-0.0635 0.24287-0.21208 0.33431-0.54313 0.33431-0.38074 0-0.45572 0.0649-0.45572 0.39511 0 0.28976-0.0843 0.39512-0.3161 0.39512-0.28368 0-0.31609-0.10536-0.31609-1.0273zm1.1854-0.23706c0-0.12801-0.12447-0.25671-0.27659-0.28602-0.19405-0.0374-0.27658 0.048-0.27658 0.28602 0 0.23803 0.0825 0.32337 0.27658 0.286 0.15212-0.0293 0.27659-0.15799 0.27659-0.286zm0.71121 0.23706c0-0.8078 0.0507-1.0273 0.23707-1.0273 0.15806 0 0.23707 0.15805 0.23707 0.47414 0 0.42147 0.0527 0.47415 0.47415 0.47415 0.42146 0 0.47414-0.0527 0.47414-0.47415 0-0.26078 0.0711-0.47414 0.15805-0.47414 0.0892 0 0.15804 0.44781 0.15804 1.0273 0 0.57952-0.0689 1.0273-0.15804 1.0273-0.0869 0-0.15805-0.1778-0.15805-0.39512 0-0.33365-0.0738-0.39511-0.47414-0.39511-0.40039 0-0.47415 0.0614-0.47415 0.39511 0 0.24586-0.0896 0.39512-0.23707 0.39512-0.18642 0-0.23707-0.21951-0.23707-1.0273zm1.8966 0.87377c0-0.23761 0.76062-1.9011 0.86926-1.9011 0.10863 0 0.86925 1.6635 0.86925 1.9011 0 0.0845-0.10667 0.15354-0.23706 0.15354-0.1317 0-0.23708-0.14048-0.23708-0.31609 0-0.2318-0.10536-0.3161-0.39511-0.3161s-0.39512 0.0843-0.39512 0.3161c0 0.17561-0.10538 0.31609-0.23708 0.31609-0.13038 0-0.23706-0.0691-0.23706-0.15354zm1.9815-0.044c-0.0537-0.16796-0.0302-0.93473 0.051-1.6595 0.0367-0.32743 0.89486-0.22753 1.2225 0.14231l0.30108 0.33987-0.59268-0.0928c-0.78523-0.12302-0.82254 0.28311-0.0396 0.43001 0.44565 0.0835 0.55318 0.17589 0.55318 0.47483 0 0.20407-0.11251 0.41421-0.25 0.46697-0.43152 0.16559-1.1796 0.10456-1.2455-0.10162zm0.98265-0.31611c-0.10013-0.30394-0.75152-0.34772-0.75152-0.0505 0 0.16138 0.14269 0.24807 0.40828 0.24807 0.25598 0 0.38403-0.0738 0.34324-0.19756zm0.67091-0.51364v-1.0273h0.86927c0.66731 0 0.86926 0.0551 0.86926 0.23706 0 0.16558-0.16683 0.23708-0.55318 0.23708-0.38632 0-0.55316 0.0715-0.55316 0.23706 0 0.16558 0.16684 0.23708 0.55316 0.23708 0.30425 0 0.55318 0.0711 0.55318 0.15805 0 0.0869-0.24893 0.15805-0.55318 0.15805-0.38632 0-0.55316 0.0715-0.55316 0.23708 0 0.16555 0.16684 0.23706 0.55316 0.23706 0.30425 0 0.55318 0.0711 0.55318 0.15805 0 0.0869-0.39118 0.15804-0.86926 0.15804h-0.86927zm2.4328 0.7773c0.0528-0.13749 0.096-0.31529 0.096-0.39511 0-0.0798 0.10418-0.14512 0.2315-0.14512 0.30495 0 0.62166-0.57465 0.39419-0.71523-0.091-0.0563-0.27069-0.0148-0.39937 0.092-0.30037 0.2493-0.44208 0.10577-0.30912-0.31309 0.12299-0.38754 0.77651-0.44712 1.1214-0.10223 0.34013 0.34013 0.28635 0.98589-0.0903 1.0844-0.17385 0.0455-0.31609 0.16044-0.31609 0.25551 0 0.095 0.14224 0.17284 0.31609 0.17284 0.17386 0 0.31609 0.0711 0.31609 0.15805 0 0.0869-0.32764 0.15805-0.72812 0.15805-0.59902 0-0.71112-0.0443-0.63219-0.25001zm86.232-10.269v-1.036l0.75072 0.0481c0.74926 0.0481 0.75082 0.0493 0.80124 0.6653 0.0933 1.1399-0.0424 1.3585-0.84378 1.3585h-0.70818zm1.1063 0.40136c0.21073-0.13834 0.21073-0.17292 0-0.31126-0.37827-0.24831-0.63218-0.18581-0.63218 0.15564 0 0.34144 0.25391 0.40395 0.63218 0.15562zm0.15805-0.86684c0-0.14751-0.14926-0.23707-0.39512-0.23707-0.24585 0-0.39511 0.0896-0.39511 0.23707 0 0.1475 0.14926 0.23708 0.39511 0.23708 0.24586 0 0.39512-0.0896 0.39512-0.23708zm0.6322 1.2854c0-0.41078 0.67506-1.8386 0.86925-1.8386 0.19422 0 0.86927 1.4278 0.86927 1.8386 0 0.3336-0.33544 0.25522-0.42836-0.10013-0.052-0.19881-0.21557-0.31611-0.44091-0.31611-0.22533 0-0.38891 0.1173-0.4409 0.31611-0.0929 0.35531-0.42835 0.43369-0.42835 0.10013zm1.1063-0.80198c0-0.16682-0.3033-0.2369-0.39352-0.0909-0.0547 0.0884 0.0116 0.16062 0.14712 0.16062 0.1355 0 0.2464-0.0313 0.2464-0.0697zm1.4224 0.60609c0-0.22653-0.21934-0.68882-0.48742-1.0273-0.43061-0.5437-0.452-0.61542-0.18341-0.61542 0.17741 0 0.3879 0.18098 0.50553 0.43463l0.20152 0.43463 0.13615-0.35911c0.13673-0.36067 0.55395-0.62674 0.72094-0.45975 0.0492 0.0492-0.0605 0.30011-0.24387 0.55758-0.18335 0.25747-0.33334 0.68829-0.33334 0.95739 0 0.26909-0.0711 0.48925-0.15805 0.48925-0.0869 0-0.15805-0.18535-0.15805-0.41189zm1.6711 0.14795c-0.0558-0.14518-0.0202-0.31409 0.079-0.37538 0.13079-0.0809 0.13226-0.14108 5e-3 -0.21951-0.0962-0.0594-0.17493-0.31248-0.17493-0.56228 0-0.51144 0.39593-0.72708 1.0387-0.56574 0.33227 0.0833 0.3837 0.18796 0.3837 0.78001 0 0.46164-0.0938 0.76865-0.28901 0.94527-0.37234 0.33694-0.91309 0.33572-1.0428-2e-3zm1.0158-1.2485c0-0.16474-0.1153-0.2311-0.34325-0.19756-0.50598 0.0744-0.56016 0.44563-0.065 0.44563 0.26561 0 0.4083-0.0867 0.4083-0.24807zm-421.67-1.5811c0-1.1884 0.03291-1.3486 0.26778-1.3034 0.17252 0.0332 0.38012 0.40279 0.5836 1.0389 0.1737 0.54303 0.35956 0.98733 0.41301 0.98733 0.05345 0 0.2393-0.4443 0.41301-0.98733 0.20348-0.63611 0.41108-1.0057 0.5836-1.0389 0.23486-0.0452 0.26778 0.115 0.26778 1.3034 0 1.6035-0.2806 1.8356-0.34839 0.28818l-0.04673-1.0668-0.37115 1.0748c-0.20414 0.59116-0.44847 1.049-0.54298 1.0175-0.09449-0.0315-0.33088-0.51516-0.52528-1.0748l-0.35346-1.0175-0.01234 1.0668c-0.0069 0.59762-0.08185 1.0668-0.17039 1.0668-0.09308 0-0.15805-0.55703-0.15805-1.355zm3.0029 1.223c0-0.0726 0.32625-0.46293 0.72501-0.8674 0.73787-0.74845 0.80116-0.98451 0.34166-1.2744-0.1913-0.12068-0.33498-0.0929-0.5562 0.10723-0.51081 0.46229-0.7491 0.21506-0.2621-0.27193 0.51019-0.51019 1.4902-0.1463 1.4902 0.55335 0 0.16774-0.29306 0.58939-0.65125 0.937l-0.65125 0.63201h0.65125c0.35819 0 0.65125 0.0711 0.65125 0.15805 0 0.0869-0.39117 0.15804-0.86926 0.15804-0.47809 0-0.86926-0.0594-0.86926-0.132zm163.49-0.14458c0.61554-1.6721 0.96536-2.4102 1.1423-2.4102 0.11666 0 0.2121 0.0199 0.2121 0.0443s0.24656 0.62891 0.54788 1.3434c0.37736 0.89473 0.48365 1.2991 0.34147 1.2991-0.11353 0-0.28745-0.17779-0.38644-0.39512-0.14279-0.31333-0.29605-0.39512-0.7405-0.39512-0.45241 0-0.58945 0.0761-0.71071 0.39512-0.0827 0.21733-0.23071 0.39512-0.32908 0.39512-0.10377 0-0.13612-0.11611-0.0771-0.27658zm1.5069-1.0273c-3e-3 -0.10866-0.0995-0.367-0.21432-0.57409l-0.20872-0.37652-0.18081 0.51865c-0.23224 0.6662-0.24472 0.62952 0.21432 0.62952 0.21733 0 0.39262-0.0889 0.38953-0.19756zm1.5316 1.0149c-0.29499-0.32595-0.38444-2.3978-0.10353-2.3978 0.0887 0 0.15805 0.43727 0.15805 0.9957 0 1.056 0.16499 1.375 0.71122 1.375s0.71121-0.31898 0.71121-1.375c0-0.55843 0.0694-0.9957 0.15805-0.9957 0.09 0 0.15805 0.46599 0.15805 1.0818 0 0.84735-0.0627 1.1385-0.28902 1.3434-0.38363 0.34718-1.1781 0.33267-1.504-0.0274zm2.2672 0.19323c0-0.0527 0.21009-0.36104 0.46686-0.68524l0.46686-0.58946-0.40189-0.59143c-0.50606-0.74474-0.32209-0.98354 0.21993-0.28543l0.40252 0.51848 0.43476-0.51848c0.57563-0.68649 0.72454-0.50329 0.20837 0.25633l-0.40689 0.59878 0.49992 0.69612c0.58799 0.81876 0.30941 0.96673-0.34621 0.18389l-0.4314-0.51508-0.40982 0.51366c-0.37204 0.46629-0.70301 0.66303-0.70301 0.41786zm30.819-1.0896v-1.1854h-0.47414c-0.26078 0-0.47415-0.0711-0.47415-0.15805 0-0.0903 0.47415-0.15805 1.1063-0.15805s1.1063 0.0677 1.1063 0.15805c0 0.0869-0.21336 0.15805-0.47414 0.15805h-0.47414v1.1854c0 0.68487-0.0667 1.1854-0.15805 1.1854-0.0914 0-0.15805-0.50048-0.15805-1.1854zm1.7385-0.15805c0-0.79023 0.0651-1.3434 0.15805-1.3434 0.0929 0 0.15804 0.55318 0.15804 1.3434s-0.0651 1.3434-0.15804 1.3434c-0.0929 0-0.15805-0.55317-0.15805-1.3434zm0.94828 0v-1.3434h1.0273c0.57951 0 1.0273 0.0688 1.0273 0.15805 0 0.0869-0.39116 0.15805-0.86926 0.15805-0.82184 0-0.86926 0.0215-0.86926 0.39511 0 0.36878 0.0527 0.39513 0.79024 0.39513 0.43463 0 0.79023 0.0711 0.79023 0.15805 0 0.0869-0.3556 0.15804-0.79023 0.15804-0.77267 0-0.79024 0.0106-0.79024 0.47414 0 0.46936 9e-3 0.47415 0.86926 0.47415 0.4781 0 0.86926 0.0711 0.86926 0.15805 0 0.0892-0.44779 0.15804-1.0273 0.15804h-1.0273zm210.43-0.28784c-0.14473-0.37714 5e-3 -3.2698 0.16908-3.2698 0.091 0 0.1772 0.63627 0.20328 1.5022l0.0452 1.5023h1.4957c1.2242 0 1.4957 0.0431 1.4957 0.23708 0 0.19571-0.2903 0.23707-1.6645 0.23707-1.2336 0-1.6852-0.054-1.7446-0.20882zm4.6261 0.1088c-0.29748-0.2975 0.0224-0.37413 1.562-0.37413 1.2677 0 1.6568 0.0478 1.6072 0.19756-0.0716 0.21594-2.9684 0.37732-3.1692 0.17657zm4.2714 4e-3c-0.27527-0.27527 0.19443-0.37825 1.7252-0.37825 1.2602 0 1.6475 0.0478 1.5978 0.19757-0.0707 0.21313-3.1245 0.37918-3.323 0.18068zm9.0043-4e-3c-0.30881-0.30881 0.0425-0.38032 1.6677-0.33947 1.0502 0.0264 1.778 0.10938 1.778 0.20274 0 0.1802-3.2724 0.31005-3.4457 0.13673zm4.5837 3.1e-4c-0.29749-0.29749 0.0224-0.37412 1.562-0.37412 1.2677 0 1.6568 0.0479 1.6072 0.19757-0.0716 0.21593-2.9684 0.37731-3.1691 0.17655zm4.578-5e-3c-0.28524-0.28522 0.0119-0.36878 1.3113-0.36878h1.4167l0.0453-1.5282c0.031-1.0484 0.10724-1.5487 0.24278-1.5936 0.15045-0.0498 0.19756 0.37109 0.19756 1.7652v1.8307h-1.5541c-0.85479 0-1.6016-0.0475-1.6595-0.10537zm-27.053-4.5023c-0.15194-0.39598-0.0122-3.2963 0.15894-3.2962 0.21292 8e-5 0.29741 3.1654 0.09 3.3728-0.10621 0.10621-0.18853 0.081-0.24896-0.0766zm29.861-0.0264c-0.14255-0.37152 5e-3 -3.2685 0.16908-3.3086 0.0964-0.0235 0.1755 0.6554 0.20275 1.7393 0.0297 1.1794-0.012 1.778-0.1235 1.778-0.0925 0-0.20425-0.0939-0.24833-0.20881zm-445.6-2.6919c0-0.11734 0.22026-0.51742 0.48946-0.88904 0.6924-0.95582 1.091-2.2277 1.091-3.481s-0.39862-2.5252-1.091-3.481c-0.51644-0.71292-0.62007-1.1036-0.2919-1.1005 0.28995 3e-3 1.2942 1.5358 1.596 2.4365 0.16246 0.48478 0.26103 1.2947 0.26103 2.145 0 0.85029-0.09856 1.6602-0.26103 2.145-0.45752 1.3652-1.7936 3.0227-1.7936 2.225zm201.98 0c0-0.11734 0.22026-0.51742 0.48946-0.88904 0.69239-0.95582 1.091-2.2277 1.091-3.481s-0.39862-2.5252-1.091-3.481c-0.51644-0.71292-0.62008-1.1036-0.2919-1.1005 0.28996 3e-3 1.2942 1.5358 1.596 2.4365 0.16246 0.48478 0.26103 1.2947 0.26103 2.145 0 0.85029-0.0986 1.6602-0.26103 2.145-0.45753 1.3652-1.7936 3.0227-1.7936 2.225zm-35.245-0.79023c0-0.11736 0.22094-0.51839 0.491-0.89119 0.57978-0.80035 1.2475-2.6624 1.2475-3.4788s-0.66774-2.6785-1.2475-3.4788c-0.51784-0.71488-0.62189-1.1058-0.29345-1.1027 0.32241 3e-3 1.3097 1.5801 1.6753 2.6761 0.6241 1.8707 0.29785 3.9015-0.90878 5.6572-0.54792 0.79722-0.9641 1.0641-0.9641 0.61828zm249.03-1.0026c-0.0556-0.0556-0.10105-0.80044-0.10105-1.6552v-1.5541h1.7385c1.44 0 1.7385 0.0407 1.7385 0.23707 0 0.19409-0.27219 0.23707-1.5014 0.23707h-1.5015v1.3341c0 1.2274-0.11499 1.6592-0.37308 1.4011zm29.875 4e-3c-0.058-0.058-0.10537-0.69528-0.10537-1.4163v-1.3109l-1.3702-0.0457c-0.92152-0.0307-1.3916-0.11035-1.4356-0.24323-0.0495-0.14972 0.33955-0.19755 1.6072-0.19755h1.6727v1.6595c0 1.5196-0.0774 1.8456-0.36877 1.5541zm-25.282-2.8395c-0.29748-0.2975 0.0224-0.37412 1.562-0.37412 1.2677 0 1.6568 0.0478 1.6072 0.19756-0.0716 0.21593-2.9684 0.37733-3.1692 0.17656zm4.2714 4e-3c-0.27527-0.27528 0.19443-0.37826 1.7252-0.37826 1.2602 0 1.6475 0.0478 1.5978 0.19755-0.0707 0.21315-3.1245 0.37921-3.323 0.18071zm4.5832-1.6e-4c-0.27747-0.27747 0.2028-0.3781 1.8044-0.3781 1.3235 0 1.7266 0.0476 1.6768 0.19755-0.0707 0.21316-3.2821 0.3797-3.4812 0.18055zm4.421-4e-3c-0.30881-0.30882 0.0425-0.38033 1.6677-0.33948 1.0502 0.0264 1.778 0.10938 1.778 0.20274 0 0.18021-3.2724 0.31006-3.4457 0.13674zm4.5837 3.1e-4c-0.29749-0.29749 0.0224-0.37412 1.562-0.37412 1.2677 0 1.6568 0.0479 1.6072 0.19756-0.0716 0.21594-2.9684 0.37732-3.1691 0.17656zm-439.48-10.647v-7.4283h-8.3765c-7.3404 0-8.3765-0.0294-8.3765-0.23707 0-0.20783 1.0624-0.23707 8.6136-0.23707h8.6136v7.6653c0 6.7082-0.0296 7.6653-0.23707 7.6653-0.20737 0-0.23707-0.93072-0.23707-7.4282zm166.58-12.486c0-16.753 0.0276-18.966 0.23707-18.966 0.2094 0 0.23707 2.2127 0.23707 18.966 0 16.753-0.0276 18.966-0.23707 18.966-0.20942 0-0.23707-2.2127-0.23707-18.966zm-182.23 11.447c0-1.1884 0.03291-1.3486 0.26778-1.3034 0.17252 0.0332 0.38012 0.40279 0.5836 1.0389 0.1737 0.54303 0.35956 0.98733 0.41301 0.98733 0.05345 0 0.2393-0.4443 0.41301-0.98733 0.20348-0.63611 0.41108-1.0057 0.5836-1.0389 0.23486-0.0452 0.26778 0.11502 0.26778 1.3034 0 1.6035-0.2806 1.8356-0.34839 0.28818l-0.04673-1.0668-0.37115 1.0748c-0.20413 0.59115-0.44847 1.049-0.54298 1.0175-0.09449-0.0314-0.33088-0.51517-0.52528-1.0748l-0.35346-1.0175-0.01234 1.0668c-0.0069 0.59763-0.08185 1.0668-0.17039 1.0668-0.09308 0-0.15805-0.55703-0.15805-1.355zm3.9512 0.32213c0-0.98389-0.01498-1.0248-0.3161-0.86369-0.17385 0.093-0.3161 0.10794-0.3161 0.0331 0-0.15762 0.67914-0.82335 0.83994-0.82335 0.0596 0 0.10835 0.60454 0.10835 1.3434 0 0.79024-0.06507 1.3434-0.15805 1.3434-0.08923 0-0.15805-0.44967-0.15805-1.0329zm-38.564-4.8939c0-0.99086 0.014044-1.0273 0.39573-1.0273 0.33571 0 0.4247 0.10832 0.58676 0.71424l0.19103 0.71424 0.20826-0.71424c0.3253-1.1156 0.67284-0.95393 0.67284 0.31307 0 0.7856-0.053193 1.0273-0.22608 1.0273-0.12434 0-0.2569-0.16003-0.29457-0.35562l-0.068493-0.3556-0.021524 0.36719c-0.032442 0.55348-0.50904 0.36944-0.74623-0.28816l-0.19953-0.55318-0.012024 0.59269c-0.00844 0.4161-0.082649 0.59268-0.2491 0.59268-0.18642 0-0.23707-0.21952-0.23707-1.0273zm2.2608 0.82975c0.60796-1.4652 0.81456-1.8571 0.97916-1.8571 0.19421 0 0.86926 1.4278 0.86926 1.8386 0 0.11878-0.10668 0.21599-0.23707 0.21599-0.13171 0-0.23707-0.14049-0.23707-0.3161 0-0.22768-0.10537-0.31609-0.37669-0.31609-0.24377 0-0.40585 0.11154-0.45935 0.31609-0.045464 0.17385-0.20361 0.3161-0.35144 0.3161-0.15338 0-0.23358-0.0848-0.1868-0.19756zm1.0582-1.2249c0-0.17385-0.027268-0.31609-0.060588-0.31609s-0.097788 0.14224-0.14325 0.31609c-0.045467 0.17385-0.018199 0.31611 0.060588 0.31611s0.14325-0.14226 0.14325-0.31611zm0.94829 0.39513c0-0.80781 0.050656-1.0273 0.23707-1.0273 0.18642 0 0.23707 0.2195 0.23707 1.0273 0 0.80779-0.050656 1.0273-0.23707 1.0273-0.18641 0-0.23707-0.21952-0.23707-1.0273zm0.63219 0c0-1.2206 0.24662-1.3518 0.81686-0.43464l0.3685 0.59268 0.049051-0.59268c0.032091-0.3877 0.12774-0.59267 0.27658-0.59267 0.17467 0 0.22753 0.23865 0.22753 1.0273 0 0.8736-0.04137 1.0271-0.27658 1.0258-0.15212-7.9e-4 -0.43346-0.26755-0.62519-0.59267l-0.34861-0.59114-0.00701 0.59269c-0.00497 0.41834-0.076726 0.59268-0.24407 0.59268-0.18642 0-0.23707-0.21952-0.23707-1.0273zm2.6868 0v-1.0273h0.69804c0.38392 0 0.72515 0.0814 0.75828 0.18071 0.04519 0.13558 0.14456 0.13558 0.3979 0 0.36918-0.19758 0.9805-0.23534 1.3728-0.0848 0.36617 0.14051 0.33822 1.3557-0.03903 1.6971-0.30956 0.28015-0.97535 0.35809-0.97535 0.11417 0-0.0811-0.14224-0.19254-0.3161-0.24771-0.20751-0.066-0.32038-0.24598-0.32857-0.52431-0.0069-0.23318-0.04835-0.33508-0.09219-0.22642-0.04384 0.10865-0.28715 0.19755-0.54069 0.19755-0.40683 0-0.46097 0.0557-0.46097 0.47414 0 0.31611-0.07902 0.47415-0.23707 0.47415-0.18642 0-0.23707-0.21951-0.23707-1.0273zm2.9761 0.41505c0.1194-0.0756 0.18768-0.33068 0.15805-0.59025-0.04462-0.39082-0.12083-0.457-0.52631-0.457-0.40548 0-0.4817 0.0662-0.52631 0.457-0.04931 0.43201 0.16274 0.72352 0.52631 0.72352 0.08693 0 0.25264-0.0599 0.36826-0.13327zm-1.7117-0.8892c0-0.14751-0.14927-0.23707-0.39512-0.23707s-0.39512 0.0896-0.39512 0.23707c0 0.14751 0.14927 0.23707 0.39512 0.23707s0.39512-0.0896 0.39512-0.23707zm2.9272 1.3039c-0.03616-0.10866-0.17234-0.57095-0.30262-1.0273-0.22435-0.78592-0.22152-0.82975 0.05361-0.82975 0.22092 0 0.32502 0.17975 0.43473 0.75072l0.14425 0.75073 0.1196-0.75073c0.09286-0.58288 0.18516-0.75072 0.41284-0.75072 0.17775 0 0.353 0.17117 0.44497 0.43463l0.15173 0.43462 0.11564-0.43462c0.10959-0.41188 0.16439-0.43463 1.0468-0.43463 0.5154 0 0.93115 0.0706 0.93115 0.15804 0 0.0869-0.24892 0.15805-0.55317 0.15805-0.78517 0-0.75198 0.43426 0.03952 0.51706l0.59268 0.062-0.59268 0.0266c-0.47846 0.0215-0.59268 0.0874-0.59268 0.34266 0 0.2559 0.10536 0.31609 0.55317 0.31609 0.38634 0 0.55317 0.0715 0.55317 0.23708 0 0.17912-0.19317 0.23707-0.79024 0.23707h-0.79024l-0.01202-0.59267-0.01202-0.59269-0.18554 0.50231c-0.27973 0.75733-0.37945 0.77327-0.6721 0.10745l-0.26801-0.60976-0.15206 0.59269c-0.14794 0.5766-0.5343 0.80429-0.67048 0.39512zm3.7108-0.83802v-1.0356l0.82975 0.0477c0.73798 0.0424 0.83565 0.0895 0.88309 0.42503 0.02934 0.20748-0.04178 0.43862-0.15805 0.51365-0.14832 0.0958-0.1595 0.17177-0.03748 0.25494 0.09564 0.0652 0.25817 0.27856 0.36117 0.47414 0.28928 0.54932-0.17728 0.46339-0.63581-0.1171-0.4799-0.60752-0.76852-0.60807-0.76852-9.9e-4 0 0.31611-0.07902 0.47415-0.23707 0.47415-0.18661 0-0.23707-0.22043-0.23707-1.0356zm1.2644-0.46588c0-0.14751-0.14927-0.23707-0.39512-0.23707s-0.39512 0.0896-0.39512 0.23707c0 0.14751 0.14927 0.23707 0.39512 0.23707s0.39512-0.0896 0.39512-0.23707zm3.4771-1.5805c0-0.20263 0.4478-0.23707 3.0819-0.23707 2.6341 0 3.0819 0.0344 3.0819 0.23707 0 0.20263-0.4478 0.23707-3.0819 0.23707-2.6341 0-3.0819-0.0344-3.0819-0.23707zm-16.595-0.86926c0-0.0869 0.071119-0.15804 0.15805-0.15804 0.086921 0 0.15805-0.1019 0.15805-0.22642 0-0.12454 0.14224-0.27157 0.3161-0.32675 0.38008-0.12064 0.44814-0.86927 0.07902-0.86927-0.13039 0-0.23707 0.10668-0.23707 0.23708 0 0.13038-0.10668 0.23706-0.23707 0.23706-0.3599 0-0.28453-0.59582 0.090435-0.71483 0.18013-0.0571 0.50017-0.0606 0.71121-8e-3 0.31432 0.0789 0.38371 0.19579 0.38371 0.64645 0 0.30259-0.066041 0.55016-0.14676 0.55016-0.080717 0-0.27128 0.12447-0.42347 0.27659-0.26357 0.26344-0.25472 0.28132 0.18627 0.37642 0.38026 0.0819 0.32885 0.10317-0.28774 0.11853-0.4129 0.0103-0.75073-0.0524-0.75073-0.13935zm2.2127-0.15804c0-0.17562 0.10537-0.3161 0.23707-0.3161 0.13039 0 0.23707 0.10667 0.23707 0.23708 0 0.13038 0.11163 0.23706 0.24806 0.23706 0.16685 0 0.23153-0.11642 0.19756-0.3556-0.04102-0.28884-0.13595-0.34647-0.50557-0.30692-0.36677 0.0391-0.43577-2e-3 -0.35561-0.21048 0.054698-0.14255 0.099454-0.43117 0.099454-0.64138 0-0.33289 0.072825-0.38219 0.56448-0.38219 0.50225 0 0.55907 0.0412 0.51541 0.37447-0.02699 0.20595 0.04976 0.55914 0.17056 0.78484 0.30364 0.56735 0.01219 0.89531-0.79565 0.89531-0.50747 0-0.61284-0.0544-0.61284-0.31609zm2.3707-0.71122c0-1.2516 0.32648-1.4013 0.77558-0.35561l0.28848 0.6717 0.20659-0.67967c0.1902-0.62575 0.2448-0.67591 0.68817-0.63219 0.43277 0.0426 0.50723 0.13292 0.73472 0.89047l0.25315 0.84297 0.19749-0.88249c0.12693-0.5672 0.27814-0.88249 0.42323-0.88249 0.12415 0 0.22574 0.0972 0.22574 0.21599 0 0.41226-0.67539 1.8386-0.8706 1.8386-0.10794 0-0.34163-0.33783-0.5193-0.75073l-0.32304-0.75072-0.01279 0.75072c-0.0095 0.55627-0.07421 0.75073-0.24986 0.75073-0.15879 0-0.2424-0.16962-0.25321-0.51365l-0.01614-0.51366-0.16478 0.51366c-0.18033 0.56215-0.67695 0.70924-0.80034 0.23707-0.06884-0.26342-0.07315-0.26342-0.09062 0-0.01005 0.15212-0.12502 0.27658-0.25541 0.27658-0.18642 0-0.23707-0.21952-0.23707-1.0273zm4.0871 3e-3c0.22951-0.56357 0.48425-1.0035 0.56608-0.97771 0.08183 0.0258 0.34526 0.48692 0.58538 1.0247 0.39999 0.89577 0.41225 0.97772 0.14622 0.97772-0.1597 0-0.32756-0.14224-0.37302-0.3161-0.04547-0.17384-0.20266-0.31609-0.34933-0.31609-0.14667 0-0.30386 0.14225-0.34932 0.31609-0.04547 0.17386-0.2088 0.3161-0.36298 0.3161-0.25431 0-0.2416-0.095 0.13697-1.0247zm0.71152-3e-3c-0.05004-0.13039-0.11132-0.23708-0.13618-0.23708-0.02486 0-0.08614 0.10669-0.13618 0.23708-0.05486 0.14296-7.91e-4 0.23707 0.13618 0.23707 0.13698 0 0.19104-0.0941 0.13618-0.23707zm12.43 0.3556c0.0031-0.32239 1.5801-1.3097 2.6761-1.6753 1.8707-0.62409 3.9015-0.29785 5.6572 0.90877 0.79722 0.54792 1.0641 0.96411 0.61826 0.96411-0.11735 0-0.51838-0.22095-0.89118-0.49101-0.80034-0.57977-2.6624-1.2475-3.4788-1.2475-0.81641 0-2.6785 0.66774-3.4788 1.2475-0.71488 0.51785-1.1058 0.62189-1.1027 0.29345zm278.29-22.511c0.11408-0.04565 0.25041-0.04004 0.30292 0.01248 0.0525 0.05252-0.0408 0.08988-0.20743 0.08302-0.18413-0.0076-0.22157-0.04503-0.0955-0.09548z" stroke-width=".15805"/>
 </g>
</svg>
