<svg width="1900" height="800" version="1.1" viewBox="0 0 502.71 211.67" xmlns="http://www.w3.org/2000/svg">
 <defs>
  <clipPath id="d">
   <path d="m84 38h1123v715h-1123z"/>
  </clipPath>
  <clipPath id="c">
   <path d="m84 38h1123v715h-1123z"/>
  </clipPath>
  <clipPath id="b">
   <path d="m84 38h1123v715h-1123z"/>
  </clipPath>
  <clipPath id="a">
   <path d="m84 38h1123v715h-1123z"/>
  </clipPath>
 </defs>
 <g transform="translate(0 -85.333)">
  <g transform="matrix(.46221 0 0 -.46224 -54.347 416.12)">
   <g clip-path="url(#d)"></g>
   <g clip-path="url(#c)">
    <g transform="scale(.015)">
     <g fill="none" stroke="#000" stroke-linecap="round" stroke-linejoin="round" stroke-miterlimit="10" stroke-width="47.244">
      <path d="m12004 37430h26270"/>
      <path d="m13238 37430v-8248.9"/>
      <path d="m13238 33305v-334.67"/>
      <path d="m13458 31593c392.09 449.64 392.09 1119.7 0 1569.3"/>
      <path d="m13238 31784v-334.67"/>
     </g>
     <path d="m13400 32971h-294.47v-1186.6h294.47" fill="#fff"/>
     <path d="m13084 37430 1.9-24.2 5.67-23.6 9.29-22.42 12.68-20.69 15.76-18.46 18.46-15.76 20.69-12.68 22.42-9.29 23.6-5.67 24.2-1.9 24.19 1.9 23.6 5.67 22.42 9.29 20.7 12.68 18.45 15.76 15.77 18.46 12.68 20.69 9.28 22.42 5.67 23.6 1.9 24.2-1.9 24.19-5.67 23.6-9.28 22.42-12.68 20.7-15.77 18.45-18.45 15.76-20.7 12.69-22.42 9.28-23.6 5.67-24.19 1.9-24.2-1.9-23.6-5.67-22.42-9.28-20.69-12.69-18.46-15.76-15.76-18.45-12.68-20.7-9.29-22.42-5.67-23.6-1.9-24.19"/>
     <g fill="none" stroke="#000" stroke-linecap="round" stroke-linejoin="round" stroke-miterlimit="10" stroke-width="47.244">
      <path d="m13084 37430c0-85.423 69.247-154.67 154.67-154.67s154.67 69.247 154.67 154.67-69.247 154.67-154.67 154.67-154.67-69.247-154.67-154.67"/>
      <path d="m19425 37430v-8248.9"/>
      <path d="m19425 33305v-334.67"/>
      <path d="m19644 31593c392.09 449.64 392.09 1119.7 0 1569.3"/>
      <path d="m19425 31784v-334.67"/>
     </g>
     <path d="m19587 32971h-294.47v-1186.6h294.47" fill="#fff"/>
     <path d="m19270 37430 1.91-24.2 5.66-23.6 9.29-22.42 12.68-20.69 15.76-18.46 18.46-15.76 20.69-12.68 22.43-9.29 23.6-5.67 24.19-1.9 24.2 1.9 23.59 5.67 22.43 9.29 20.69 12.68 18.46 15.76 15.76 18.46 12.68 20.69 9.29 22.42 5.66 23.6 1.91 24.2-1.91 24.19-5.66 23.6-9.29 22.42-12.68 20.7-15.76 18.45-18.46 15.76-20.69 12.69-22.43 9.28-23.59 5.67-24.2 1.9-24.19-1.9-23.6-5.67-22.43-9.28-20.69-12.69-18.46-15.76-15.76-18.45-12.68-20.7-9.29-22.42-5.66-23.6-1.91-24.19"/>
     <g fill="none" stroke="#000" stroke-linecap="round" stroke-linejoin="round" stroke-miterlimit="10" stroke-width="47.244">
      <path d="m19270 37430c0-85.423 69.25-154.67 154.67-154.67s154.67 69.247 154.67 154.67-69.247 154.67-154.67 154.67-154.67-69.247-154.67-154.67"/>
      <path d="m25612 37430v-8248.9"/>
      <path d="m25612 33305v-334.67"/>
      <path d="m25831 31593c392.09 449.64 392.09 1119.7 0 1569.3"/>
      <path d="m25612 31784v-334.67"/>
     </g>
     <path d="m25773 32971h-294.48v-1186.6h294.48" fill="#fff"/>
     <path d="m25457 37430 1.9-24.2 5.67-23.6 9.28-22.42 12.69-20.69 15.76-18.46 18.45-15.76 20.7-12.68 22.42-9.29 23.6-5.67 24.19-1.9 24.2 1.9 23.6 5.67 22.42 9.29 20.69 12.68 18.46 15.76 15.76 18.46 12.68 20.69 9.29 22.42 5.67 23.6 1.9 24.2-1.9 24.19-5.67 23.6-9.29 22.42-12.68 20.7-15.76 18.45-18.46 15.76-20.69 12.69-22.42 9.28-23.6 5.67-24.2 1.9-24.19-1.9-23.6-5.67-22.42-9.28-20.7-12.69-18.45-15.76-15.76-18.45-12.69-20.7-9.28-22.42-5.67-23.6-1.9-24.19"/>
     <g fill="none" stroke="#000" stroke-linecap="round" stroke-linejoin="round" stroke-miterlimit="10" stroke-width="47.244">
      <path d="m25457 37430c0-85.423 69.243-154.67 154.66-154.67s154.67 69.247 154.67 154.67-69.247 154.67-154.67 154.67-154.67-69.247-154.67-154.67"/>
      <path d="m31798 37430v-8248.9"/>
      <path d="m31798 33305v-334.67"/>
      <path d="m32018 31593c392.09 449.64 392.09 1119.7 0 1569.3"/>
      <path d="m31798 31784v-334.67"/>
     </g>
     <path d="m31960 32971h-294.47v-1186.6h294.47" fill="#fff"/>
     <path d="m31644 37430 1.9-24.2 5.67-23.6 9.29-22.42 12.68-20.69 15.76-18.46 18.46-15.76 20.69-12.68 22.42-9.29 23.6-5.67 24.2-1.9 24.19 1.9 23.6 5.67 22.42 9.29 20.7 12.68 18.45 15.76 15.76 18.46 12.69 20.69 9.28 22.42 5.67 23.6 1.9 24.2-1.9 24.19-5.67 23.6-9.28 22.42-12.69 20.7-15.76 18.45-18.45 15.76-20.7 12.69-22.42 9.28-23.6 5.67-24.19 1.9-24.2-1.9-23.6-5.67-22.42-9.28-20.69-12.69-18.46-15.76-15.76-18.45-12.68-20.7-9.29-22.42-5.67-23.6-1.9-24.19"/>
     <g fill="none" stroke="#000" stroke-linecap="round" stroke-linejoin="round" stroke-miterlimit="10" stroke-width="47.244">
      <path d="m31644 37430c0-85.423 69.246-154.67 154.67-154.67s154.67 69.247 154.67 154.67-69.247 154.67-154.67 154.67-154.67-69.247-154.67-154.67"/>
      <path d="m31798 29181v-1104.8"/>
      <path d="m33860 28067h-4124.4"/>
      <path d="m25612 29181v-1093.6"/>
     </g>
     <path d="m31644 28067 1.9-24.2 5.67-23.6 9.29-22.42 12.68-20.69 15.76-18.46 18.46-15.76 20.69-12.68 22.42-9.29 23.6-5.66 24.2-1.91 24.19 1.91 23.6 5.66 22.42 9.29 20.7 12.68 18.45 15.76 15.77 18.46 12.68 20.69 9.28 22.42 5.67 23.6 1.9 24.2-1.9 24.19-5.67 23.6-9.28 22.43-12.68 20.69-15.77 18.45-18.45 15.77-20.7 12.68-22.42 9.28-23.6 5.67-24.19 1.9-24.2-1.9-23.6-5.67-22.42-9.28-20.69-12.68-18.46-15.77-15.76-18.45-12.68-20.69-9.29-22.43-5.67-23.6-1.9-24.19"/>
     <g fill="none" stroke="#000" stroke-linecap="round" stroke-linejoin="round" stroke-miterlimit="10" stroke-width="47.244">
      <path d="m31644 28067c0-85.422 69.247-154.67 154.67-154.67s154.67 69.247 154.67 154.67-69.247 154.67-154.67 154.67-154.67-69.247-154.67-154.67"/>
      <path d="m34376 29098v-322.14"/>
      <path d="m34376 28634v-283.58"/>
      <path d="m34376 28209v-283.59"/>
      <path d="m34376 27784v-283.59"/>
      <path d="m34376 27358v-322.15h-167.3"/>
      <path d="m34067 27036h-283.59"/>
      <path d="m33642 27036h-283.59"/>
      <path d="m33216 27036h-283.58"/>
      <path d="m32791 27036h-283.58"/>
      <path d="m32365 27036h-283.58"/>
      <path d="m31940 27036h-283.59"/>
      <path d="m31515 27036h-283.59"/>
      <path d="m31089 27036h-283.59"/>
      <path d="m30664 27036h-283.59"/>
      <path d="m30239 27036h-283.59"/>
      <path d="m29813 27036h-283.58"/>
      <path d="m29388 27036h-167.29v322.15"/>
      <path d="m29220 27500v283.59"/>
      <path d="m29220 27925v283.59"/>
      <path d="m29220 28351v283.58"/>
      <path d="m29220 28776v322.14h167.29"/>
      <path d="m29530 29098h283.58"/>
      <path d="m29955 29098h283.59"/>
      <path d="m30380 29098h283.59"/>
      <path d="m30806 29098h283.59"/>
      <path d="m31231 29098h283.59"/>
      <path d="m31656 29098h283.59"/>
      <path d="m32082 29098h283.58"/>
      <path d="m32507 29098h283.58"/>
      <path d="m32933 29098h283.58"/>
      <path d="m33358 29098h283.59"/>
      <path d="m33783 29098h283.59"/>
      <path d="m34209 29098h167.3"/>
      <path d="m35923 37430v7207.5"/>
      <path d="m35923 40884v334.67"/>
      <path d="m36142 42597c392.09-449.64 392.09-1119.7 0-1569.3"/>
      <path d="m35923 42406v334.67"/>
     </g>
     <path d="m36084 41219h-294.47v1186.7h294.47" fill="#fff"/>
     <path d="m35768 37430 1.91-24.2 5.66-23.6 9.29-22.42 12.68-20.69 15.76-18.46 18.46-15.76 20.69-12.68 22.42-9.29 23.6-5.67 24.2-1.9 24.19 1.9 23.6 5.67 22.43 9.29 20.69 12.68 18.45 15.76 15.77 18.46 12.68 20.69 9.28 22.42 5.67 23.6 1.9 24.2-1.9 24.19-5.67 23.6-9.28 22.42-12.68 20.7-15.77 18.45-18.45 15.76-20.69 12.69-22.43 9.28-23.6 5.67-24.19 1.9-24.2-1.9-23.6-5.67-22.42-9.28-20.69-12.69-18.46-15.76-15.76-18.45-12.68-20.7-9.29-22.42-5.66-23.6-1.91-24.19"/>
     <g fill="none" stroke="#000" stroke-linecap="round" stroke-linejoin="round" stroke-miterlimit="10" stroke-width="47.244">
      <path d="m35768 37430c0-85.423 69.248-154.67 154.67-154.67s154.67 69.247 154.67 154.67-69.247 154.67-154.67 154.67-154.67-69.247-154.67-154.67"/>
      <path d="m46378 37462h24747"/>
      <path d="m47409 37462v-3906.8"/>
     </g>
     <path d="m47254 37462 1.91-24.2 5.66-23.6 9.29-22.42 12.68-20.7 15.76-18.45 18.46-15.76 20.69-12.68 22.43-9.29 23.6-5.67 24.19-1.9 24.2 1.9 23.6 5.67 22.42 9.29 20.69 12.68 18.46 15.76 15.76 18.45 12.68 20.7 9.29 22.42 5.66 23.6 1.91 24.2-1.91 24.19-5.66 23.6-9.29 22.42-12.68 20.7-15.76 18.45-18.46 15.76-20.69 12.68-22.42 9.29-23.6 5.67-24.2 1.9-24.19-1.9-23.6-5.67-22.43-9.29-20.69-12.68-18.46-15.76-15.76-18.45-12.68-20.7-9.29-22.42-5.66-23.6-1.91-24.19"/>
     <path d="m47254 37462c0-85.425 69.251-154.67 154.67-154.67s154.67 69.246 154.67 154.67-69.246 154.67-154.67 154.67-154.67-69.247-154.67-154.67" fill="none" stroke="#000" stroke-linecap="round" stroke-linejoin="round" stroke-miterlimit="10" stroke-width="47.244"/>
     <path d="m51378 37462 1.9-24.2 5.67-23.6 9.28-22.42 12.68-20.7 15.77-18.45 18.45-15.76 20.7-12.68 22.42-9.29 23.6-5.67 24.19-1.9 24.2 1.9 23.6 5.67 22.42 9.29 20.69 12.68 18.46 15.76 15.76 18.45 12.68 20.7 9.29 22.42 5.66 23.6 1.91 24.2-1.91 24.19-5.66 23.6-9.29 22.42-12.68 20.7-15.76 18.45-18.46 15.76-20.69 12.68-22.42 9.29-23.6 5.67-24.2 1.9-24.19-1.9-23.6-5.67-22.42-9.29-20.7-12.68-18.45-15.76-15.77-18.45-12.68-20.7-9.28-22.42-5.67-23.6-1.9-24.19"/>
     <g fill="none" stroke="#000" stroke-linecap="round" stroke-linejoin="round" stroke-miterlimit="10" stroke-width="47.244">
      <path d="m51378 37462c0-85.425 69.243-154.67 154.66-154.67s154.67 69.246 154.67 154.67-69.246 154.67-154.67 154.67-154.67-69.247-154.67-154.67"/>
      <path d="m57720 37462v-9352.2"/>
      <path d="m57720 33337v-334.67"/>
      <path d="m57939 31625c392.09 449.65 392.09 1119.7 0 1569.3"/>
      <path d="m57720 31816v-334.67"/>
     </g>
     <path d="m57882 33003h-294.47v-1186.7h294.47" fill="#fff"/>
     <path d="m57565 37462 1.9-24.2 5.67-23.6 9.29-22.42 12.68-20.7 15.76-18.45 18.45-15.76 20.7-12.68 22.42-9.29 23.6-5.67 24.2-1.9 24.19 1.9 23.6 5.67 22.42 9.29 20.7 12.68 18.45 15.76 15.76 18.45 12.68 20.7 9.29 22.42 5.67 23.6 1.9 24.2-1.9 24.19-5.67 23.6-9.29 22.42-12.68 20.7-15.76 18.45-18.45 15.76-20.7 12.68-22.42 9.29-23.6 5.67-24.19 1.9-24.2-1.9-23.6-5.67-22.42-9.29-20.7-12.68-18.45-15.76-15.76-18.45-12.68-20.7-9.29-22.42-5.67-23.6-1.9-24.19"/>
     <g fill="none" stroke="#000" stroke-linecap="round" stroke-linejoin="round" stroke-miterlimit="10" stroke-width="47.244">
      <path d="m57565 37462c-1e-3 -85.425 69.246-154.67 154.67-154.67s154.67 69.246 154.67 154.67-69.246 154.67-154.67 154.67-154.67-69.247-154.67-154.67"/>
      <path d="m63906 37462v-8248.9"/>
      <path d="m63906 33337v-334.67"/>
      <path d="m64126 31625c392.1 449.65 392.1 1119.7 0 1569.3"/>
      <path d="m63906 31816v-334.67"/>
     </g>
     <path d="m64068 33003h-294.47v-1186.7h294.47" fill="#fff"/>
     <path d="m63752 37462 1.91-24.2 5.66-23.6 9.29-22.42 12.68-20.7 15.76-18.45 18.46-15.76 20.69-12.68 22.42-9.29 23.6-5.67 24.2-1.9 24.19 1.9 23.6 5.67 22.43 9.29 20.69 12.68 18.45 15.76 15.77 18.45 12.68 20.7 9.29 22.42 5.66 23.6 1.91 24.2-1.91 24.19-5.66 23.6-9.29 22.42-12.68 20.7-15.77 18.45-18.45 15.76-20.69 12.68-22.43 9.29-23.6 5.67-24.19 1.9-24.2-1.9-23.6-5.67-22.42-9.29-20.69-12.68-18.46-15.76-15.76-18.45-12.68-20.7-9.29-22.42-5.66-23.6-1.91-24.19"/>
     <g fill="none" stroke="#000" stroke-linecap="round" stroke-linejoin="round" stroke-miterlimit="10" stroke-width="47.244">
      <path d="m63752 37462c0-85.425 69.249-154.67 154.67-154.67s154.67 69.246 154.67 154.67-69.246 154.67-154.67 154.67-154.67-69.247-154.67-154.67"/>
      <path d="m70093 37462v-8248.9"/>
      <path d="m70093 33337v-334.67"/>
      <path d="m70313 31625c392.09 449.65 392.09 1119.7 0 1569.3"/>
      <path d="m70093 31816v-334.67"/>
     </g>
     <path d="m70255 33003h-294.47v-1186.7h294.47" fill="#fff"/>
     <path d="m69938 37462 1.9-24.2 5.66-23.6 9.29-22.42 12.68-20.7 15.77-18.45 18.45-15.76 20.69-12.68 22.43-9.29 23.6-5.67 24.19-1.9 24.2 1.9 23.6 5.67 22.42 9.29 20.69 12.68 18.46 15.76 15.76 18.45 12.68 20.7 9.29 22.42 5.66 23.6 1.91 24.2-1.91 24.19-5.66 23.6-9.29 22.42-12.68 20.7-15.76 18.45-18.46 15.76-20.69 12.68-22.42 9.29-23.6 5.67-24.2 1.9-24.19-1.9-23.6-5.67-22.43-9.29-20.69-12.68-18.45-15.76-15.77-18.45-12.68-20.7-9.29-22.42-5.66-23.6-1.9-24.19"/>
     <path d="m69938 37462c0-85.425 69.242-154.67 154.66-154.67s154.67 69.246 154.67 154.67-69.246 154.67-154.67 154.67-154.67-69.247-154.67-154.67" fill="none" stroke="#000" stroke-linecap="round" stroke-linejoin="round" stroke-miterlimit="10" stroke-width="47.244"/>
     <path d="m69938 29889 1.9-24.19 5.66-23.6 9.29-22.43 12.68-20.69 15.77-18.45 18.45-15.77 20.69-12.68 22.43-9.29 23.6-5.66 24.19-1.91 24.2 1.91 23.6 5.66 22.42 9.29 20.69 12.68 18.46 15.77 15.76 18.45 12.68 20.69 9.29 22.43 5.66 23.6 1.91 24.19-1.91 24.2-5.66 23.6-9.29 22.42-12.68 20.69-15.76 18.46-18.46 15.76-20.69 12.68-22.42 9.29-23.6 5.66-24.2 1.91-24.19-1.91-23.6-5.66-22.43-9.29-20.69-12.68-18.45-15.76-15.77-18.46-12.68-20.69-9.29-22.42-5.66-23.6-1.9-24.2"/>
     <g fill="none" stroke="#000" stroke-linecap="round" stroke-linejoin="round" stroke-miterlimit="10" stroke-width="47.244">
      <path d="m69938 29889c0-85.419 69.242-154.66 154.66-154.66s154.67 69.246 154.67 154.67-69.246 154.67-154.67 154.67-154.67-69.247-154.67-154.67"/>
      <path d="m19425 29181v-1102.1"/>
      <path d="m17363 28074h4124.4"/>
      <path d="m16847 27043v322.15"/>
      <path d="m16847 27507v283.59"/>
      <path d="m16847 27932v283.58"/>
      <path d="m16847 28357v283.58"/>
      <path d="m16847 28783v322.14h167.3"/>
      <path d="m17156 29105h283.58"/>
      <path d="m17582 29105h283.58"/>
      <path d="m18007 29105h283.58"/>
      <path d="m18432 29105h283.59"/>
      <path d="m18858 29105h283.59"/>
      <path d="m19283 29105h283.59"/>
      <path d="m19708 29105h283.59"/>
      <path d="m20134 29105h283.59"/>
      <path d="m20559 29105h283.58"/>
      <path d="m20985 29105h283.58"/>
      <path d="m21410 29105h283.58"/>
      <path d="m21835 29105h167.29v-322.14"/>
      <path d="m22003 28641v-283.58"/>
      <path d="m22003 28216v-283.58"/>
      <path d="m22003 27790v-283.59"/>
      <path d="m22003 27365v-322.15h-167.29"/>
      <path d="m21694 27043h-283.58"/>
      <path d="m21268 27043h-283.58"/>
      <path d="m20843 27043h-283.58"/>
      <path d="m20417 27043h-283.59"/>
      <path d="m19992 27043h-283.59"/>
      <path d="m19567 27043h-283.59"/>
      <path d="m19141 27043h-283.59"/>
      <path d="m18716 27043h-283.59"/>
      <path d="m18290 27043h-283.58"/>
      <path d="m17865 27043h-283.58"/>
      <path d="m17440 27043h-283.58"/>
      <path d="m17014 27043h-167.3"/>
      <path d="m13238 29181v-1076.7"/>
      <path d="m70093 29213-0.67-1092.7"/>
      <path d="m72150 28116h-4124.4"/>
      <path d="m63906 29213v-1092"/>
      <path d="m61844 28106h4124.4"/>
     </g>
     <path d="m63752 28106 1.91-24.2 5.66-23.6 9.29-22.42 12.68-20.7 15.76-18.45 18.46-15.76 20.69-12.68 22.42-9.29 23.6-5.67 24.2-1.9 24.19 1.9 23.6 5.67 22.43 9.29 20.69 12.68 18.45 15.76 15.77 18.45 12.68 20.7 9.29 22.42 5.66 23.6 1.91 24.2-1.91 24.19-5.66 23.6-9.29 22.42-12.68 20.7-15.77 18.45-18.45 15.76-20.69 12.68-22.43 9.29-23.6 5.67-24.19 1.9-24.2-1.9-23.6-5.67-22.42-9.29-20.69-12.68-18.46-15.76-15.76-18.45-12.68-20.7-9.29-22.42-5.66-23.6-1.91-24.19"/>
     <path d="m63752 28106c0-85.425 69.249-154.67 154.67-154.67s154.67 69.247 154.67 154.67-69.246 154.67-154.67 154.67-154.67-69.247-154.67-154.67" fill="none" stroke="#000" stroke-linecap="round" stroke-linejoin="round" stroke-miterlimit="10" stroke-width="47.244"/>
     <path d="m69933 28116 1.9-24.2 5.67-23.6 9.29-22.42 12.68-20.69 15.76-18.46 18.45-15.76 20.7-12.68 22.42-9.29 23.6-5.66 24.2-1.91 24.19 1.91 23.6 5.66 22.42 9.29 20.7 12.68 18.45 15.76 15.76 18.46 12.68 20.69 9.29 22.42 5.67 23.6 1.9 24.2-1.9 24.19-5.67 23.6-9.29 22.43-12.68 20.69-15.76 18.45-18.45 15.77-20.7 12.68-22.42 9.29-23.6 5.66-24.19 1.91-24.2-1.91-23.6-5.66-22.42-9.29-20.7-12.68-18.45-15.77-15.76-18.45-12.68-20.69-9.29-22.43-5.67-23.6-1.9-24.19"/>
     <g fill="none" stroke="#000" stroke-linecap="round" stroke-linejoin="round" stroke-miterlimit="10" stroke-width="47.244">
      <path d="m69933 28116c-1e-3 -85.421 69.246-154.67 154.67-154.67s154.67 69.247 154.67 154.67-69.246 154.67-154.67 154.67-154.67-69.246-154.67-154.67"/>
      <path d="m72666 29147v-322.14"/>
      <path d="m72666 28683v-283.59"/>
      <path d="m72666 28258v-283.59"/>
      <path d="m72666 27832v-283.59"/>
      <path d="m72666 27407v-322.15h-167.3"/>
      <path d="m72356 27085h-283.59"/>
      <path d="m71931 27085h-283.59"/>
      <path d="m71506 27085h-283.59"/>
      <path d="m71080 27085h-283.58"/>
      <path d="m70655 27085h-283.58"/>
      <path d="m70230 27085h-283.58"/>
      <path d="m69804 27085h-283.58"/>
      <path d="m69379 27085h-283.59"/>
      <path d="m68953 27085h-283.59"/>
      <path d="m68528 27085h-283.59"/>
      <path d="m68103 27085h-283.59"/>
      <path d="m67677 27085h-167.3v322.15"/>
      <path d="m67510 27549v283.59"/>
      <path d="m67510 27974v283.59"/>
      <path d="m67510 28400v283.59"/>
      <path d="m67510 28825v322.14h167.3"/>
      <path d="m67819 29147h283.59"/>
      <path d="m68244 29147h283.59"/>
      <path d="m68670 29147h283.59"/>
      <path d="m69095 29147h283.59"/>
      <path d="m69521 29147h283.58"/>
      <path d="m69946 29147h283.58"/>
      <path d="m70371 29147h283.58"/>
      <path d="m70797 29147h283.58"/>
      <path d="m71222 29147h283.59"/>
      <path d="m71648 29147h283.59"/>
      <path d="m72073 29147h283.59"/>
      <path d="m72498 29147h167.3"/>
      <path d="m61329 27075v322.15"/>
      <path d="m61329 27539v283.58"/>
      <path d="m61329 27964v283.58"/>
      <path d="m61329 28390v283.58"/>
      <path d="m61329 28815v322.15h167.29"/>
      <path d="m61638 29137h283.58"/>
      <path d="m62063 29137h283.58"/>
      <path d="m62488 29137h283.59"/>
      <path d="m62914 29137h283.59"/>
      <path d="m63339 29137h283.59"/>
      <path d="m63765 29137h283.59"/>
      <path d="m64190 29137h283.59"/>
      <path d="m64615 29137h283.58"/>
      <path d="m65041 29137h283.58"/>
      <path d="m65466 29137h283.58"/>
      <path d="m65892 29137h283.59"/>
      <path d="m66317 29137h167.3v-322.15"/>
      <path d="m66484 28673v-283.58"/>
      <path d="m66484 28248v-283.58"/>
      <path d="m66484 27822v-283.58"/>
      <path d="m66484 27397v-322.15h-167.3"/>
      <path d="m66175 27075h-283.59"/>
      <path d="m65750 27075h-283.58"/>
      <path d="m65324 27075h-283.58"/>
      <path d="m64899 27075h-283.58"/>
      <path d="m64474 27075h-283.59"/>
      <path d="m64048 27075h-283.59"/>
      <path d="m63623 27075h-283.59"/>
      <path d="m63197 27075h-283.59"/>
      <path d="m62772 27075h-283.59"/>
      <path d="m62347 27075h-283.58"/>
      <path d="m61921 27075h-283.58"/>
      <path d="m61496 27075h-167.29"/>
      <path d="m57720 35400"/>
      <path d="m55658 28106h4124.4"/>
     </g>
     <path d="m57565 28106 1.9-24.2 5.67-23.6 9.29-22.42 12.68-20.7 15.76-18.45 18.45-15.76 20.7-12.68 22.42-9.29 23.6-5.67 24.2-1.9 24.19 1.9 23.6 5.67 22.42 9.29 20.7 12.68 18.45 15.76 15.76 18.45 12.68 20.7 9.29 22.42 5.67 23.6 1.9 24.2-1.9 24.19-5.67 23.6-9.29 22.42-12.68 20.7-15.76 18.45-18.45 15.76-20.7 12.68-22.42 9.29-23.6 5.67-24.19 1.9-24.2-1.9-23.6-5.67-22.42-9.29-20.7-12.68-18.45-15.76-15.76-18.45-12.68-20.7-9.29-22.42-5.67-23.6-1.9-24.19"/>
     <g fill="none" stroke="#000" stroke-linecap="round" stroke-linejoin="round" stroke-miterlimit="10" stroke-width="47.244">
      <path d="m57565 28106c-1e-3 -85.425 69.246-154.67 154.67-154.67s154.67 69.247 154.67 154.67-69.246 154.67-154.67 154.67-154.67-69.247-154.67-154.67"/>
      <path d="m55142 27075v322.15"/>
      <path d="m55142 27539v283.58"/>
      <path d="m55142 27964v283.58"/>
      <path d="m55142 28390v283.58"/>
      <path d="m55142 28815v322.15h167.3"/>
      <path d="m55451 29137h283.59"/>
      <path d="m55876 29137h283.59"/>
      <path d="m56302 29137h283.59"/>
      <path d="m56727 29137h283.59"/>
      <path d="m57153 29137h283.58"/>
      <path d="m57578 29137h283.58"/>
      <path d="m58003 29137h283.58"/>
      <path d="m58429 29137h283.58"/>
      <path d="m58854 29137h283.59"/>
      <path d="m59279 29137h283.59"/>
      <path d="m59705 29137h283.59"/>
      <path d="m60130 29137h167.3v-322.15"/>
      <path d="m60298 28673v-283.58"/>
      <path d="m60298 28248v-283.58"/>
      <path d="m60298 27822v-283.58"/>
      <path d="m60298 27397v-322.15h-167.3"/>
      <path d="m59988 27075h-283.59"/>
      <path d="m59563 27075h-283.59"/>
      <path d="m59138 27075h-283.59"/>
      <path d="m58712 27075h-283.58"/>
      <path d="m58287 27075h-283.58"/>
      <path d="m57862 27075h-283.58"/>
      <path d="m57436 27075h-283.58"/>
      <path d="m57011 27075h-283.59"/>
      <path d="m56585 27075h-283.59"/>
      <path d="m56160 27075h-283.59"/>
      <path d="m55735 27075h-283.59"/>
      <path d="m55309 27075h-167.3"/>
      <path d="m49470 28084h4124.4"/>
     </g>
     <path d="m51377 28084 1.91-24.2 5.66-23.6 9.29-22.42 12.68-20.69 15.77-18.46 18.45-15.76 20.69-12.68 22.43-9.29 23.6-5.66 24.19-1.91 24.2 1.91 23.6 5.66 22.42 9.29 20.69 12.68 18.46 15.76 15.76 18.46 12.68 20.69 9.29 22.42 5.66 23.6 1.91 24.2-1.91 24.19-5.66 23.6-9.29 22.43-12.68 20.69-15.76 18.45-18.46 15.77-20.69 12.68-22.42 9.28-23.6 5.67-24.2 1.9-24.19-1.9-23.6-5.67-22.43-9.28-20.69-12.68-18.45-15.77-15.77-18.45-12.68-20.69-9.29-22.43-5.66-23.6-1.91-24.19"/>
     <g fill="none" stroke="#000" stroke-linecap="round" stroke-linejoin="round" stroke-miterlimit="10" stroke-width="47.244">
      <path d="m51377 28084c0-85.422 69.251-154.67 154.67-154.67s154.67 69.246 154.67 154.67-69.246 154.67-154.67 154.67-154.67-69.247-154.67-154.67"/>
      <path d="m48954 29115v-322.14"/>
      <path d="m48954 28651v-283.58"/>
      <path d="m48954 28226v-283.59"/>
      <path d="m48954 27800v-283.59"/>
      <path d="m48954 27375v-322.15h167.3"/>
      <path d="m49263 27053h283.58"/>
      <path d="m49689 27053h283.58"/>
      <path d="m50114 27053h283.58"/>
      <path d="m50540 27053h283.58"/>
      <path d="m50965 27053h283.59"/>
      <path d="m51390 27053h283.59"/>
      <path d="m51816 27053h283.59"/>
      <path d="m52241 27053h283.59"/>
      <path d="m52666 27053h283.59"/>
      <path d="m53092 27053h283.58"/>
      <path d="m53517 27053h283.58"/>
      <path d="m53943 27053h167.29v322.15"/>
      <path d="m54110 27517v283.59"/>
      <path d="m54110 27942v283.59"/>
      <path d="m54110 28367v283.58"/>
      <path d="m54110 28793v322.14h-167.29"/>
      <path d="m53801 29115h-283.58"/>
      <path d="m53375 29115h-283.58"/>
      <path d="m52950 29115h-283.59"/>
      <path d="m52525 29115h-283.59"/>
      <path d="m52099 29115h-283.59"/>
      <path d="m51674 29115h-283.59"/>
      <path d="m51249 29115h-283.59"/>
      <path d="m50823 29115h-283.58"/>
      <path d="m50398 29115h-283.58"/>
      <path d="m49972 29115h-283.58"/>
      <path d="m49547 29115h-283.58"/>
      <path d="m49122 29115h-167.3"/>
     </g>
     <g fill="#000000" font-family="Arial" font-size="460.74px">
      <text transform="matrix(1 0 0 -1 27418 38204)">
       <tspan x="0 306.85138 639.50403 946.35541 1253.2068 1560.0581 1687.6825" y="0">PHASE 1</tspan>
      </text>
      <text transform="matrix(1 0 0 -1 58909 38328)">
       <tspan x="0 306.85138 639.50403 946.35541 1253.2068 1560.0581 1687.6825" y="0">PHASE 2</tspan>
      </text>
      <text transform="matrix(1 0 0 -1 17019 29352)">
       <tspan x="0 306.85138 613.70276 920.55408 1048.1785" y="0">BAY 2</tspan>
      </text>
      <text transform="matrix(1 0 0 -1 29404 29328)">
       <tspan x="0 306.85138 613.70276 920.55408 1048.1785" y="0">BAY 4</tspan>
      </text>
      <text transform="matrix(1 0 0 -1 49121 29407)">
       <tspan x="0 306.85138 613.70276 920.55408 1048.1785" y="0">BAY 5</tspan>
      </text>
      <text transform="matrix(1 0 0 -1 55314 29385)">
       <tspan x="0 306.85138 613.70276 920.55408 1048.1785" y="0">BAY 6</tspan>
      </text>
      <text transform="matrix(1 0 0 -1 61501 29385)">
       <tspan x="0 306.85138 613.70276 920.55408 1048.1785" y="0">BAY 7</tspan>
      </text>
      <text transform="matrix(1 0 0 -1 67660 29364)">
       <tspan x="0 306.85138 613.70276 920.55408 1048.1785" y="0">BAY 8</tspan>
      </text>
     </g>
     <g fill="none" stroke="#000" stroke-linecap="round" stroke-linejoin="round" stroke-miterlimit="10" stroke-width="47.244">
      <path d="m70088 28478"/>
      <path d="m70093 29889h6084.6"/>
      <path d="m76165 29891v-1779.7"/>
      <path d="m78227 28108h-4124.4"/>
     </g>
     <path d="m76010 28108 1.9-24.19 5.67-23.6 9.28-22.43 12.68-20.69 15.77-18.45 18.45-15.77 20.7-12.68 22.42-9.29 23.6-5.66 24.19-1.91 24.2 1.91 23.6 5.66 22.42 9.29 20.69 12.68 18.46 15.77 15.76 18.45 12.68 20.69 9.29 22.43 5.66 23.6 1.91 24.19-1.91 24.2-5.66 23.6-9.29 22.42-12.68 20.69-15.76 18.46-18.46 15.76-20.69 12.68-22.42 9.29-23.6 5.66-24.2 1.91-24.19-1.91-23.6-5.66-22.42-9.29-20.7-12.68-18.45-15.76-15.77-18.46-12.68-20.69-9.28-22.42-5.67-23.6-1.9-24.2"/>
     <g fill="none" stroke="#000" stroke-linecap="round" stroke-linejoin="round" stroke-miterlimit="10" stroke-width="47.244">
      <path d="m76010 28108c0-85.419 69.243-154.67 154.66-154.67s154.67 69.247 154.67 154.67-69.246 154.67-154.67 154.67-154.67-69.246-154.67-154.67"/>
      <path d="m78743 29139v-322.15"/>
      <path d="m78743 28675v-283.59"/>
      <path d="m78743 28250v-283.59"/>
      <path d="m78743 27824v-283.59"/>
      <path d="m78743 27399v-322.14h-167.29"/>
      <path d="m78433 27077h-283.58"/>
      <path d="m78008 27077h-283.59"/>
      <path d="m77583 27077h-283.59"/>
      <path d="m77157 27077h-283.59"/>
      <path d="m76732 27077h-283.59"/>
      <path d="m76307 27077h-283.59"/>
      <path d="m75881 27077h-283.58"/>
      <path d="m75456 27077h-283.58"/>
      <path d="m75030 27077h-283.58"/>
      <path d="m74605 27077h-283.59"/>
      <path d="m74180 27077h-283.59"/>
      <path d="m73754 27077h-167.3v322.14"/>
      <path d="m73587 27541v283.59"/>
      <path d="m73587 27966v283.59"/>
      <path d="m73587 28391v283.59"/>
      <path d="m73587 28817v322.15h167.3"/>
      <path d="m73896 29139h283.59"/>
      <path d="m74321 29139h283.59"/>
      <path d="m74747 29139h283.58"/>
      <path d="m75172 29139h283.58"/>
      <path d="m75598 29139h283.58"/>
      <path d="m76023 29139h283.59"/>
      <path d="m76448 29139h283.59"/>
      <path d="m76874 29139h283.59"/>
      <path d="m77299 29139h283.59"/>
      <path d="m77725 29139h283.59"/>
      <path d="m78150 29139h283.58"/>
      <path d="m78575 29139h167.29"/>
     </g>
     <text transform="matrix(1 0 0 -1 77387 29336)" fill="#000000" font-family="Arial" font-size="460.74px">
      <tspan x="0 306.85138 613.70276 920.55408 1048.1785" y="0">BAY 9</tspan>
     </text>
     <g fill="none" stroke="#000" stroke-linecap="round" stroke-linejoin="round" stroke-miterlimit="10" stroke-width="47.244">
      <path d="m23549 28074h4124.4"/>
      <path d="m23034 27043v322.15"/>
      <path d="m23034 27507v283.59"/>
      <path d="m23034 27932v283.58"/>
      <path d="m23034 28357v283.58"/>
      <path d="m23034 28783v322.14h167.3"/>
      <path d="m23343 29105h283.59"/>
      <path d="m23768 29105h283.59"/>
      <path d="m24194 29105h283.58"/>
      <path d="m24619 29105h283.58"/>
      <path d="m25044 29105h283.58"/>
      <path d="m25470 29105h283.58"/>
      <path d="m25895 29105h283.59"/>
      <path d="m26320 29105h283.59"/>
      <path d="m26746 29105h283.59"/>
      <path d="m27171 29105h283.59"/>
      <path d="m27597 29105h283.59"/>
      <path d="m28022 29105h167.29v-322.14"/>
      <path d="m28189 28641v-283.58"/>
      <path d="m28189 28216v-283.58"/>
      <path d="m28189 27790v-283.59"/>
      <path d="m28189 27365v-322.15h-167.29"/>
      <path d="m27880 27043h-283.59"/>
      <path d="m27455 27043h-283.59"/>
      <path d="m27029 27043h-283.59"/>
      <path d="m26604 27043h-283.59"/>
      <path d="m26179 27043h-283.59"/>
      <path d="m25753 27043h-283.58"/>
      <path d="m25328 27043h-283.58"/>
      <path d="m24903 27043h-283.58"/>
      <path d="m24477 27043h-283.58"/>
      <path d="m24052 27043h-283.59"/>
      <path d="m23626 27043h-283.59"/>
      <path d="m23201 27043h-167.3"/>
     </g>
     <text transform="matrix(1 0 0 -1 23206 29352)" fill="#000000" font-family="Arial" font-size="460.74px">
      <tspan x="0 306.85138 613.70276 920.55408 1048.1785" y="0">BAY 3</tspan>
     </text>
     <path d="m23549 28074h4124.4" fill="none" stroke="#000" stroke-linecap="round" stroke-linejoin="round" stroke-miterlimit="10" stroke-width="47.244"/>
     <path d="m25457 28074 1.9-24.2 5.67-23.6 9.28-22.42 12.69-20.69 15.76-18.46 18.45-15.76 20.7-12.68 22.42-9.29 23.6-5.67 24.19-1.9 24.2 1.9 23.6 5.67 22.42 9.29 20.69 12.68 18.46 15.76 15.76 18.46 12.68 20.69 9.29 22.42 5.67 23.6 1.9 24.2-1.9 24.19-5.67 23.6-9.29 22.42-12.68 20.7-15.76 18.45-18.46 15.76-20.69 12.69-22.42 9.28-23.6 5.67-24.2 1.9-24.19-1.9-23.6-5.67-22.42-9.28-20.7-12.69-18.45-15.76-15.76-18.45-12.69-20.7-9.28-22.42-5.67-23.6-1.9-24.19"/>
     <path d="m25457 28074c0-85.423 69.243-154.67 154.66-154.67s154.67 69.247 154.67 154.67-69.247 154.67-154.67 154.67-154.67-69.246-154.67-154.67" fill="none" stroke="#000" stroke-linecap="round" stroke-linejoin="round" stroke-miterlimit="10" stroke-width="47.244"/>
     <path d="m17363 28074h4124.4" fill="none" stroke="#000" stroke-linecap="round" stroke-linejoin="round" stroke-miterlimit="10" stroke-width="47.244"/>
     <path d="m19270 28074 1.91-24.2 5.66-23.6 9.29-22.42 12.68-20.69 15.76-18.46 18.46-15.76 20.69-12.68 22.43-9.29 23.6-5.67 24.19-1.9 24.2 1.9 23.59 5.67 22.43 9.29 20.69 12.68 18.46 15.76 15.76 18.46 12.68 20.69 9.29 22.42 5.66 23.6 1.91 24.2-1.91 24.19-5.66 23.6-9.29 22.42-12.68 20.7-15.76 18.45-18.46 15.76-20.69 12.69-22.43 9.28-23.59 5.67-24.2 1.9-24.19-1.9-23.6-5.67-22.43-9.28-20.69-12.69-18.46-15.76-15.76-18.45-12.68-20.7-9.29-22.42-5.66-23.6-1.91-24.19"/>
     <path d="m19270 28074c0-85.423 69.25-154.67 154.67-154.67s154.67 69.247 154.67 154.67-69.247 154.67-154.67 154.67-154.67-69.246-154.67-154.67" fill="none" stroke="#000" stroke-linecap="round" stroke-linejoin="round" stroke-miterlimit="10" stroke-width="47.244"/>
     <path d="m13080 28079 1.91-24.2 5.66-23.6 9.29-22.42 12.68-20.69 15.76-18.46 18.46-15.76 20.69-12.68 22.43-9.29 23.6-5.67 24.19-1.9 24.2 1.9 23.6 5.67 22.42 9.29 20.69 12.68 18.46 15.76 15.76 18.46 12.68 20.69 9.29 22.42 5.66 23.6 1.91 24.2-1.91 24.19-5.66 23.6-9.29 22.42-12.68 20.7-15.76 18.45-18.46 15.77-20.69 12.68-22.42 9.28-23.6 5.67-24.2 1.9-24.19-1.9-23.6-5.67-22.43-9.28-20.69-12.68-18.46-15.77-15.76-18.45-12.68-20.7-9.29-22.42-5.66-23.6-1.91-24.19"/>
     <g fill="none" stroke="#000" stroke-linecap="round" stroke-linejoin="round" stroke-miterlimit="10" stroke-width="47.244">
      <path d="m13080 28079c0-85.423 69.251-154.67 154.67-154.67s154.67 69.246 154.67 154.67-69.246 154.67-154.67 154.67-154.67-69.247-154.67-154.67"/>
      <path d="m10657 29110v-322.14"/>
      <path d="m10657 28646v-283.58"/>
      <path d="m10657 28221v-283.59"/>
      <path d="m10657 27796v-283.59"/>
      <path d="m10657 27370v-322.15h167.3"/>
      <path d="m10966 27048h283.58"/>
      <path d="m11392 27048h283.58"/>
      <path d="m11817 27048h283.58"/>
      <path d="m12242 27048h283.58"/>
      <path d="m12668 27048h283.59"/>
      <path d="m13093 27048h283.59"/>
      <path d="m13518 27048h283.59"/>
      <path d="m13944 27048h283.59"/>
      <path d="m14369 27048h283.59"/>
      <path d="m14795 27048h283.58"/>
      <path d="m15220 27048h283.58"/>
      <path d="m15645 27048h167.29v322.15"/>
      <path d="m15813 27512v283.59"/>
      <path d="m15813 27937v283.59"/>
      <path d="m15813 28363v283.58"/>
      <path d="m15813 28788v322.14h-167.29"/>
      <path d="m15504 29110h-283.58"/>
      <path d="m15078 29110h-283.58"/>
      <path d="m14653 29110h-283.59"/>
      <path d="m14227 29110h-283.59"/>
      <path d="m13802 29110h-283.59"/>
      <path d="m13377 29110h-283.59"/>
      <path d="m12951 29110h-283.59"/>
      <path d="m12526 29110h-283.58"/>
      <path d="m12100 29110h-283.58"/>
      <path d="m11675 29110h-283.58"/>
      <path d="m11250 29110h-283.58"/>
      <path d="m10824 29110h-167.3"/>
     </g>
     <text transform="matrix(1 0 0 -1 10833 29313)" fill="#000000" font-family="Arial" font-size="460.74px">
      <tspan x="0 306.85138 613.70276 920.55408 1048.1785" y="0">BAY 1</tspan>
     </text>
     <path d="m11173 28079h4124.4" fill="none" stroke="#000" stroke-linecap="round" stroke-linejoin="round" stroke-miterlimit="10" stroke-width="47.244"/>
     <path d="m37580 37431h3580.7" fill="none" stroke="#000" stroke-linecap="round" stroke-linejoin="round" stroke-miterlimit="10" stroke-width="47.244"/>
     <path d="m39958 37424 1.91-24.2 5.66-23.6 9.29-22.42 12.68-20.7 15.76-18.45 18.46-15.76 20.69-12.68 22.42-9.29 23.6-5.67 24.2-1.9 24.19 1.9 23.6 5.67 22.43 9.29 20.69 12.68 18.45 15.76 15.77 18.45 12.68 20.7 9.29 22.42 5.66 23.6 1.91 24.2-1.91 24.19-5.66 23.6-9.29 22.42-12.68 20.7-15.77 18.45-18.45 15.76-20.69 12.68-22.43 9.29-23.6 5.67-24.19 1.9-24.2-1.9-23.6-5.67-22.42-9.29-20.69-12.68-18.46-15.76-15.76-18.45-12.68-20.7-9.29-22.42-5.66-23.6-1.91-24.19"/>
     <path d="m40113 37424v-3886.2" fill="none" stroke="#000" stroke-linecap="round" stroke-linejoin="round" stroke-miterlimit="10" stroke-width="47.244"/>
     <g fill="#000000" font-family="Arial" font-size="460.74px">
      <text transform="matrix(1 0 0 -1 13801 29307)">
       <tspan x="0 306.85138 613.70276 741.32709 997.49731 1253.6675 1509.8378" y="0">PX 6000</tspan>
      </text>
      <text transform="matrix(1 0 0 -1 20025 29336)">
       <tspan x="0 306.85138 613.70276 741.32709 997.49731 1253.6675 1509.8378" y="0">PX 6000</tspan>
      </text>
      <text transform="matrix(1 0 0 -1 26191 29336)">
       <tspan x="0 306.85138 613.70276 741.32709 997.49731 1253.6675 1509.8378" y="0">PX 6000</tspan>
      </text>
      <text transform="matrix(1 0 0 -1 32398 29309)">
       <tspan x="0 306.85138 613.70276 741.32709 997.49731 1253.6675 1509.8378" y="0">PX 6000</tspan>
      </text>
      <text transform="matrix(1 0 0 -1 52129 29397)">
       <tspan x="0 306.85138 613.70276 741.32709 997.49731 1253.6675 1509.8378" y="0">PX 6000</tspan>
      </text>
      <text transform="matrix(1 0 0 -1 58265 29338)">
       <tspan x="0 306.85138 613.70276 741.32709 997.49731 1253.6675 1509.8378" y="0">PX 6000</tspan>
      </text>
      <text transform="matrix(1 0 0 -1 64431 29368)">
       <tspan x="0 306.85138 613.70276 741.32709 997.49731 1253.6675 1509.8378" y="0">PX 6000</tspan>
      </text>
      <text transform="matrix(1 0 0 -1 72153 29397)">
       <tspan x="0 306.85138 613.70276 741.32709 997.49731 1253.6675 1509.8378" y="0">PX 8000</tspan>
      </text>
     </g>
     <path d="m33871 44772h4124.4" fill="none" stroke="#000" stroke-linecap="round" stroke-linejoin="round" stroke-miterlimit="10" stroke-width="47.244"/>
     <path d="m35779 44772 1.91-24.19 5.66-23.6 9.29-22.42 12.68-20.7 15.76-18.45 18.46-15.76 20.69-12.69 22.43-9.28 23.6-5.67 24.19-1.9 24.2 1.9 23.6 5.67 22.42 9.28 20.69 12.69 18.46 15.76 15.76 18.45 12.68 20.7 9.29 22.42 5.66 23.6 1.91 24.19-1.91 24.2-5.66 23.6-9.29 22.42-12.68 20.69-15.76 18.46-18.46 15.76-20.69 12.68-22.42 9.29-23.6 5.67-24.2 1.9-24.19-1.9-23.6-5.67-22.43-9.29-20.69-12.68-18.46-15.76-15.76-18.46-12.68-20.69-9.29-22.42-5.66-23.6-1.91-24.2"/>
     <g fill="none" stroke="#000" stroke-linecap="round" stroke-linejoin="round" stroke-miterlimit="10" stroke-width="47.244">
      <path d="m35779 44772c0-85.417 69.251-154.66 154.67-154.66s154.67 69.246 154.67 154.67-69.246 154.67-154.67 154.67-154.67-69.247-154.67-154.67"/>
      <path d="m33356 45803v-322.15"/>
      <path d="m33356 45339v-283.59"/>
      <path d="m33356 44913v-283.58"/>
      <path d="m33356 44488v-283.58"/>
      <path d="m33356 44063v-322.14h167.3"/>
      <path d="m33665 43741h283.58"/>
      <path d="m34090 43741h283.58"/>
      <path d="m34515 43741h283.58"/>
      <path d="m34941 43741h283.58"/>
      <path d="m35366 43741h283.59"/>
      <path d="m35792 43741h283.59"/>
      <path d="m36217 43741h283.59"/>
      <path d="m36642 43741h283.59"/>
      <path d="m37068 43741h283.59"/>
      <path d="m37493 43741h283.58"/>
      <path d="m37918 43741h283.58"/>
      <path d="m38344 43741h167.29v322.14"/>
      <path d="m38511 44205v283.58"/>
      <path d="m38511 44630v283.58"/>
      <path d="m38511 45055v283.59"/>
      <path d="m38511 45481v322.15h-167.29"/>
      <path d="m38202 45803h-283.58"/>
      <path d="m37777 45803h-283.58"/>
      <path d="m37351 45803h-283.59"/>
      <path d="m36926 45803h-283.59"/>
      <path d="m36500 45803h-283.59"/>
      <path d="m36075 45803h-283.59"/>
      <path d="m35650 45803h-283.59"/>
      <path d="m35224 45803h-283.58"/>
      <path d="m34799 45803h-283.58"/>
      <path d="m34374 45803h-283.58"/>
      <path d="m33948 45803h-283.58"/>
      <path d="m33523 45803h-167.3"/>
     </g>
     <text transform="matrix(1 0 0 -1 33614 46128)" fill="#000000" font-family="Arial" font-size="460.74px">
      <tspan x="0 306.85138 639.50403" y="0">AUX</tspan>
     </text>
     <text transform="matrix(1 0 0 -1 36954 46148)" fill="#000000" font-family="Arial" font-size="460.74px">
      <tspan x="0 127.62437 485.61761 613.242 869.41223 1125.5824" y="0">IQ 250</tspan>
     </text>
     <path d="m25609 37334v8248.9" fill="none" stroke="#000" stroke-linecap="round" stroke-linejoin="round" stroke-miterlimit="10" stroke-width="47.244"/>
     <path d="m19267 37426 1.9-24.19 5.67-23.6 9.28-22.43 12.69-20.69 15.76-18.45 18.45-15.77 20.7-12.68 22.42-9.29 23.6-5.66 24.19-1.91 24.2 1.91 23.6 5.66 22.42 9.29 20.69 12.68 18.46 15.77 15.76 18.45 12.68 20.69 9.29 22.43 5.67 23.6 1.9 24.19-1.9 24.2-5.67 23.6-9.29 22.42-12.68 20.69-15.76 18.46-18.46 15.76-20.69 12.68-22.42 9.29-23.6 5.66-24.2 1.91-24.19-1.91-23.6-5.66-22.42-9.29-20.7-12.68-18.45-15.76-15.76-18.46-12.69-20.69-9.28-22.42-5.67-23.6-1.9-24.2"/>
     <path d="m19267 37426c0-85.419 69.244-154.66 154.66-154.66s154.67 69.246 154.67 154.67-69.246 154.67-154.67 154.67-154.67-69.247-154.67-154.67" fill="none" stroke="#000" stroke-linecap="round" stroke-linejoin="round" stroke-miterlimit="10" stroke-width="47.244"/>
     <path d="m25610 45595h-2837.1" fill="none" stroke="#000" stroke-linecap="round" stroke-linejoin="round" stroke-miterlimit="10" stroke-width="47.244"/>
     <text transform="matrix(1 0 0 -1 10576 45796)" fill="#000000" font-family="Arial" font-size="460.74px">
      <tspan x="0 256.1702 383.79459 639.96478 767.58917 1151.3838 1458.2351" y="0">2.5 MVA</tspan>
     </text>
     <text transform="matrix(1 0 0 -1 9949 45177)" fill="#000000" font-family="Arial" font-size="460.74px">
      <tspan x="0 383.79459 690.64594 818.27032 1150.923 1278.5474 1585.3987 1943.392 2377.8677 2684.719" y="0">MAIN POWER</tspan>
     </text>
     <g fill="none" stroke="#000" stroke-linecap="round" stroke-linejoin="round" stroke-miterlimit="10" stroke-width="47.244">
      <path d="m22805 45596h-334.67"/>
      <path d="m21092 45815c449.64 392.09 1119.7 392.09 1569.3 0"/>
      <path d="m21283 45596h-334.67"/>
     </g>
     <path d="m22470 45757v-294.47h-1186.7v294.47" fill="#fff"/>
     <g fill="none" stroke="#000" stroke-linecap="round" stroke-linejoin="round" stroke-miterlimit="10" stroke-width="47.244">
      <path d="m17209 45594h-334.67"/>
      <path d="m15497 45814c449.64 392.09 1119.7 392.09 1569.3 0"/>
      <path d="m15688 45594h-334.67"/>
     </g>
     <path d="m16875 45756v-294.47h-1186.7v294.47" fill="#fff"/>
     <g fill="none" stroke="#000" stroke-linecap="round" stroke-linejoin="round" stroke-miterlimit="10" stroke-width="47.244">
      <path d="m21001 45594h-4232.6"/>
      <path d="m15351 45592h-2220.2"/>
      <path d="m11650 38951v4124.4"/>
     </g>
     <path d="m11495 41014 1.91-24.19 5.66-23.6 9.29-22.43 12.68-20.69 15.76-18.46 18.46-15.76 20.69-12.68 22.42-9.29 23.6-5.66 24.2-1.91 24.19 1.91 23.6 5.66 22.43 9.29 20.69 12.68 18.45 15.76 15.77 18.46 12.68 20.69 9.28 22.43 5.67 23.6 1.9 24.19-1.9 24.2-5.67 23.6-9.28 22.42-12.68 20.69-15.77 18.46-18.45 15.76-20.69 12.68-22.43 9.29-23.6 5.66-24.19 1.91-24.2-1.91-23.6-5.66-22.42-9.29-20.69-12.68-18.46-15.76-15.76-18.46-12.68-20.69-9.29-22.42-5.66-23.6-1.91-24.2"/>
     <g fill="none" stroke="#000" stroke-linecap="round" stroke-linejoin="round" stroke-miterlimit="10" stroke-width="47.244">
      <path d="m11495 41014c0-85.419 69.248-154.67 154.67-154.67s154.67 69.247 154.67 154.67-69.247 154.67-154.67 154.67-154.67-69.246-154.67-154.67"/>
      <path d="m10619 38436h322.15"/>
      <path d="m11083 38436h283.59"/>
      <path d="m11508 38436h283.59"/>
      <path d="m11933 38436h283.59"/>
      <path d="m12359 38436h322.14v167.3"/>
      <path d="m12681 38745v283.58"/>
      <path d="m12681 39170v283.58"/>
      <path d="m12681 39596v283.58"/>
      <path d="m12681 40021v283.58"/>
      <path d="m12681 40447v283.59"/>
      <path d="m12681 40872v283.59"/>
      <path d="m12681 41297v283.59"/>
      <path d="m12681 41723v283.59"/>
      <path d="m12681 42148v283.58"/>
      <path d="m12681 42573v283.58"/>
      <path d="m12681 42999v283.58"/>
      <path d="m12681 43424v167.29h-322.14"/>
      <path d="m12217 43591h-283.59"/>
      <path d="m11792 43591h-283.59"/>
      <path d="m11366 43591h-283.59"/>
      <path d="m10941 43591h-322.15v-167.29"/>
      <path d="m10619 43282v-283.58"/>
      <path d="m10619 42857v-283.58"/>
      <path d="m10619 42432v-283.58"/>
      <path d="m10619 42006v-283.59"/>
      <path d="m10619 41581v-283.59"/>
      <path d="m10619 41156v-283.59"/>
      <path d="m10619 40730v-283.59"/>
      <path d="m10619 40305v-283.58"/>
      <path d="m10619 39879v-283.58"/>
      <path d="m10619 39454v-283.58"/>
      <path d="m10619 39029v-283.58"/>
      <path d="m10619 38603v-167.3"/>
     </g>
     <g>
      <text transform="matrix(1 0 0 -1 10438 37924)" fill="#000000" font-family="Arial" font-size="460.74px">
       <tspan x="0 306.85138 613.70276 869.87292 997.49731 1253.6675 1509.8378 1766.0079 2124.0012" y="0">SEL 700GT</tspan>
      </text>
      <text transform="matrix(1 0 0 -1 11424 43767)" fill="#000000" font-family="Arial" font-size="460.74px">
       <tspan x="0 383.79459" y="0">M1</tspan>
      </text>
      <path d="m19439 45601 1.9-24.2 5.67-23.6 9.29-22.42 12.68-20.69 15.76-18.46 18.46-15.76 20.69-12.68 22.42-9.29 23.6-5.66 24.2-1.91 24.19 1.91 23.6 5.66 22.42 9.29 20.7 12.68 18.45 15.76 15.76 18.46 12.69 20.69 9.28 22.42 5.67 23.6 1.9 24.2-1.9 24.19-5.67 23.6-9.28 22.42-12.69 20.7-15.76 18.45-18.45 15.77-20.7 12.68-22.42 9.28-23.6 5.67-24.19 1.9-24.2-1.9-23.6-5.67-22.42-9.28-20.69-12.68-18.46-15.77-15.76-18.45-12.68-20.7-9.29-22.42-5.67-23.6-1.9-24.19"/>
     </g>
     <g fill="none" stroke="#000" stroke-linecap="round" stroke-linejoin="round" stroke-miterlimit="10" stroke-width="47.244">
      <path d="m19439 45601c0-85.423 69.247-154.67 154.67-154.67s154.67 69.246 154.67 154.67-69.247 154.67-154.67 154.67-154.67-69.247-154.67-154.67"/>
      <path d="m19605 41001h-7953.2"/>
      <path d="m19601 40991v4588.3"/>
      <path d="m51540 37408v-9326.6"/>
      <path d="m51540 33284v-334.67"/>
      <path d="m51759 31571c392.1 449.64 392.1 1119.7 0 1569.3"/>
      <path d="m51540 31763v-334.67"/>
     </g>
     <path d="m51702 32949h-294.47v-1186.7h294.47" fill="#fff"/>
     <g fill="none" stroke="#000" stroke-linecap="round" stroke-linejoin="round" stroke-miterlimit="10" stroke-width="47.244">
      <path d="m43048 33537h-2935.5"/>
      <path d="m44647 33537h-334.67"/>
      <path d="m42934 33756c449.64 392.09 1119.7 392.09 1569.3 1e-3"/>
      <path d="m43125 33537h-334.67"/>
     </g>
     <path d="m44312 33699v-294.47h-1186.7v294.47" fill="#fff"/>
     <path d="m47407 33536h-3026.8" fill="none" stroke="#000" stroke-linecap="round" stroke-linejoin="round" stroke-miterlimit="10" stroke-width="47.244"/>
     <text transform="matrix(1 0 0 -1 43297 34720)" fill="#000000" font-family="Arial" font-size="460.74px">
      <tspan x="0 281.05005 408.67441" y="0">TIE</tspan>
     </text>
    </g>
   </g>
   <g clip-path="url(#b)">
    <g transform="scale(.015)">
     <path d="m5600 2545.4h74867v47642h-74867z" fill="none" stroke="#000" stroke-linecap="round" stroke-linejoin="round" stroke-miterlimit="10" stroke-width="50"/>
    </g>
   </g>
   <g clip-path="url(#a)"></g>
  </g>
 </g>
</svg>
